<?xml version="1.0" encoding="utf-8"?>
<!-- Generator: Adobe Illustrator 22.0.1, SVG Export Plug-In . SVG Version: 6.00 Build 0)  -->
<svg version="1.1" id="Ebene_1" xmlns="http://www.w3.org/2000/svg" xmlns:xlink="http://www.w3.org/1999/xlink" x="0px" y="0px"
	 viewBox="0 0 35.4 28.3" style="enable-background:new 0 0 35.4 28.3;" xml:space="preserve">
<style type="text/css">
	.st0{fill:url(#SVGID_1_);}
</style>
<linearGradient id="SVGID_1_" gradientUnits="userSpaceOnUse" x1="2.4648" y1="4.5638" x2="31.6282" y2="25.2395" gradientTransform="matrix(1 0 0 -1 0 26.483)">
	<stop  offset="0" style="stop-color:#386236"/>
	<stop  offset="1" style="stop-color:#94C24C"/>
</linearGradient>
<path class="st0" d="M3.1,22.2c0,0,5.5-8.3,12.1-12.9C21.4,5,28.7,4.5,30.1,4.9c-3.9,0.5-9.7,2.3-14.9,6.3
	c-4.6,3.5-8.8,8.9-9.7,13.1c-0.3,1.4,2.3,5.2,7.9,3.5c7.9-2.3,9.5-11.4,11.3-14.6c1.8-3.2,5.8-7.8,10.7-8c0,0-11.8-9.5-25.2-2.9
	C-3,8.8-1,23.8,3.1,22.2z"/>
</svg>
