<?xml version="1.0" encoding="utf-8"?>
<!-- Generator: Adobe Illustrator 22.0.1, SVG Export Plug-In . SVG Version: 6.00 Build 0)  -->
<svg version="1.1" id="Ebene_1" xmlns="http://www.w3.org/2000/svg" xmlns:xlink="http://www.w3.org/1999/xlink" x="0px" y="0px"
	 viewBox="0 0 406.3 81.8" style="enable-background:new 0 0 406.3 81.8;" xml:space="preserve">
<style type="text/css">
	.st0{fill:#3C3C3B;}
	.st1{fill:#94C24A;}
	.st2{fill:url(#SVGID_1_);}
	.st3{fill:url(#SVGID_2_);}
	.st4{fill:url(#SVGID_3_);}
</style>
<path class="st0" d="M52.4,75c0.4-0.6,2.5-3.5,5-9.1c2.8-6.2,4.2-11.3,4.2-11.3c0.1-0.3-0.1-0.7-0.4-0.8c-0.3-0.1-0.7,0-0.8,0.2
	c-2.2,3.2-3.6,4.3-4.3,4.6c-1.6-3.4-4.5-6.4-7.2-9.2c-3.9-4.1-7.6-7.9-7.2-12.5c0.3-3.8,3.5-7.7,9.6-12.2c0,0,0.5-0.4,0.2-0.9
	c-0.3-0.5-0.8-0.3-0.8-0.3s-12.2,5.7-12.9,12.9c-0.2,1.8-0.3,3.5,0.2,5.2c-1-0.4-2.3-1.1-4.2-2.6c-0.3-0.2-0.6-0.2-0.9,0
	c-0.2,0.2-0.3,0.6-0.1,0.9c1.6,2.4,6.2,6.5,8.7,8.6c0.4,0.6,0.7,1.1,1.1,1.7c4.8,7.1,9.7,14.4-1.3,24.7c-15.2,0.1-26.6,0.7-26.6,1.4
	c0,0.8,15.2,1.4,33.9,1.4s33.9-0.6,33.9-1.4C82.5,75.6,69.3,75.1,52.4,75z"/>
<g>
	<path class="st0" d="M129,60.7c1,1.1,1.6,2.7,1.6,4.6v8.4c0,0.4-0.1,0.8-0.4,1.1s-0.6,0.4-1.1,0.4c-0.4,0-0.8-0.1-1.1-0.4
		s-0.4-0.6-0.4-1.1v-8.4c0-1.2-0.3-2.1-0.9-2.7s-1.4-0.9-2.4-0.9c-1,0-1.8,0.4-2.5,1.1c-0.7,0.7-1,1.6-1,2.7v8.2
		c0,0.4-0.1,0.8-0.4,1.1c-0.3,0.3-0.6,0.4-1.1,0.4c-0.4,0-0.8-0.1-1.1-0.4c-0.3-0.3-0.4-0.6-0.4-1.1v-8.4c0-1.2-0.3-2.1-0.9-2.7
		c-0.6-0.6-1.4-0.9-2.4-0.9c-1,0-1.9,0.4-2.5,1.1c-0.7,0.7-1,1.6-1,2.7v8.2c0,0.4-0.1,0.8-0.4,1.1c-0.3,0.3-0.6,0.4-1.1,0.4
		c-0.4,0-0.8-0.1-1.1-0.4s-0.4-0.6-0.4-1.1v-13c0-0.4,0.1-0.8,0.4-1.1s0.6-0.4,1.1-0.4s0.8,0.1,1.1,0.4s0.4,0.6,0.4,1
		c0.5-0.5,1.1-0.9,1.8-1.2c0.7-0.3,1.5-0.4,2.3-0.4c1,0,1.9,0.2,2.7,0.6s1.4,1,1.9,1.7c0.6-0.7,1.3-1.3,2.2-1.7
		c0.9-0.4,1.9-0.6,2.9-0.6C126.6,59,128,59.6,129,60.7z"/>
	<path class="st0" d="M148.8,67.8c-0.3,0.2-0.6,0.4-1,0.4h-11.1c0.2,1.4,0.8,2.5,1.9,3.3c1,0.8,2.3,1.3,3.8,1.3
		c0.6,0,1.2-0.1,1.8-0.3c0.6-0.2,1.2-0.5,1.6-0.8c0.3-0.2,0.6-0.3,1-0.3c0.4,0,0.7,0.1,0.9,0.3c0.4,0.3,0.5,0.6,0.5,1
		c0,0.4-0.2,0.6-0.5,0.9c-0.7,0.5-1.5,1-2.5,1.3c-1,0.3-1.9,0.5-2.8,0.5c-1.6,0-3-0.3-4.3-1c-1.3-0.7-2.3-1.7-3-2.9
		c-0.7-1.2-1.1-2.6-1.1-4.2s0.3-3,1-4.2c0.7-1.2,1.6-2.2,2.8-2.9c1.2-0.7,2.6-1,4.1-1c1.5,0,2.8,0.3,3.9,1c1.1,0.7,1.9,1.6,2.5,2.8
		c0.6,1.2,0.9,2.6,0.9,4.1C149.2,67.3,149.1,67.6,148.8,67.8z M138.5,62.7c-0.9,0.8-1.4,1.8-1.7,3.1h9.7c-0.2-1.3-0.7-2.3-1.5-3.1
		c-0.8-0.8-1.8-1.2-3.1-1.2C140.5,61.6,139.3,62,138.5,62.7z"/>
	<path class="st0" d="M152.8,56c-0.4-0.4-0.6-0.8-0.6-1.4s0.2-1,0.6-1.4c0.4-0.4,0.8-0.6,1.4-0.6s1,0.2,1.4,0.6
		c0.4,0.4,0.6,0.8,0.6,1.4s-0.2,1-0.6,1.4c-0.4,0.4-0.8,0.6-1.4,0.6S153.1,56.4,152.8,56z M153.1,74.7c-0.3-0.3-0.4-0.6-0.4-1.1v-13
		c0-0.4,0.1-0.8,0.4-1.1c0.3-0.3,0.6-0.4,1.1-0.4c0.4,0,0.8,0.1,1.1,0.4c0.3,0.3,0.4,0.6,0.4,1.1v13c0,0.4-0.1,0.8-0.4,1.1
		c-0.3,0.3-0.6,0.4-1.1,0.4C153.7,75.2,153.3,75,153.1,74.7z"/>
	<path class="st0" d="M171.9,59.9c1.1,0.6,1.9,1.4,2.5,2.6c0.6,1.1,0.9,2.5,0.9,4v7.2c0,0.4-0.1,0.8-0.4,1.1
		c-0.3,0.3-0.6,0.4-1.1,0.4c-0.4,0-0.8-0.1-1.1-0.4c-0.3-0.3-0.4-0.6-0.4-1.1v-7.2c0-1.6-0.4-2.8-1.3-3.6c-0.8-0.8-2-1.2-3.4-1.2
		c-0.8,0-1.6,0.2-2.2,0.5c-0.7,0.3-1.2,0.8-1.6,1.3c-0.4,0.6-0.6,1.2-0.6,1.9v8.2c0,0.4-0.1,0.8-0.4,1.1c-0.3,0.3-0.6,0.4-1.1,0.4
		c-0.4,0-0.8-0.1-1.1-0.4s-0.4-0.6-0.4-1.1v-13c0-0.4,0.1-0.8,0.4-1.1s0.6-0.4,1.1-0.4c0.4,0,0.8,0.1,1.1,0.4
		c0.3,0.3,0.4,0.6,0.4,1.1V61c0.6-0.6,1.4-1.1,2.2-1.4c0.9-0.3,1.8-0.5,2.7-0.5C169.6,59,170.8,59.3,171.9,59.9z"/>
	<path class="st0" d="M190.9,60.1c1.2,0.7,2.2,1.7,2.9,2.9c0.7,1.2,1,2.6,1,4.2v6.3c0,1.5-0.3,2.9-1,4.2c-0.7,1.3-1.6,2.3-2.9,3
		c-1.2,0.7-2.6,1.1-4.2,1.1c-1.4,0-2.7-0.3-3.9-0.8c-1.2-0.6-2.2-1.4-3-2.4c-0.2-0.3-0.3-0.5-0.3-0.8c0-0.4,0.2-0.8,0.6-1.1
		c0.3-0.2,0.5-0.3,0.8-0.3c0.5,0,0.9,0.2,1.2,0.6c0.5,0.7,1.2,1.2,2,1.6c0.8,0.4,1.7,0.5,2.7,0.5c1,0,1.8-0.2,2.6-0.7
		c0.8-0.5,1.4-1.1,1.9-2c0.5-0.9,0.7-1.9,0.7-3.2v-1.4c-0.6,1.1-1.4,1.9-2.4,2.5c-1,0.6-2.1,0.9-3.4,0.9c-1.4,0-2.7-0.3-3.9-1
		c-1.1-0.7-2-1.7-2.7-2.9c-0.6-1.2-1-2.6-1-4.2c0-1.6,0.3-3,1-4.2c0.7-1.2,1.6-2.2,2.9-2.9c1.2-0.7,2.6-1,4.2-1
		C188.3,59.1,189.7,59.4,190.9,60.1z M189.5,72c0.8-0.5,1.4-1.1,1.8-1.9c0.4-0.8,0.7-1.8,0.7-2.8s-0.2-2-0.7-2.8
		c-0.4-0.8-1.1-1.5-1.8-2s-1.7-0.7-2.7-0.7s-1.9,0.2-2.7,0.7s-1.4,1.1-1.9,2c-0.4,0.8-0.7,1.8-0.7,2.8s0.2,2,0.7,2.8
		s1.1,1.5,1.9,1.9c0.8,0.5,1.7,0.7,2.7,0.7S188.7,72.4,189.5,72z"/>
	<path class="st0" d="M210.1,60.1c1.2,0.7,2.2,1.7,2.9,2.9c0.7,1.2,1.1,2.6,1.1,4.1v6.5c0,0.4-0.1,0.8-0.4,1.1
		c-0.3,0.3-0.6,0.4-1.1,0.4c-0.4,0-0.8-0.1-1.1-0.4c-0.3-0.3-0.4-0.6-0.4-1.1v-1.1c-0.7,0.8-1.5,1.5-2.5,2c-1,0.5-2,0.7-3.2,0.7
		c-1.4,0-2.7-0.4-3.8-1.1c-1.1-0.7-2-1.7-2.7-2.9c-0.7-1.2-1-2.6-1-4.1c0-1.5,0.4-2.9,1.1-4.1c0.7-1.2,1.7-2.2,2.9-2.9
		c1.2-0.7,2.6-1.1,4.1-1.1C207.5,59.1,208.9,59.4,210.1,60.1z M208.7,71.9c0.8-0.5,1.4-1.1,1.9-2c0.4-0.8,0.7-1.8,0.7-2.8
		s-0.2-2-0.7-2.8c-0.4-0.8-1.1-1.5-1.9-2c-0.8-0.5-1.7-0.7-2.6-0.7c-1,0-1.9,0.2-2.6,0.7c-0.8,0.5-1.4,1.1-1.9,2
		c-0.5,0.8-0.7,1.8-0.7,2.8s0.2,2,0.7,2.8s1.1,1.5,1.9,2c0.8,0.5,1.7,0.7,2.6,0.7C207,72.7,207.9,72.4,208.7,71.9z"/>
	<path class="st0" d="M228.4,59.5c0.6,0.3,0.9,0.7,0.9,1.2c0,0.1,0,0.2,0,0.3c-0.2,0.6-0.6,0.9-1.2,0.9c-0.1,0-0.2,0-0.4-0.1
		c-0.8-0.1-1.4-0.2-1.9-0.2c-1.4,0-2.5,0.3-3.4,1c-0.9,0.6-1.3,1.5-1.3,2.6v8.5c0,0.5-0.1,0.8-0.4,1.1c-0.2,0.3-0.6,0.4-1.1,0.4
		c-0.5,0-0.8-0.1-1.1-0.4c-0.3-0.2-0.4-0.6-0.4-1.1V60.6c0-0.5,0.1-0.8,0.4-1.1c0.3-0.3,0.6-0.4,1.1-0.4c1,0,1.5,0.5,1.5,1.5v0.6
		c0.6-0.7,1.3-1.2,2.2-1.6c0.9-0.4,1.8-0.6,2.7-0.6C227,59,227.8,59.2,228.4,59.5z"/>
	<path class="st0" d="M240.6,72.7c0.2,0.3,0.4,0.6,0.4,1.1s-0.2,0.8-0.5,1.1c-0.3,0.3-0.7,0.4-1.2,0.4h-0.5c-1,0-1.8-0.2-2.6-0.7
		c-0.8-0.5-1.4-1.2-1.9-2s-0.7-1.8-0.7-2.9v-7.2h-1.3c-0.4,0-0.7-0.1-1-0.4c-0.3-0.2-0.4-0.5-0.4-0.9c0-0.4,0.1-0.7,0.4-0.9
		c0.3-0.2,0.6-0.4,1-0.4h1.3v-4.2c0-0.4,0.1-0.8,0.4-1.1c0.3-0.3,0.6-0.4,1.1-0.4s0.8,0.1,1.1,0.4c0.3,0.3,0.4,0.6,0.4,1.1v4.2h2.5
		c0.4,0,0.7,0.1,1,0.4c0.3,0.2,0.4,0.5,0.4,0.9c0,0.4-0.1,0.6-0.4,0.9c-0.3,0.2-0.6,0.4-1,0.4h-2.5v7.2c0,0.8,0.2,1.4,0.6,2
		c0.4,0.5,1,0.8,1.6,0.8h1C240,72.2,240.3,72.4,240.6,72.7z"/>
	<path class="st0" d="M257.2,67.8c-0.3,0.2-0.6,0.4-1,0.4h-11.1c0.2,1.4,0.8,2.5,1.9,3.3c1,0.8,2.3,1.3,3.8,1.3
		c0.6,0,1.2-0.1,1.8-0.3c0.6-0.2,1.2-0.5,1.6-0.8c0.3-0.2,0.6-0.3,1-0.3s0.7,0.1,0.9,0.3c0.4,0.3,0.5,0.6,0.5,1
		c0,0.4-0.2,0.6-0.5,0.9c-0.7,0.5-1.5,1-2.5,1.3c-1,0.3-1.9,0.5-2.8,0.5c-1.6,0-3-0.3-4.3-1c-1.3-0.7-2.3-1.7-3-2.9
		c-0.7-1.2-1.1-2.6-1.1-4.2s0.3-3,1-4.2c0.7-1.2,1.6-2.2,2.8-2.9c1.2-0.7,2.6-1,4.1-1c1.5,0,2.8,0.3,3.9,1c1.1,0.7,1.9,1.6,2.5,2.8
		c0.6,1.2,0.9,2.6,0.9,4.1C257.6,67.3,257.5,67.6,257.2,67.8z M246.9,62.7c-0.9,0.8-1.4,1.8-1.7,3.1h9.7c-0.2-1.3-0.7-2.3-1.5-3.1
		c-0.8-0.8-1.8-1.2-3.1-1.2C248.9,61.6,247.8,62,246.9,62.7z"/>
	<path class="st0" d="M272.5,59.9c1.1,0.6,1.9,1.4,2.5,2.6c0.6,1.1,0.9,2.5,0.9,4v7.2c0,0.4-0.1,0.8-0.4,1.1
		c-0.3,0.3-0.6,0.4-1.1,0.4s-0.8-0.1-1.1-0.4c-0.3-0.3-0.4-0.6-0.4-1.1v-7.2c0-1.6-0.4-2.8-1.3-3.6c-0.8-0.8-2-1.2-3.4-1.2
		c-0.8,0-1.6,0.2-2.2,0.5s-1.2,0.8-1.6,1.3c-0.4,0.6-0.6,1.2-0.6,1.9v8.2c0,0.4-0.1,0.8-0.4,1.1c-0.3,0.3-0.6,0.4-1.1,0.4
		c-0.4,0-0.8-0.1-1.1-0.4s-0.4-0.6-0.4-1.1v-13c0-0.4,0.1-0.8,0.4-1.1s0.6-0.4,1.1-0.4c0.4,0,0.8,0.1,1.1,0.4
		c0.3,0.3,0.4,0.6,0.4,1.1V61c0.6-0.6,1.4-1.1,2.2-1.4c0.9-0.3,1.8-0.5,2.7-0.5C270.2,59,271.4,59.3,272.5,59.9z"/>
	<path class="st0" d="M283.3,74.2c-1.2-0.7-2.2-1.7-2.9-2.9c-0.7-1.2-1-2.6-1-4.1c0-1.6,0.3-3,1-4.2c0.7-1.2,1.6-2.2,2.8-2.9
		c1.2-0.7,2.6-1,4.1-1c2.3,0,4.2,0.9,5.7,2.6c0.2,0.2,0.3,0.5,0.3,0.8c0,0.4-0.2,0.8-0.6,1.1c-0.2,0.1-0.4,0.2-0.7,0.2
		c-0.4,0-0.8-0.2-1.1-0.5c-0.5-0.5-1-0.9-1.6-1.2c-0.6-0.2-1.2-0.4-2-0.4c-1.5,0-2.7,0.5-3.7,1.5c-0.9,1-1.4,2.3-1.4,4
		c0,1.1,0.2,2,0.7,2.8s1.1,1.5,1.8,1.9c0.8,0.5,1.7,0.7,2.7,0.7c1.3,0,2.4-0.3,3.2-1c0.4-0.3,0.7-0.4,1.1-0.4c0.3,0,0.5,0.1,0.8,0.3
		c0.4,0.3,0.6,0.7,0.6,1.1c0,0.3-0.1,0.6-0.4,0.8c-1.4,1.3-3.2,2-5.3,2C285.9,75.3,284.5,74.9,283.3,74.2z"/>
	<path class="st0" d="M310.5,67.8c-0.3,0.2-0.6,0.4-1,0.4h-11.1c0.2,1.4,0.8,2.5,1.9,3.3c1,0.8,2.3,1.3,3.8,1.3
		c0.6,0,1.2-0.1,1.8-0.3c0.6-0.2,1.2-0.5,1.6-0.8c0.3-0.2,0.6-0.3,1-0.3s0.7,0.1,0.9,0.3c0.4,0.3,0.5,0.6,0.5,1
		c0,0.4-0.2,0.6-0.5,0.9c-0.7,0.5-1.5,1-2.5,1.3c-1,0.3-1.9,0.5-2.8,0.5c-1.6,0-3-0.3-4.3-1c-1.3-0.7-2.3-1.7-3-2.9
		c-0.7-1.2-1.1-2.6-1.1-4.2s0.3-3,1-4.2c0.7-1.2,1.6-2.2,2.8-2.9c1.2-0.7,2.6-1,4.1-1c1.5,0,2.8,0.3,3.9,1c1.1,0.7,1.9,1.6,2.5,2.8
		c0.6,1.2,0.9,2.6,0.9,4.1C310.9,67.3,310.8,67.6,310.5,67.8z M300.2,62.7c-0.9,0.8-1.4,1.8-1.7,3.1h9.7c-0.2-1.3-0.7-2.3-1.5-3.1
		c-0.8-0.8-1.8-1.2-3.1-1.2C302.2,61.6,301.1,62,300.2,62.7z"/>
	<path class="st0" d="M325.8,59.9c1.1,0.6,1.9,1.4,2.5,2.6c0.6,1.1,0.9,2.5,0.9,4v7.2c0,0.4-0.1,0.8-0.4,1.1
		c-0.3,0.3-0.6,0.4-1.1,0.4s-0.8-0.1-1.1-0.4c-0.3-0.3-0.4-0.6-0.4-1.1v-7.2c0-1.6-0.4-2.8-1.3-3.6c-0.8-0.8-2-1.2-3.4-1.2
		c-0.8,0-1.6,0.2-2.2,0.5s-1.2,0.8-1.6,1.3c-0.4,0.6-0.6,1.2-0.6,1.9v8.2c0,0.4-0.1,0.8-0.4,1.1c-0.3,0.3-0.6,0.4-1.1,0.4
		c-0.4,0-0.8-0.1-1.1-0.4s-0.4-0.6-0.4-1.1v-13c0-0.4,0.1-0.8,0.4-1.1s0.6-0.4,1.1-0.4c0.4,0,0.8,0.1,1.1,0.4
		c0.3,0.3,0.4,0.6,0.4,1.1V61c0.6-0.6,1.4-1.1,2.2-1.4c0.9-0.3,1.8-0.5,2.7-0.5C323.5,59,324.7,59.3,325.8,59.9z"/>
	<path class="st0" d="M340.9,72.7c0.2,0.3,0.4,0.6,0.4,1.1s-0.2,0.8-0.5,1.1c-0.3,0.3-0.7,0.4-1.2,0.4H339c-1,0-1.8-0.2-2.6-0.7
		c-0.8-0.5-1.4-1.2-1.9-2s-0.7-1.8-0.7-2.9v-7.2h-1.3c-0.4,0-0.7-0.1-1-0.4c-0.3-0.2-0.4-0.5-0.4-0.9c0-0.4,0.1-0.7,0.4-0.9
		c0.3-0.2,0.6-0.4,1-0.4h1.3v-4.2c0-0.4,0.1-0.8,0.4-1.1c0.3-0.3,0.6-0.4,1.1-0.4s0.8,0.1,1.1,0.4c0.3,0.3,0.4,0.6,0.4,1.1v4.2h2.5
		c0.4,0,0.7,0.1,1,0.4c0.3,0.2,0.4,0.5,0.4,0.9c0,0.4-0.1,0.6-0.4,0.9c-0.3,0.2-0.6,0.4-1,0.4h-2.5v7.2c0,0.8,0.2,1.4,0.6,2
		c0.4,0.5,1,0.8,1.6,0.8h1C340.3,72.2,340.6,72.4,340.9,72.7z"/>
	<path class="st0" d="M357.5,67.8c-0.3,0.2-0.6,0.4-1,0.4h-11.1c0.2,1.4,0.8,2.5,1.9,3.3c1,0.8,2.3,1.3,3.8,1.3
		c0.6,0,1.2-0.1,1.8-0.3c0.6-0.2,1.2-0.5,1.6-0.8c0.3-0.2,0.6-0.3,1-0.3s0.7,0.1,0.9,0.3c0.4,0.3,0.5,0.6,0.5,1
		c0,0.4-0.2,0.6-0.5,0.9c-0.7,0.5-1.5,1-2.5,1.3c-1,0.3-1.9,0.5-2.8,0.5c-1.6,0-3-0.3-4.3-1c-1.3-0.7-2.3-1.7-3-2.9
		c-0.7-1.2-1.1-2.6-1.1-4.2s0.3-3,1-4.2c0.7-1.2,1.6-2.2,2.8-2.9c1.2-0.7,2.6-1,4.1-1c1.5,0,2.8,0.3,3.9,1c1.1,0.7,1.9,1.6,2.5,2.8
		c0.6,1.2,0.9,2.6,0.9,4.1C357.9,67.3,357.8,67.6,357.5,67.8z M347.2,62.7c-0.9,0.8-1.4,1.8-1.7,3.1h9.7c-0.2-1.3-0.7-2.3-1.5-3.1
		c-0.8-0.8-1.8-1.2-3.1-1.2C349.2,61.6,348.1,62,347.2,62.7z"/>
	<path class="st0" d="M371.5,59.5c0.6,0.3,0.9,0.7,0.9,1.2c0,0.1,0,0.2,0,0.3c-0.2,0.6-0.6,0.9-1.2,0.9c-0.1,0-0.2,0-0.4-0.1
		c-0.8-0.1-1.4-0.2-1.9-0.2c-1.4,0-2.5,0.3-3.4,1c-0.9,0.6-1.3,1.5-1.3,2.6v8.5c0,0.5-0.1,0.8-0.4,1.1c-0.2,0.3-0.6,0.4-1.1,0.4
		c-0.5,0-0.8-0.1-1.1-0.4c-0.3-0.2-0.4-0.6-0.4-1.1V60.6c0-0.5,0.1-0.8,0.4-1.1c0.3-0.3,0.6-0.4,1.1-0.4c1,0,1.5,0.5,1.5,1.5v0.6
		c0.6-0.7,1.3-1.2,2.2-1.6c0.9-0.4,1.8-0.6,2.7-0.6C370.2,59,371,59.2,371.5,59.5z"/>
	<path class="st1" d="M375,74.7c-0.3-0.3-0.4-0.6-0.4-1.1c0-0.4,0.1-0.8,0.4-1.1l8.3-9.7c1.2-1.4,1.8-2.6,1.8-3.7c0-1.3-0.3-2.3-1-3
		s-1.5-1.1-2.7-1.1c-0.7,0-1.4,0.2-2,0.6c-0.6,0.4-1.1,0.9-1.4,1.5c-0.3,0.6-0.5,1.3-0.5,2.1c0,0.4-0.1,0.7-0.4,1
		c-0.3,0.3-0.6,0.4-1.1,0.4c-0.4,0-0.8-0.1-1.1-0.4c-0.3-0.3-0.4-0.6-0.4-1c0-1.3,0.3-2.5,0.9-3.5c0.6-1.1,1.4-1.9,2.5-2.5
		c1-0.6,2.2-0.9,3.5-0.9c1.3,0,2.5,0.3,3.4,0.8c1,0.6,1.7,1.4,2.3,2.4c0.5,1,0.8,2.3,0.8,3.7c0,0.9-0.2,1.8-0.7,2.7
		c-0.5,0.9-1.1,1.8-1.9,2.6l-6.7,7.6h8.2c0.4,0,0.8,0.1,1.1,0.4c0.3,0.3,0.4,0.6,0.4,1.1c0,0.4-0.1,0.8-0.4,1.1
		c-0.3,0.3-0.7,0.4-1.1,0.4h-10.8C375.6,75.2,375.3,75,375,74.7z"/>
	<path class="st1" d="M405.9,67.6c0.3,0.2,0.4,0.6,0.4,1c0,0.4-0.1,0.7-0.4,1c-0.3,0.3-0.6,0.4-1.1,0.4H403v3.7
		c0,0.4-0.1,0.8-0.4,1.1c-0.3,0.3-0.6,0.4-1,0.4c-0.4,0-0.7-0.1-1-0.4c-0.3-0.3-0.4-0.6-0.4-1.1V70h-9.7c-0.4,0-0.8-0.1-1.1-0.4
		c-0.3-0.3-0.4-0.6-0.4-1c0-0.3,0.1-0.6,0.3-0.9L400.4,53c0.3-0.4,0.7-0.6,1.2-0.6c0.4,0,0.7,0.1,1,0.4c0.3,0.3,0.4,0.7,0.4,1.1
		v13.5h1.8C405.2,67.3,405.6,67.4,405.9,67.6z M400.2,67.3v-9.7l-7.4,9.7H400.2z"/>
</g>
<g>
	<linearGradient id="SVGID_1_" gradientUnits="userSpaceOnUse" x1="51.0652" y1="22.5122" x2="77.3993" y2="-2.5161">
		<stop  offset="0" style="stop-color:#376135"/>
		<stop  offset="1" style="stop-color:#94C24A"/>
	</linearGradient>
	<path class="st2" d="M79.6,0.1C73.3,5,73.1,18.1,67.9,22.7c-6.6,5.9-13.4,3.9-15.7,1.5C54,17.9,72,4.2,72,4.2
		c-3.7,2.1-8.2,4.9-12.1,7.9c-5.1,3.9-8.8,9.5-9.2,10.4C42.1,18.9,46,8,55.3,3.6C64.6-0.9,79.7,0.1,79.6,0.1
		C79.7,0.1,79.7,0.1,79.6,0.1"/>
	<g>
		<g>
			<path class="st0" d="M52.3,75.4"/>
			<path class="st1" d="M48.5,25.2c0,0-12.4,7.6-9.9,15.1C38.7,40.4,36.1,34.6,48.5,25.2z"/>
			<path class="st1" d="M43.1,75c0,0,13.7-10.3,0.3-25.5C43.4,49.4,58.3,62.6,43.1,75z"/>
		</g>
		<g>
			<g>
				<path class="st1" d="M72,5.4c0,0-11.4,8.1-16.6,16.4C55.3,22,62,13.9,72,5.4z"/>
			</g>
			<g>
				<linearGradient id="SVGID_2_" gradientUnits="userSpaceOnUse" x1="34.5854" y1="38.3267" x2="2.8104" y2="21.351">
					<stop  offset="0" style="stop-color:#376135"/>
					<stop  offset="1" style="stop-color:#94C24A"/>
				</linearGradient>
				<path class="st3" d="M22.9,19.4C8.7,15.4,0,28,0,28c4.6-0.8,9.5,3.1,12.1,6.1c0.9,1.1,1.9,2.6,3.2,4.1l0,0
					c0,0,7.4,12.2,16.1,6.4c1.3-1.2,1.9-2.2,1.5-3.1c-2.9-6.3-15.7-14.7-19.9-15c1.1-0.4,8.4,1.5,13.6,5c4.6,3.1,7.2,7.7,8.1,7.4
					C39.4,39.1,37.1,23.4,22.9,19.4z"/>
				<path class="st1" d="M2.4,25.9c0,0,14-14,28.7-0.8C30.7,25.3,18.6,12.8,2.4,25.9z"/>
				<path class="st1" d="M16.5,39c0,0,7.3,9.6,14.5,5.4C30.7,44.3,24.4,47.5,16.5,39z"/>
			</g>
			<g>
				<linearGradient id="SVGID_3_" gradientUnits="userSpaceOnUse" x1="58.8649" y1="53.4639" x2="88.0283" y2="32.7883">
					<stop  offset="0" style="stop-color:#376135"/>
					<stop  offset="1" style="stop-color:#94C24A"/>
				</linearGradient>
				<path class="st4" d="M59.5,53.8c0,0,5.5-8.3,12.1-12.9c6.2-4.3,13.5-4.8,14.9-4.4c-3.9,0.5-9.7,2.3-14.9,6.3
					c-4.6,3.5-8.8,8.9-9.7,13.1c-0.3,1.4,2.3,5.2,7.9,3.5c7.9-2.3,9.5-11.4,11.3-14.6c1.8-3.2,5.8-7.8,10.7-8c0,0-11.8-9.5-25.2-2.9
					C53.4,40.4,55.4,55.4,59.5,53.8z"/>
				<path class="st1" d="M57.5,51.7c0,0-3.5-19.7,23.9-19.3C81.6,32.4,58.2,30.9,57.5,51.7z"/>
				<path class="st1" d="M63.9,57.8c0,0,6.2,4.2,13.4-5.8C77.6,52,72.4,59.7,63.9,57.8z"/>
			</g>
		</g>
	</g>
	<path class="st1" d="M46.5,17.6c0,0-1.5-13.4,19-16.4c0,0-9.5,1.5-14.4,6.5S46.5,17.6,46.5,17.6z"/>
</g>
</svg>
