<?xml version="1.0" encoding="utf-8"?>
<!-- Generator: Adobe Illustrator 22.0.1, SVG Export Plug-In . SVG Version: 6.00 Build 0)  -->
<svg version="1.1" id="Ebene_1" xmlns="http://www.w3.org/2000/svg" xmlns:xlink="http://www.w3.org/1999/xlink" x="0px" y="0px"
	 viewBox="0 0 506 85" style="enable-background:new 0 0 506 85;" xml:space="preserve">
<style type="text/css">
	.st0{fill:#3C3C3B;}
	.st1{fill:url(#SVGID_1_);}
	.st2{fill:#94C24A;}
	.st3{fill:url(#SVGID_2_);}
	.st4{fill:url(#SVGID_3_);}
</style>
<path class="st0" d="M52.4,75c0.4-0.6,2.5-3.5,5-9.1c2.8-6.2,4.2-11.3,4.2-11.3c0.1-0.3-0.1-0.7-0.4-0.8c-0.3-0.1-0.7,0-0.8,0.2
	c-2.2,3.2-3.6,4.3-4.3,4.6c-1.6-3.4-4.5-6.4-7.2-9.2c-3.9-4.1-7.6-7.9-7.2-12.5c0.3-3.8,3.5-7.7,9.6-12.2c0,0,0.5-0.4,0.2-0.9
	s-0.8-0.3-0.8-0.3s-12.2,5.7-12.9,12.9c-0.2,1.8-0.3,3.5,0.2,5.2c-1-0.4-2.3-1.1-4.2-2.6c-0.3-0.2-0.6-0.2-0.9,0
	c-0.2,0.2-0.3,0.6-0.1,0.9c1.6,2.4,6.2,6.5,8.7,8.6c0.4,0.6,0.7,1.1,1.1,1.7c4.8,7.1,9.7,14.4-1.3,24.7c-15.2,0.1-26.6,0.7-26.6,1.4
	c0,0.8,15.2,1.4,33.9,1.4s33.9-0.6,33.9-1.4C82.5,75.6,69.3,75.1,52.4,75z"/>
<g>
	
		<linearGradient id="SVGID_1_" gradientUnits="userSpaceOnUse" x1="51.0609" y1="61.8806" x2="77.395" y2="86.9089" gradientTransform="matrix(1 0 0 -1 0 84.383)">
		<stop  offset="0" style="stop-color:#376135"/>
		<stop  offset="1" style="stop-color:#94C24A"/>
	</linearGradient>
	<path class="st1" d="M79.6,0.1c-6.3,4.9-6.5,18-11.7,22.6c-6.6,5.9-13.4,3.9-15.7,1.5C54,17.9,72,4.2,72,4.2
		c-3.7,2.1-8.2,4.9-12.1,7.9c-5.1,3.9-8.8,9.5-9.2,10.4C42.1,18.9,46,8,55.3,3.6C64.6-0.9,79.7,0.1,79.6,0.1
		C79.7,0.1,79.7,0.1,79.6,0.1"/>
	<g>
		<g>
			<path class="st0" d="M52.3,75.4"/>
			<path class="st2" d="M48.5,25.2c0,0-12.4,7.6-9.9,15.1C38.7,40.4,36.1,34.6,48.5,25.2z"/>
			<path class="st2" d="M43.1,75c0,0,13.7-10.3,0.3-25.5C43.4,49.4,58.3,62.6,43.1,75z"/>
		</g>
		<g>
			<g>
				<path class="st2" d="M72,5.4c0,0-11.4,8.1-16.6,16.4C55.3,22,62,13.9,72,5.4z"/>
			</g>
			<g>
				
					<linearGradient id="SVGID_2_" gradientUnits="userSpaceOnUse" x1="34.5823" y1="46.0558" x2="2.8073" y2="63.0315" gradientTransform="matrix(1 0 0 -1 0 84.383)">
					<stop  offset="0" style="stop-color:#376135"/>
					<stop  offset="1" style="stop-color:#94C24A"/>
				</linearGradient>
				<path class="st3" d="M22.9,19.4C8.7,15.4,0,28,0,28c4.6-0.8,9.5,3.1,12.1,6.1c0.9,1.1,1.9,2.6,3.2,4.1l0,0
					c0,0,7.4,12.2,16.1,6.4c1.3-1.2,1.9-2.2,1.5-3.1C30,35.2,17.2,26.8,13,26.5c1.1-0.4,8.4,1.5,13.6,5c4.6,3.1,7.2,7.7,8.1,7.4
					C39.4,39.1,37.1,23.4,22.9,19.4z"/>
				<path class="st2" d="M2.4,25.9c0,0,14-14,28.7-0.8C30.7,25.3,18.6,12.8,2.4,25.9z"/>
				<path class="st2" d="M16.5,39c0,0,7.3,9.6,14.5,5.4C30.7,44.3,24.4,47.5,16.5,39z"/>
			</g>
			<g>
				
					<linearGradient id="SVGID_3_" gradientUnits="userSpaceOnUse" x1="58.8807" y1="30.9022" x2="88.0441" y2="51.5778" gradientTransform="matrix(1 0 0 -1 0 84.383)">
					<stop  offset="0" style="stop-color:#376135"/>
					<stop  offset="1" style="stop-color:#94C24A"/>
				</linearGradient>
				<path class="st4" d="M59.5,53.8c0,0,5.5-8.3,12.1-12.9c6.2-4.3,13.5-4.8,14.9-4.4c-3.9,0.5-9.7,2.3-14.9,6.3
					c-4.6,3.5-8.8,8.9-9.7,13.1c-0.3,1.4,2.3,5.2,7.9,3.5c7.9-2.3,9.5-11.4,11.3-14.6c1.8-3.2,5.8-7.8,10.7-8c0,0-11.8-9.5-25.2-2.9
					C53.4,40.4,55.4,55.4,59.5,53.8z"/>
				<path class="st2" d="M57.5,51.7c0,0-3.5-19.7,23.9-19.3C81.6,32.4,58.2,30.9,57.5,51.7z"/>
				<path class="st2" d="M63.9,57.8c0,0,6.2,4.2,13.4-5.8C77.6,52,72.4,59.7,63.9,57.8z"/>
			</g>
		</g>
	</g>
	<path class="st2" d="M46.5,17.6c0,0-1.5-13.4,19-16.4c0,0-9.5,1.5-14.4,6.5S46.5,17.6,46.5,17.6z"/>
</g>
<g>
	<path class="st0" d="M136,56.8c1.3,1.5,2.1,3.6,2.1,6.1v11.2c0,0.5-0.1,1.1-0.5,1.5c-0.4,0.4-0.8,0.5-1.5,0.5
		c-0.5,0-1.1-0.1-1.5-0.5c-0.4-0.4-0.5-0.8-0.5-1.5V63c0-1.6-0.4-2.8-1.2-3.6c-0.8-0.8-1.9-1.2-3.2-1.2c-1.3,0-2.4,0.5-3.3,1.5
		c-0.9,0.9-1.3,2.1-1.3,3.6v10.9c0,0.5-0.1,1.1-0.5,1.5c-0.4,0.4-0.8,0.5-1.5,0.5c-0.5,0-1.1-0.1-1.5-0.5c-0.4-0.4-0.5-0.8-0.5-1.5
		V63c0-1.6-0.4-2.8-1.2-3.6c-0.8-0.8-1.9-1.2-3.2-1.2s-2.5,0.5-3.3,1.5c-0.9,0.9-1.3,2.1-1.3,3.6v10.9c0,0.5-0.1,1.1-0.5,1.5
		c-0.4,0.4-0.8,0.5-1.5,0.5c-0.5,0-1.1-0.1-1.5-0.5c-0.4-0.4-0.5-0.8-0.5-1.5V56.8c0-0.5,0.1-1.1,0.5-1.5c0.4-0.4,0.8-0.5,1.5-0.5
		s1.1,0.1,1.5,0.5s0.5,0.8,0.5,1.3c0.7-0.7,1.5-1.2,2.4-1.6c0.9-0.4,2-0.5,3.1-0.5c1.3,0,2.5,0.3,3.6,0.8s1.9,1.3,2.5,2.3
		c0.8-0.9,1.7-1.7,2.9-2.3c1.2-0.5,2.5-0.8,3.9-0.8C132.8,54.6,134.7,55.4,136,56.8z"/>
	<path class="st0" d="M162.4,66.3c-0.4,0.3-0.8,0.5-1.3,0.5h-14.8c0.3,1.9,1.1,3.3,2.5,4.4c1.3,1.1,3.1,1.7,5.1,1.7
		c0.8,0,1.6-0.1,2.4-0.4c0.8-0.3,1.6-0.7,2.1-1.1c0.4-0.3,0.8-0.4,1.3-0.4c0.5,0,0.9,0.1,1.2,0.4c0.5,0.4,0.7,0.8,0.7,1.3
		s-0.3,0.8-0.7,1.2c-0.9,0.7-2,1.3-3.3,1.7c-1.3,0.4-2.5,0.7-3.7,0.7c-2.1,0-4-0.4-5.7-1.3c-1.7-0.9-3.1-2.3-4-3.9
		c-0.9-1.6-1.5-3.5-1.5-5.6c0-2.1,0.4-4,1.3-5.6c0.9-1.6,2.1-2.9,3.7-3.9c1.6-0.9,3.5-1.3,5.5-1.3s3.7,0.4,5.2,1.3
		c1.5,0.9,2.5,2.1,3.3,3.7c0.8,1.6,1.2,3.5,1.2,5.5C163,65.7,162.8,66.1,162.4,66.3z M148.7,59.5c-1.2,1.1-1.9,2.4-2.3,4.1h12.9
		c-0.3-1.7-0.9-3.1-2-4.1c-1.1-1.1-2.4-1.6-4.1-1.6C151.4,58,149.8,58.6,148.7,59.5z"/>
	<path class="st0" d="M167.8,50.6c-0.5-0.5-0.8-1.1-0.8-1.9c0-0.8,0.3-1.3,0.8-1.9c0.5-0.5,1.1-0.8,1.9-0.8s1.3,0.3,1.9,0.8
		c0.5,0.5,0.8,1.1,0.8,1.9c0,0.8-0.3,1.3-0.8,1.9c-0.5,0.5-1.1,0.8-1.9,0.8S168.2,51.1,167.8,50.6z M168.2,75.5
		c-0.4-0.4-0.5-0.8-0.5-1.5V56.7c0-0.5,0.1-1.1,0.5-1.5c0.4-0.4,0.8-0.5,1.5-0.5c0.5,0,1.1,0.1,1.5,0.5c0.4,0.4,0.5,0.8,0.5,1.5
		v17.3c0,0.5-0.1,1.1-0.5,1.5c-0.4,0.4-0.8,0.5-1.5,0.5C169,76.2,168.4,75.9,168.2,75.5z"/>
	<path class="st0" d="M193.3,55.8c1.5,0.8,2.5,1.9,3.3,3.5c0.8,1.5,1.2,3.3,1.2,5.3v9.6c0,0.5-0.1,1.1-0.5,1.5
		c-0.4,0.4-0.8,0.5-1.5,0.5c-0.5,0-1.1-0.1-1.5-0.5c-0.4-0.4-0.5-0.8-0.5-1.5v-9.6c0-2.1-0.5-3.7-1.7-4.8c-1.1-1.1-2.7-1.6-4.5-1.6
		c-1.1,0-2.1,0.3-2.9,0.7c-0.9,0.4-1.6,1.1-2.1,1.7c-0.5,0.8-0.8,1.6-0.8,2.5v10.9c0,0.5-0.1,1.1-0.5,1.5c-0.4,0.4-0.8,0.5-1.5,0.5
		c-0.5,0-1.1-0.1-1.5-0.5c-0.4-0.4-0.5-0.8-0.5-1.5V56.7c0-0.5,0.1-1.1,0.5-1.5c0.4-0.4,0.8-0.5,1.5-0.5c0.5,0,1.1,0.1,1.5,0.5
		c0.4,0.4,0.5,0.8,0.5,1.5v0.5c0.8-0.8,1.9-1.5,2.9-1.9c1.2-0.4,2.4-0.7,3.6-0.7C190.2,54.6,191.8,55,193.3,55.8z"/>
	<path class="st0" d="M218.6,56c1.6,0.9,2.9,2.3,3.9,3.9c0.9,1.6,1.3,3.5,1.3,5.6v8.4c0,2-0.4,3.9-1.3,5.6c-0.9,1.7-2.1,3.1-3.9,4
		c-1.6,0.9-3.5,1.5-5.6,1.5c-1.9,0-3.6-0.4-5.2-1.1c-1.6-0.8-2.9-1.9-4-3.2c-0.3-0.4-0.4-0.7-0.4-1.1c0-0.5,0.3-1.1,0.8-1.5
		c0.4-0.3,0.7-0.4,1.1-0.4c0.7,0,1.2,0.3,1.6,0.8c0.7,0.9,1.6,1.6,2.7,2.1s2.3,0.7,3.6,0.7s2.4-0.3,3.5-0.9c1.1-0.7,1.9-1.5,2.5-2.7
		s0.9-2.5,0.9-4.3v-1.9c-0.8,1.5-1.9,2.5-3.2,3.3c-1.3,0.8-2.8,1.2-4.5,1.2c-1.9,0-3.6-0.4-5.2-1.3c-1.5-0.9-2.7-2.3-3.6-3.9
		c-0.8-1.6-1.3-3.5-1.3-5.6c0-2.1,0.4-4,1.3-5.6c0.9-1.6,2.1-2.9,3.9-3.9c1.6-0.9,3.5-1.3,5.6-1.3C215.1,54.7,217,55.1,218.6,56z
		 M216.7,71.9c1.1-0.7,1.9-1.5,2.4-2.5c0.5-1.1,0.9-2.4,0.9-3.7s-0.3-2.7-0.9-3.7c-0.5-1.1-1.5-2-2.4-2.7s-2.3-0.9-3.6-0.9
		s-2.5,0.3-3.6,0.9s-1.9,1.5-2.5,2.7c-0.5,1.1-0.9,2.4-0.9,3.7s0.3,2.7,0.9,3.7c0.7,1.1,1.5,2,2.5,2.5c1.1,0.7,2.3,0.9,3.6,0.9
		S215.7,72.5,216.7,71.9z"/>
	<path class="st0" d="M244.2,56c1.6,0.9,2.9,2.3,3.9,3.9c0.9,1.6,1.5,3.5,1.5,5.5v8.7c0,0.5-0.1,1.1-0.5,1.5
		c-0.4,0.4-0.8,0.5-1.5,0.5c-0.5,0-1.1-0.1-1.5-0.5c-0.4-0.4-0.5-0.8-0.5-1.5v-1.5c-0.9,1.1-2,2-3.3,2.7s-2.7,0.9-4.3,0.9
		c-1.9,0-3.6-0.5-5.1-1.5c-1.5-0.9-2.7-2.3-3.6-3.9c-0.9-1.6-1.3-3.5-1.3-5.5c0-2,0.5-3.9,1.5-5.5c0.9-1.6,2.3-2.9,3.9-3.9
		c1.6-0.9,3.5-1.5,5.5-1.5C240.8,54.7,242.6,55.1,244.2,56z M242.4,71.8c1.1-0.7,1.9-1.5,2.5-2.7c0.5-1.1,0.9-2.4,0.9-3.7
		s-0.3-2.7-0.9-3.7c-0.5-1.1-1.5-2-2.5-2.7c-1.1-0.7-2.3-0.9-3.5-0.9c-1.3,0-2.5,0.3-3.5,0.9c-1.1,0.7-1.9,1.5-2.5,2.7
		c-0.7,1.1-0.9,2.4-0.9,3.7s0.3,2.7,0.9,3.7c0.7,1.1,1.5,2,2.5,2.7c1.1,0.7,2.3,0.9,3.5,0.9C240.1,72.9,241.3,72.5,242.4,71.8z"/>
	<path class="st0" d="M268.6,55.2c0.8,0.4,1.2,0.9,1.2,1.6c0,0.1,0,0.3,0,0.4c-0.3,0.8-0.8,1.2-1.6,1.2c-0.1,0-0.3,0-0.5-0.1
		c-1.1-0.1-1.9-0.3-2.5-0.3c-1.9,0-3.3,0.4-4.5,1.3c-1.2,0.8-1.7,2-1.7,3.5v11.3c0,0.7-0.1,1.1-0.5,1.5c-0.3,0.4-0.8,0.5-1.5,0.5
		s-1.1-0.1-1.5-0.5c-0.4-0.3-0.5-0.8-0.5-1.5V56.7c0-0.7,0.1-1.1,0.5-1.5c0.4-0.4,0.8-0.5,1.5-0.5c1.3,0,2,0.7,2,2v0.8
		c0.8-0.9,1.7-1.6,2.9-2.1c1.2-0.5,2.4-0.8,3.6-0.8C266.8,54.6,267.8,54.8,268.6,55.2z"/>
	<path class="st0" d="M284.9,72.9c0.3,0.4,0.5,0.8,0.5,1.5s-0.3,1.1-0.7,1.5c-0.4,0.4-0.9,0.5-1.6,0.5h-0.7c-1.3,0-2.4-0.3-3.5-0.9
		c-1.1-0.7-1.9-1.6-2.5-2.7c-0.7-1.1-0.9-2.4-0.9-3.9v-9.6h-1.7c-0.5,0-0.9-0.1-1.3-0.5c-0.4-0.3-0.5-0.7-0.5-1.2
		c0-0.5,0.1-0.9,0.5-1.2c0.4-0.3,0.8-0.5,1.3-0.5h1.7v-5.6c0-0.5,0.1-1.1,0.5-1.5c0.4-0.4,0.8-0.5,1.5-0.5s1.1,0.1,1.5,0.5
		c0.4,0.4,0.5,0.8,0.5,1.5v5.6h3.3c0.5,0,0.9,0.1,1.3,0.5c0.4,0.3,0.5,0.7,0.5,1.2c0,0.5-0.1,0.8-0.5,1.2c-0.4,0.3-0.8,0.5-1.3,0.5
		h-3.3v9.6c0,1.1,0.3,1.9,0.8,2.7c0.5,0.7,1.3,1.1,2.1,1.1h1.3C284.1,72.2,284.5,72.5,284.9,72.9z"/>
	<path class="st0" d="M307.1,66.3c-0.4,0.3-0.8,0.5-1.3,0.5h-14.8c0.3,1.9,1.1,3.3,2.5,4.4c1.3,1.1,3.1,1.7,5.1,1.7
		c0.8,0,1.6-0.1,2.4-0.4c0.8-0.3,1.6-0.7,2.1-1.1c0.4-0.3,0.8-0.4,1.3-0.4s0.9,0.1,1.2,0.4c0.5,0.4,0.7,0.8,0.7,1.3
		s-0.3,0.8-0.7,1.2c-0.9,0.7-2,1.3-3.3,1.7c-1.3,0.4-2.5,0.7-3.7,0.7c-2.1,0-4-0.4-5.7-1.3c-1.7-0.9-3.1-2.3-4-3.9s-1.5-3.5-1.5-5.6
		c0-2.1,0.4-4,1.3-5.6c0.9-1.6,2.1-2.9,3.7-3.9c1.6-0.9,3.5-1.3,5.5-1.3s3.7,0.4,5.2,1.3c1.5,0.9,2.5,2.1,3.3,3.7
		c0.8,1.6,1.2,3.5,1.2,5.5C307.6,65.7,307.5,66.1,307.1,66.3z M293.3,59.5c-1.2,1.1-1.9,2.4-2.3,4.1H304c-0.3-1.7-0.9-3.1-2-4.1
		c-1.1-1.1-2.4-1.6-4.1-1.6C296,58,294.5,58.6,293.3,59.5z"/>
	<path class="st0" d="M327.5,55.8c1.5,0.8,2.5,1.9,3.3,3.5c0.8,1.5,1.2,3.3,1.2,5.3v9.6c0,0.5-0.1,1.1-0.5,1.5
		c-0.4,0.4-0.8,0.5-1.5,0.5s-1.1-0.1-1.5-0.5c-0.4-0.4-0.5-0.8-0.5-1.5v-9.6c0-2.1-0.5-3.7-1.7-4.8c-1.1-1.1-2.7-1.6-4.5-1.6
		c-1.1,0-2.1,0.3-2.9,0.7c-0.8,0.4-1.6,1.1-2.1,1.7c-0.5,0.8-0.8,1.6-0.8,2.5v10.9c0,0.5-0.1,1.1-0.5,1.5c-0.4,0.4-0.8,0.5-1.5,0.5
		c-0.5,0-1.1-0.1-1.5-0.5c-0.4-0.4-0.5-0.8-0.5-1.5V56.7c0-0.5,0.1-1.1,0.5-1.5c0.4-0.4,0.8-0.5,1.5-0.5c0.5,0,1.1,0.1,1.5,0.5
		c0.4,0.4,0.5,0.8,0.5,1.5v0.5c0.8-0.8,1.9-1.5,2.9-1.9c1.2-0.4,2.4-0.7,3.6-0.7C324.4,54.6,326,55,327.5,55.8z"/>
	<path class="st0" d="M341.9,74.9c-1.6-0.9-2.9-2.3-3.9-3.9c-0.9-1.6-1.3-3.5-1.3-5.5c0-2.1,0.4-4,1.3-5.6c0.9-1.6,2.1-2.9,3.7-3.9
		c1.6-0.9,3.5-1.3,5.5-1.3c3.1,0,5.6,1.2,7.6,3.5c0.3,0.3,0.4,0.7,0.4,1.1c0,0.5-0.3,1.1-0.8,1.5c-0.3,0.1-0.5,0.3-0.9,0.3
		c-0.5,0-1.1-0.3-1.5-0.7c-0.7-0.7-1.3-1.2-2.1-1.6c-0.8-0.3-1.6-0.5-2.7-0.5c-2,0-3.6,0.7-4.9,2c-1.2,1.3-1.9,3.1-1.9,5.3
		c0,1.5,0.3,2.7,0.9,3.7c0.7,1.1,1.5,2,2.4,2.5c1.1,0.7,2.3,0.9,3.6,0.9c1.7,0,3.2-0.4,4.3-1.3c0.5-0.4,0.9-0.5,1.5-0.5
		c0.4,0,0.7,0.1,1.1,0.4c0.5,0.4,0.8,0.9,0.8,1.5c0,0.4-0.1,0.8-0.5,1.1c-1.9,1.7-4.3,2.7-7.1,2.7C345.4,76.3,343.5,75.8,341.9,74.9
		z"/>
	<path class="st0" d="M378.2,66.3c-0.4,0.3-0.8,0.5-1.3,0.5H362c0.3,1.9,1.1,3.3,2.5,4.4c1.3,1.1,3.1,1.7,5.1,1.7
		c0.8,0,1.6-0.1,2.4-0.4c0.8-0.3,1.6-0.7,2.1-1.1c0.4-0.3,0.8-0.4,1.3-0.4s0.9,0.1,1.2,0.4c0.5,0.4,0.7,0.8,0.7,1.3
		s-0.3,0.8-0.7,1.2c-0.9,0.7-2,1.3-3.3,1.7c-1.3,0.4-2.5,0.7-3.7,0.7c-2.1,0-4-0.4-5.7-1.3c-1.7-0.9-3.1-2.3-4-3.9
		c-0.9-1.6-1.5-3.5-1.5-5.6c0-2.1,0.4-4,1.3-5.6c0.9-1.6,2.1-2.9,3.7-3.9c1.6-0.9,3.5-1.3,5.5-1.3c2,0,3.7,0.4,5.2,1.3
		s2.5,2.1,3.3,3.7c0.8,1.6,1.2,3.5,1.2,5.5C378.7,65.7,378.6,66.1,378.2,66.3z M364.4,59.5c-1.2,1.1-1.9,2.4-2.3,4.1h12.9
		c-0.3-1.7-0.9-3.1-2-4.1c-1.1-1.1-2.4-1.6-4.1-1.6C367.1,58,365.6,58.6,364.4,59.5z"/>
	<path class="st0" d="M398.6,55.8c1.5,0.8,2.5,1.9,3.3,3.5c0.8,1.5,1.2,3.3,1.2,5.3v9.6c0,0.5-0.1,1.1-0.5,1.5
		c-0.4,0.4-0.8,0.5-1.5,0.5s-1.1-0.1-1.5-0.5c-0.4-0.4-0.5-0.8-0.5-1.5v-9.6c0-2.1-0.5-3.7-1.7-4.8c-1.1-1.1-2.7-1.6-4.5-1.6
		c-1.1,0-2.1,0.3-2.9,0.7c-0.8,0.4-1.6,1.1-2.1,1.7c-0.5,0.8-0.8,1.6-0.8,2.5v10.9c0,0.5-0.1,1.1-0.5,1.5c-0.4,0.4-0.8,0.5-1.5,0.5
		c-0.5,0-1.1-0.1-1.5-0.5c-0.4-0.4-0.5-0.8-0.5-1.5V56.7c0-0.5,0.1-1.1,0.5-1.5c0.4-0.4,0.8-0.5,1.5-0.5c0.5,0,1.1,0.1,1.5,0.5
		c0.4,0.4,0.5,0.8,0.5,1.5v0.5c0.8-0.8,1.9-1.5,2.9-1.9c1.2-0.4,2.4-0.7,3.6-0.7C395.5,54.6,397.1,55,398.6,55.8z"/>
	<path class="st0" d="M418.7,72.9c0.3,0.4,0.5,0.8,0.5,1.5s-0.3,1.1-0.7,1.5c-0.4,0.4-0.9,0.5-1.6,0.5h-0.8c-1.3,0-2.4-0.3-3.5-0.9
		c-1.1-0.7-1.9-1.6-2.5-2.7c-0.7-1.1-0.9-2.4-0.9-3.9v-9.6h-1.7c-0.5,0-0.9-0.1-1.3-0.5c-0.4-0.3-0.5-0.7-0.5-1.2
		c0-0.5,0.1-0.9,0.5-1.2c0.4-0.3,0.8-0.5,1.3-0.5h1.7v-5.6c0-0.5,0.1-1.1,0.5-1.5c0.4-0.4,0.8-0.5,1.5-0.5s1.1,0.1,1.5,0.5
		c0.4,0.4,0.5,0.8,0.5,1.5v5.6h3.3c0.5,0,0.9,0.1,1.3,0.5c0.4,0.3,0.5,0.7,0.5,1.2c0,0.5-0.1,0.8-0.5,1.2c-0.4,0.3-0.8,0.5-1.3,0.5
		h-3.3v9.6c0,1.1,0.3,1.9,0.8,2.7c0.5,0.7,1.3,1.1,2.1,1.1h1.3C417.9,72.2,418.3,72.5,418.7,72.9z"/>
	<path class="st0" d="M440.9,66.3c-0.4,0.3-0.8,0.5-1.3,0.5h-14.8c0.3,1.9,1.1,3.3,2.5,4.4c1.3,1.1,3.1,1.7,5.1,1.7
		c0.8,0,1.6-0.1,2.4-0.4c0.8-0.3,1.6-0.7,2.1-1.1c0.4-0.3,0.8-0.4,1.3-0.4s0.9,0.1,1.2,0.4c0.5,0.4,0.7,0.8,0.7,1.3
		s-0.3,0.8-0.7,1.2c-0.9,0.7-2,1.3-3.3,1.7c-1.3,0.4-2.5,0.7-3.7,0.7c-2.1,0-4-0.4-5.7-1.3c-1.7-0.9-3.1-2.3-4-3.9
		c-0.9-1.6-1.5-3.5-1.5-5.6c0-2.1,0.4-4,1.3-5.6c0.9-1.6,2.1-2.9,3.7-3.9s3.5-1.3,5.5-1.3s3.7,0.4,5.2,1.3s2.5,2.1,3.3,3.7
		c0.8,1.6,1.2,3.5,1.2,5.5C441.4,65.7,441.3,66.1,440.9,66.3z M427.1,59.5c-1.2,1.1-1.9,2.4-2.3,4.1h12.9c-0.3-1.7-0.9-3.1-2-4.1
		c-1.1-1.1-2.4-1.6-4.1-1.6C429.8,58,428.3,58.6,427.1,59.5z"/>
	<path class="st0" d="M459.6,55.2c0.8,0.4,1.2,0.9,1.2,1.6c0,0.1,0,0.3,0,0.4c-0.3,0.8-0.8,1.2-1.6,1.2c-0.1,0-0.3,0-0.5-0.1
		c-1.1-0.1-1.9-0.3-2.5-0.3c-1.9,0-3.3,0.4-4.5,1.3c-1.2,0.8-1.7,2-1.7,3.5v11.3c0,0.7-0.1,1.1-0.5,1.5c-0.3,0.4-0.8,0.5-1.5,0.5
		s-1.1-0.1-1.5-0.5c-0.4-0.3-0.5-0.8-0.5-1.5V56.7c0-0.7,0.1-1.1,0.5-1.5c0.4-0.4,0.8-0.5,1.5-0.5c1.3,0,2,0.7,2,2v0.8
		c0.8-0.9,1.7-1.6,2.9-2.1c1.2-0.5,2.4-0.8,3.6-0.8C457.8,54.6,458.9,54.8,459.6,55.2z"/>
	<path class="st2" d="M464.2,75.5c-0.4-0.4-0.5-0.8-0.5-1.5c0-0.5,0.1-1.1,0.5-1.5l11.1-12.9c1.6-1.9,2.4-3.5,2.4-4.9
		c0-1.7-0.4-3.1-1.3-4c-0.9-0.9-2-1.5-3.6-1.5c-0.9,0-1.9,0.3-2.7,0.8c-0.8,0.5-1.5,1.2-1.9,2c-0.4,0.8-0.7,1.7-0.7,2.8
		c0,0.5-0.1,0.9-0.5,1.3c-0.4,0.4-0.8,0.5-1.5,0.5c-0.5,0-1.1-0.1-1.5-0.5c-0.4-0.4-0.5-0.8-0.5-1.3c0-1.7,0.4-3.3,1.2-4.7
		c0.8-1.5,1.9-2.5,3.3-3.3c1.3-0.8,2.9-1.2,4.7-1.2c1.7,0,3.3,0.4,4.5,1.1c1.3,0.8,2.3,1.9,3.1,3.2c0.7,1.3,1.1,3.1,1.1,4.9
		c0,1.2-0.3,2.4-0.9,3.6c-0.7,1.2-1.5,2.4-2.5,3.5L469,72.1H480c0.5,0,1.1,0.1,1.5,0.5c0.4,0.4,0.5,0.8,0.5,1.5
		c0,0.5-0.1,1.1-0.5,1.5c-0.4,0.4-0.9,0.5-1.5,0.5h-14.4C465,76.2,464.6,75.9,464.2,75.5z"/>
	<path class="st2" d="M505.5,66.1c0.4,0.3,0.5,0.8,0.5,1.3c0,0.5-0.1,0.9-0.5,1.3c-0.4,0.4-0.8,0.5-1.5,0.5h-2.4v4.9
		c0,0.5-0.1,1.1-0.5,1.5c-0.4,0.4-0.8,0.5-1.3,0.5s-0.9-0.1-1.3-0.5c-0.4-0.4-0.5-0.8-0.5-1.5v-4.9h-12.9c-0.5,0-1.1-0.1-1.5-0.5
		c-0.4-0.4-0.5-0.8-0.5-1.3c0-0.4,0.1-0.8,0.4-1.2l14.8-19.6c0.4-0.5,0.9-0.8,1.6-0.8c0.5,0,0.9,0.1,1.3,0.5
		c0.4,0.4,0.5,0.9,0.5,1.5v18h2.4C504.5,65.7,505.1,65.8,505.5,66.1z M497.9,65.7V52.7L488,65.7H497.9z"/>
</g>
</svg>
