<svg id="Ebene_1" data-name="Ebene 1" xmlns="http://www.w3.org/2000/svg" viewBox="0 0 45.6 14.1">
  <defs>
    <style>
      .cls-1 {
        fill: #ee7f00;
      }

      .cls-2 {
        fill: #d8d8d8;
      }
    </style>
  </defs>
  <title>mgc_icons</title>
  <path class="cls-1" d="M27.7,1.8c.8,0,1,.5.3,2.3s-1.2,2.3-1.9,2.3-1-.4-.3-2.3S26.9,1.8,27.7,1.8Zm-13.2,0c.7,0,.9.5.2,2.3s-1.1,2.3-1.9,2.3-1-.4-.3-2.3S13.7,1.8,14.5,1.8Zm19.6,0h.4c.8,0,1.1.2.8.9a1.5,1.5,0,0,1-1.5,1h-.4ZM37.6.1l.4.4A2.1,2.1,0,0,1,38.3,2h1.5L37.6,8.1h2.2L42,2h2.9L45.6.1ZM32.5.1l-2.9,8h2.5l1-2.8c.1.1.7,2.8.7,2.8h2.6s-.5-2-.8-2.8l-.3-.6a3.8,3.8,0,0,0,2.2-2,1.9,1.9,0,0,0,0-1.8A2.7,2.7,0,0,0,35.2.1ZM21.2.1A2.7,2.7,0,0,0,18.5,2L16.2,8.1h2.5L19.8,5H22l.6-1.7H20.4l.4-1c0-.1.2-.3.5-.3h2.6a8.6,8.6,0,0,1,2-1.8ZM8,.1A4.4,4.4,0,0,0,6,.4,4,4,0,0,0,4.3,2.7a2,2,0,0,0-.1.7.7.7,0,0,0,.1.5l.4.5.7.4h1l.2.2h0v.2L6.3,6H.8L0,8.1H5.1a6.1,6.1,0,0,0,2.1-.3,3.3,3.3,0,0,0,2-2.5A1.8,1.8,0,0,0,9.1,4,1.9,1.9,0,0,0,8,3.2H7.7L7.3,3C7.1,3,7,2.9,7,2.8a.4.4,0,0,1-.1-.3l.3-.4h3.4c.1,0,.1,0,.1-.1A8.1,8.1,0,0,1,12.6.1ZM28.3,0a3.9,3.9,0,0,0-1.8.4,5.4,5.4,0,0,0-2.1,1.9,8.5,8.5,0,0,0-1,1.9,3.6,3.6,0,0,0,0,3.2,2.4,2.4,0,0,0,2.1.9h0c2.2,0,3.9-1.5,4.9-4.3a3.7,3.7,0,0,0,0-3.1A2.3,2.3,0,0,0,28.3,0ZM15.1,0a3.4,3.4,0,0,0-1.8.4,5.6,5.6,0,0,0-2.2,1.9,8.5,8.5,0,0,0-1,1.9,3.5,3.5,0,0,0,.1,3.2,2.1,2.1,0,0,0,2,.9h0c2.3,0,3.9-1.5,4.9-4.3.3-.8.7-2.2,0-3.1A2.3,2.3,0,0,0,15.1,0Z"/>
  <path class="cls-2" d="M5.4,12.3h.8l.2.2h.1v.3l-.2.2-.2.2H5Zm7.8-1.6h.7l.2.2v.4l-.2.2-.2.2h-.9ZM6,10.7h.9v.6l-.2.2h-1Zm-.3-.6H5.5l-.2.2L4.1,13.8V14H6.5l.3-.2.3-.3.2-.4a.8.8,0,0,0,.1-.4.4.4,0,0,0-.1-.3L7.1,12h.1c0-.1.1-.1.2-.2l.2-.2v-.3a.8.8,0,0,0,.1-.4.5.5,0,0,0-.2-.4H5.7Zm16.8,0h-.2c0,.1-.1.1-.1.2l-1.3,3.5V14h2.4c0-.1,0-.2.1-.2H21.9l.4-1.1h1.2c.1,0,.1,0,.1-.1h.2c0-.1,0-.1-.1-.1H22.5l.4-1h1.5v-.2h-2Zm-9.7,0h-.2c0,.1-.1.1-.1.2l-1.3,3.6H12l.5-1.5h.6c.1,0,.1.1.1.2v1.1h.8V12.3h.3l.3-.3c.1-.1.2-.1.2-.3s.2-.2.2-.3a.8.8,0,0,0,.1-.4c0-.2,0-.3-.1-.4l-.2-.2H12.8Zm-3.3,0H9.3c-.1.1-.1.1-.1.2L7.9,13.8V14h2.4v-.2H8.8l.4-1.1h.3l.3-1h1.6v-.2h-2Zm28.7,0h-.5l-.6,1.9c-.1.1-.1.3-.2.4l-.2.5h0v-.8a.4.4,0,0,1-.1-.3l-.2-1.4c0-.1,0-.2-.1-.2h-1l-.2.2-1.3,3.5h.7l.8-2,.2-.5V11h0v.3c0,.2.1.3.1.4l.3,1.9V14h1.1l1.3-3.6h-.3Zm-6.9,0h-.5l-.9,2.4a2,2,0,0,0-.1.7c0,.2,0,.3.1.4a.5.5,0,0,0,.4.3h1.4a.7.7,0,0,0,.6-.3,1.2,1.2,0,0,0,.5-.5,2.1,2.1,0,0,0,.4-.6l.9-2.4h-.8l-.9,2.4c-.1.1-.1.2-.2.4l-.3.2-.3.2h-.7l-.2-.2v-.3a.8.8,0,0,1,.1-.4l.8-2.3h-.3Zm-29.8,0H1L.1,12.6a2,2,0,0,0-.1.7c0,.2.1.3.1.4a.5.5,0,0,0,.4.3H1.9a.9.9,0,0,0,.7-.3l.4-.5a2.1,2.1,0,0,0,.4-.6l.9-2.4H3.5l-.9,2.4c-.1.1-.1.2-.2.4l-.3.2-.3.2H1.1l-.2-.2v-.3a.8.8,0,0,1,.1-.4l.8-2.3H1.5Zm24.5,0h-.4l-1.4,3.7H25l1.4-3.7H26Zm-9.6,0H16v.2l-.4,3.4V14h1.1v-.2l1.6-2.5h0L18,13.8V14h1v-.2l2.2-3.4c.1-.1.1-.1.1-.2h-.8l-1.8,3.1h0l.4-3.1h-1l-1.8,3.1h0l.4-3.1h-.4ZM41.6,10l-1,.2-.8.4-.6.6a4.1,4.1,0,0,0-.5.9,2.9,2.9,0,0,0-.2.9,1.4,1.4,0,0,0,.2.6,1,1,0,0,0,.5.4h2.3v-.2l.6-1.6H40.4v.2h.8l-.4.9h-1l-.3-.2c0-.1-.1-.3-.1-.4a1.4,1.4,0,0,1,.2-.6.7.7,0,0,1,.3-.6l.4-.5.5-.2h1.3l.2.2h.3v-.4a.1.1,0,0,1-.1-.1h-1ZM28.8,10h-.5l-.5.2-.5.4-.3.5v.7l.2.2.3.2h.2l.3.2h.1v.5H26.2v.4h1.5l.6-.2.4-.4a1,1,0,0,0,.4-.5v-.8a.2.2,0,0,1-.2-.2l-.3-.2H28v-.6h.2c0-.1.1-.1.2-.1h1.2v-.2h-.8ZM3.7,9H3.4c-.1,0-.1.1-.2.3s-.1.2,0,.2h.6c.1,0,.2-.1.2-.3s.1-.2,0-.2ZM2.4,9H2.1c-.1,0-.2.1-.2.3v.2h.7c.1,0,.1-.1.2-.3V9.1Z"/>
</svg>
