<svg id="Ebene_1" data-name="Ebene 1" xmlns="http://www.w3.org/2000/svg" viewBox="0 0 67.5 16.5">
  <defs>
    <style>
      .cls-1 {
        fill: #fff;
      }

      .cls-2 {
        fill: #179bd7;
      }

      .cls-3 {
        fill: #222d65;
      }

      .cls-4 {
        fill: #253b80;
      }
    </style>
  </defs>
  <title>mgc_icons</title>
  <path class="cls-1" d="M25.7,7.2c-.3,1.4-1.2,1.4-2.3,1.4h-.5l.4-2.5a.3.3,0,0,1,.3-.3h.3c.6,0,1.3,0,1.6.4S25.7,6.7,25.7,7.2Zm-.5-3.5H21.5c-.3,0-.5.1-.5.4l-1.5,9.5c-.1.2.1.4.3.4h1.8c.3,0,.5-.1.5-.4l.4-2.6a.7.7,0,0,1,.5-.4h1.2c2.4,0,3.9-1.2,4.2-3.6A3.1,3.1,0,0,0,28,4.6,3.8,3.8,0,0,0,25.2,3.7Z"/>
  <path class="cls-1" d="M33.9,10.6a2,2,0,0,1-2,1.7,1.5,1.5,0,0,1-1.2-.5,1.4,1.4,0,0,1-.3-1.3,2,2,0,0,1,2-1.7,1.5,1.5,0,0,1,1.2.5A1.5,1.5,0,0,1,33.9,10.6Zm2.5-3.4H34.6c-.1,0-.3.1-.3.2v.5h-.1A2.4,2.4,0,0,0,32,7a4.1,4.1,0,0,0-4,3.6,3.1,3.1,0,0,0,.7,2.7,2.5,2.5,0,0,0,2.2.9,3.5,3.5,0,0,0,2.5-1v.5c0,.2.1.4.3.4h1.7a.5.5,0,0,0,.5-.5l.9-6.1A.3.3,0,0,0,36.4,7.2Z"/>
  <path class="cls-1" d="M45.9,7.2H44.1l-.4.2L41.2,11l-1-3.5a.5.5,0,0,0-.5-.3H37.9c-.2,0-.3.2-.2.4l1.9,5.8L37.8,16c-.2.2,0,.5.3.5h1.8l.4-.2,5.9-8.7C46.3,7.4,46.2,7.2,45.9,7.2Z"/>
  <path class="cls-1" d="M52.3,7.2c-.2,1.4-1.2,1.4-2.2,1.4h-.6l.4-2.5a.3.3,0,0,1,.3-.3h.3c.7,0,1.3,0,1.6.4A1,1,0,0,1,52.3,7.2Zm-.4-3.5H48.2c-.3,0-.5.1-.5.4l-1.6,9.5a.4.4,0,0,0,.4.4h1.9a.5.5,0,0,0,.4-.3l.4-2.7a.5.5,0,0,1,.5-.5h1.2c2.4,0,3.9-1.2,4.2-3.5a2.6,2.6,0,0,0-.5-2.4A3.7,3.7,0,0,0,51.9,3.7Z"/>
  <path class="cls-1" d="M60.5,10.6a1.9,1.9,0,0,1-2,1.7,1.7,1.7,0,0,1-1.2-.5,1.4,1.4,0,0,1-.2-1.3,1.9,1.9,0,0,1,2-1.7,1.7,1.7,0,0,1,1.2.5A1.9,1.9,0,0,1,60.5,10.6ZM63,7.2H61.2c-.2,0-.3.1-.3.2v.5h-.1A2.4,2.4,0,0,0,58.6,7a4.1,4.1,0,0,0-4,3.6,3.1,3.1,0,0,0,.6,2.7,2.8,2.8,0,0,0,2.3.9,3.2,3.2,0,0,0,2.4-1v.5c-.1.2.1.4.3.4h1.6a.5.5,0,0,0,.5-.5l1-6.1C63.4,7.3,63.2,7.2,63,7.2Z"/>
  <path class="cls-1" d="M65.1,3.9l-1.5,9.8c-.1.2.1.4.3.4h1.6a.5.5,0,0,0,.4-.5l1.6-9.5a.4.4,0,0,0-.4-.4H65.4C65.3,3.7,65.1,3.8,65.1,3.9Z"/>
  <path class="cls-1" d="M4,15.9l.3-1.8H.6L2.7.7H8c1.7,0,2.9.4,3.5,1.1s.5.7.5,1.1a3.3,3.3,0,0,1,0,1.4h0v.4l.3.2.6.4a2.2,2.2,0,0,1,.5,1.1,8.6,8.6,0,0,1-.1,1.5,3.8,3.8,0,0,1-.6,1.7,2.7,2.7,0,0,1-1,1.1,3,3,0,0,1-1.4.6,7.4,7.4,0,0,1-1.7.3H8.3l-.8.2a1.3,1.3,0,0,0-.4.7v.2l-.5,3.2H4Z"/>
  <path class="cls-2" d="M12.6,4.2v.3c-.7,3.5-3,4.6-6,4.6H5.1a.7.7,0,0,0-.7.6l-.8,4.9-.2,1.3a.4.4,0,0,0,.4.5H6.4a.7.7,0,0,0,.7-.6h0l.5-3.1v-.2a.6.6,0,0,1,.6-.6h.4c2.6,0,4.6-1,5.2-4a3.5,3.5,0,0,0-.6-3.1A1.8,1.8,0,0,0,12.6,4.2Z"/>
  <path class="cls-3" d="M11.9,3.9H5.6a1,1,0,0,0-.4.5L4.4,9.6v.2a.7.7,0,0,1,.7-.6H6.6c3,0,5.3-1.2,6-4.7V4.2L12,4A.1.1,0,0,0,11.9,3.9Z"/>
  <path class="cls-4" d="M5.2,4.2a1,1,0,0,1,.4-.5h6.5l.5.2a3.2,3.2,0,0,0-.7-2.9C11.1.4,9.8,0,8,0H2.8a.9.9,0,0,0-.7.6L0,14.1a.5.5,0,0,0,.4.5H3.6l.8-5V8.7Z"/>
</svg>
