<svg id="Ebene_1" data-name="Ebene 1" xmlns="http://www.w3.org/2000/svg" viewBox="0 0 95.3 15.9">
  <defs>
    <style>
      .cls-1 {
        fill: #fff;
      }
    </style>
  </defs>
  <title>mgc_icons</title>
  <polygon class="cls-1" points="78.2 13.2 75.5 15.9 78.2 15.9 80.9 13.2 78.2 13.2"/>
  <polygon class="cls-1" points="85.1 13.2 87.8 15.9 90.5 15.9 87.8 13.2 85.1 13.2"/>
  <polygon class="cls-1" points="79.1 15.9 81.8 15.9 84.5 13.2 81.8 13.2 79.1 15.9"/>
  <path class="cls-1" d="M84,9.5a3.8,3.8,0,1,1,3.8-3.8A3.8,3.8,0,0,1,84,9.5ZM95.3,2.3,90.6,1.1a23.6,23.6,0,0,1-.8,4.5A5.7,5.7,0,1,0,78.4,6.7a8,8,0,0,1-1.1-5.4l-2,.7c-.4,4.6,2.3,10.7,9.3,10.7A10.7,10.7,0,0,0,95.3,2.3Z"/>
  <polygon class="cls-1" points="88.7 13.2 91.4 15.9 94.1 15.9 91.4 13.2 88.7 13.2"/>
  <path class="cls-1" d="M17.6,10.1c0,.8-.3,2-1.4,2s-1-1-1-1.7V7.2H13.7v3.7c0,1.4.6,2.4,2,2.4a2.3,2.3,0,0,0,1.9-1h.1v.8h1.4V7.2H17.6v2.9Z"/>
  <path class="cls-1" d="M23.2,12.1c-.6,0-.7-.5-.7-1V8.3h1.3V7.2H22.5V5.5L20.9,6V7.2H19.8V8.3h1.1v3.1a1.8,1.8,0,0,0,1.9,1.9l1.2-.2V11.9Z"/>
  <path class="cls-1" d="M8.9,9.6c.1-.8.5-1.4,1.4-1.4s1.2.6,1.2,1.4Zm1.3-2.5c-1.9,0-2.8,1.4-2.8,3.1a2.9,2.9,0,0,0,3.1,3.1,3.9,3.9,0,0,0,2-.5V11.5a3.1,3.1,0,0,1-1.9.6,1.5,1.5,0,0,1-1.7-1.5H13C13,8.6,12.4,7.1,10.2,7.1Z"/>
  <path class="cls-1" d="M26.2,8.9c0-.5.5-.7.9-.7a3.2,3.2,0,0,1,1.4.3V7.3l-1.7-.2c-1.2,0-2.3.5-2.3,1.8s2.7,1.3,2.7,2.5-.6.7-1,.7l-1.5-.3V13a5.1,5.1,0,0,0,1.7.3c1.3,0,2.5-.6,2.5-2S26.2,9.8,26.2,8.9Z"/>
  <path class="cls-1" d="M2.5,11.9H1.6V6.4h.9A2.6,2.6,0,0,1,5.1,9.1,2.6,2.6,0,0,1,2.5,11.9ZM2.2,5.1H0v8H2.2c2.4,0,4.6-.8,4.6-4S4.6,5.1,2.2,5.1Z"/>
  <path class="cls-1" d="M32.7,12.1c-1.1,0-1.6-.9-1.6-2a1.6,1.6,0,0,1,1.6-1.8l1,.2V7.3a3,3,0,0,0-1.4-.2,2.8,2.8,0,0,0-2.9,3c0,1.8,1,3.2,2.9,3.2l1.5-.2V11.8Z"/>
  <path class="cls-1" d="M52,8.8h-.6V6.4H52c.8,0,1.5.3,1.5,1.2S52.8,8.8,52,8.8Zm-.1-3.7H49.8v8h1.6v-3h.7c1.7,0,3.1-.7,3.1-2.6S53.6,5.1,51.9,5.1Z"/>
  <path class="cls-1" d="M70.2,12.1c-.6,0-.7-.5-.7-1V8.3h1.4V7.2H69.5V5.5L68,6V7.2H66.8V8.3H68v3c0,1.2.6,2,1.8,2l1.2-.2V11.9Z"/>
  <path class="cls-1" d="M58.3,12.1c-1.2,0-1.5-1.1-1.5-2.1a1.5,1.5,0,1,1,3,0C59.8,11,59.5,12.1,58.3,12.1Zm0-5a2.9,2.9,0,0,0-3.1,3.1,2.9,2.9,0,0,0,3.1,3.1,3,3,0,0,0,3.1-3.1A3,3,0,0,0,58.3,7.1Z"/>
  <path class="cls-1" d="M38.2,7.1a2.2,2.2,0,0,0-1.9.9h0V4.5H34.7v8.6h1.6V10.2c0-.7.2-1.9,1.3-1.9s1,.9,1,1.7v3.1h1.6V9.4C40.2,8.1,39.6,7.1,38.2,7.1Z"/>
  <path class="cls-1" d="M42.4,9.6c.1-.8.5-1.4,1.4-1.4S45,8.8,45,9.6Zm1.3-2.5c-1.9,0-2.8,1.4-2.8,3.1A2.9,2.9,0,0,0,44,13.3a3.9,3.9,0,0,0,2-.5V11.5a3.1,3.1,0,0,1-1.9.6,1.5,1.5,0,0,1-1.7-1.5h4.1C46.5,8.6,45.9,7.1,43.7,7.1Z"/>
  <path class="cls-1" d="M63.6,8.9c0-.5.5-.7.9-.7a3.2,3.2,0,0,1,1.4.3V7.3l-1.7-.2c-1.2,0-2.3.5-2.3,1.8s2.7,1.3,2.7,2.5-.6.7-1,.7a3.3,3.3,0,0,1-1.5-.3V13a4.7,4.7,0,0,0,1.7.3c1.3,0,2.5-.6,2.5-2S63.6,9.8,63.6,8.9Z"/>
</svg>
