<?xml version="1.0" encoding="utf-8"?>
<!-- Generator: Adobe Illustrator 22.0.1, SVG Export Plug-In . SVG Version: 6.00 Build 0)  -->
<svg version="1.1" id="Ebene_1" xmlns="http://www.w3.org/2000/svg" xmlns:xlink="http://www.w3.org/1999/xlink" x="0px" y="0px"
	 viewBox="0 0 45.6 14.1" style="enable-background:new 0 0 45.6 14.1;" xml:space="preserve">
<style type="text/css">
	.st0{fill:#FFFFFF;}
	.st1{fill:#179BD7;}
	.st2{fill:#222D65;}
	.st3{fill:#253B80;}
	.st4{fill:#EE7F00;}
	.st5{fill:#D8D8D8;}
	.st6{fill:#FF9900;}
	.st7{fill:#FAA61A;}
	.st8{fill:#F79410;}
	.st9{fill:#FF5F00;}
	.st10{fill:#EB001B;}
	.st11{fill:#F79E1B;}
	.st12{fill:#FF6600;}
	.st13{fill:#E0B646;}
	.st14{fill:#E40520;}
	.st15{fill-rule:evenodd;clip-rule:evenodd;fill:#E0B646;}
</style>
<path class="st4" d="M27.7,1.8c0.8,0,0.9,0.4,0.3,2.3c-0.7,1.9-1.2,2.3-1.9,2.3c-0.7,0-1-0.5-0.3-2.3C26.3,2.7,26.9,1.8,27.7,1.8z
	 M14.5,1.8c0.8,0,0.9,0.4,0.3,2.3c-0.7,1.9-1.2,2.3-1.9,2.3c-0.7,0-1-0.5-0.3-2.3C13,2.7,13.7,1.8,14.5,1.8z M34.1,1.8h0.4
	c0.7,0,1,0.2,0.8,0.9c-0.2,0.6-0.7,1-1.5,1h0h-0.4L34.1,1.8z M37.6,0.1c0.2,0.1,0.3,0.3,0.4,0.4C38.3,1,38.4,1.5,38.3,2h1.5
	l-2.2,6.1h2.2L42,2h2.8l0.7-1.9H37.6z M32.5,0.1l-2.9,8h2.5l1.1-2.8c0.1,0.1,0.7,2.8,0.7,2.8h2.6c0,0-0.5-2-0.8-2.8
	c-0.1-0.2-0.2-0.4-0.3-0.6c0.7-0.3,1.8-0.9,2.2-2c0.3-0.7,0.3-1.3,0-1.8c-0.4-0.5-1.1-0.8-2.3-0.8L32.5,0.1L32.5,0.1z M21.2,0.1
	c-1.3,0-2.3,0.7-2.7,1.9l-2.2,6.1h2.4L19.8,5H22l0.6-1.7h-2.1l0.3-1C20.8,2.2,21,2,21.3,2c0.1,0,1.7,0,2.5,0c0,0,0-0.1,0.1-0.1
	c0.5-0.8,1.3-1.4,2-1.8L21.2,0.1z M8,0.1c-0.7,0-1.4,0-2.1,0.3c-0.6,0.3-1.2,1-1.6,2.2C4.2,3,4.2,3.2,4.2,3.4c0,0.2,0,0.4,0.1,0.5
	c0.1,0.2,0.3,0.4,0.4,0.5c0.2,0.1,0.4,0.3,0.7,0.3c0,0,0.1,0,0.3,0.1C5.9,4.9,6.1,5,6.2,5c0.1,0,0.1,0.1,0.2,0.1
	c0.1,0,0.1,0.1,0.2,0.2c0,0.1,0,0.1,0,0.2c0,0.1,0,0.1,0,0.2C6.5,5.8,6.4,5.9,6.3,6C6.1,6,5.9,6.1,5.5,6.1H0.8L0,8.1h5
	c0.5,0,1.3,0,2.2-0.4c0.8-0.4,1.6-1.1,2-2.5c0.1-0.5,0.1-1-0.1-1.3C8.9,3.6,8.5,3.4,8,3.2c0,0-0.1,0-0.3-0.1C7.5,3.1,7.4,3.1,7.3,3
	C7.1,3,7,2.9,7,2.8c-0.1-0.1-0.1-0.2,0-0.4c0-0.1,0.1-0.2,0.3-0.3C7.3,2.1,7.5,2,7.7,2h2.9c0,0,0-0.1,0.1-0.1
	c0.5-0.8,1.2-1.4,1.9-1.8L8,0.1L8,0.1z M28.3,0c-0.6,0-1.2,0.1-1.8,0.4c-0.8,0.4-1.5,1-2.1,1.9c-0.4,0.6-0.7,1.2-1,1.9
	c-0.5,1.3-0.5,2.4,0,3.2c0.3,0.4,0.9,0.9,2.1,0.9h0c2.2,0,3.8-1.4,4.9-4.3c0.3-0.8,0.6-2.2,0-3.1C30,0.3,29.3,0,28.3,0z M15.1,0
	c-0.6,0-1.2,0.1-1.8,0.4c-0.8,0.4-1.5,1-2.1,1.9c-0.4,0.6-0.7,1.2-1,1.9c-0.5,1.3-0.5,2.4,0,3.2c0.3,0.4,0.9,0.9,2.1,0.9h0
	c2.2,0,3.8-1.4,4.9-4.3c0.3-0.8,0.6-2.2,0-3.1C16.7,0.3,16,0,15.1,0z"/>
<path class="st5" d="M5.4,12.3h0.5c0.1,0,0.3,0,0.3,0c0.1,0,0.1,0.1,0.2,0.1s0.1,0.1,0.1,0.2c0,0.1,0,0.2,0,0.2
	c0,0.1-0.1,0.2-0.1,0.2s-0.1,0.1-0.2,0.2S6,13.4,5.9,13.4c-0.1,0-0.2,0-0.3,0H5L5.4,12.3z M13.2,10.7h0.4c0.1,0,0.2,0,0.2,0
	c0.1,0,0.1,0,0.1,0c0.1,0,0.2,0.1,0.2,0.2c0,0.1,0,0.2,0,0.3c0,0.1-0.1,0.2-0.1,0.2c-0.1,0.1-0.1,0.1-0.2,0.2
	c-0.1,0.1-0.2,0.1-0.3,0.1c-0.1,0-0.2,0-0.3,0h-0.4L13.2,10.7z M6,10.7h0.4c0.1,0,0.2,0,0.3,0c0.1,0,0.1,0.1,0.2,0.1
	c0,0,0.1,0.1,0.1,0.2c0,0.1,0,0.1,0,0.2c0,0.1-0.1,0.1-0.1,0.2c0,0.1-0.1,0.1-0.2,0.2c-0.1,0.1-0.1,0.1-0.2,0.1c-0.1,0-0.2,0-0.3,0
	H5.6C5.6,11.7,6,10.7,6,10.7z M5.7,10.1c-0.1,0-0.1,0-0.2,0.1c-0.1,0-0.1,0.1-0.1,0.2l-1.3,3.5c0,0.1,0,0.2,0,0.2
	c0,0,0.1,0.1,0.1,0.1h1.1c0.2,0,0.3,0,0.4,0C5.9,14,6,14,6.1,13.9c0.1,0,0.3-0.1,0.4-0.2c0.1-0.1,0.2-0.1,0.3-0.2
	c0.1-0.1,0.2-0.2,0.3-0.3c0.1-0.1,0.1-0.2,0.2-0.4c0.1-0.1,0.1-0.3,0.1-0.4s0-0.2-0.1-0.3c0-0.1-0.1-0.1-0.2-0.2
	C7.1,12,7,11.9,6.9,11.9c0.1,0,0.2-0.1,0.3-0.1c0.1-0.1,0.2-0.1,0.2-0.2c0.1-0.1,0.1-0.1,0.2-0.2c0.1-0.1,0.1-0.2,0.1-0.3
	c0.1-0.2,0.1-0.3,0.1-0.4c0-0.1-0.1-0.2-0.2-0.3c-0.1-0.1-0.2-0.1-0.4-0.2c-0.2,0-0.3-0.1-0.6-0.1C6.7,10.1,5.7,10.1,5.7,10.1z
	 M22.5,10.1c-0.1,0-0.1,0-0.2,0.1c-0.1,0-0.1,0.1-0.1,0.2l-1.3,3.5c0,0.1,0,0.2,0,0.2c0,0,0.1,0.1,0.1,0.1h2c0,0,0,0,0.1,0
	c0,0,0,0,0.1-0.1c0,0,0-0.1,0.1-0.1c0,0,0-0.1,0.1-0.1c0-0.1,0-0.1,0-0.1c0,0,0-0.1,0-0.1s0,0,0-0.1c0,0,0,0,0,0h-1.4l0.4-1.1h1.2
	c0,0,0,0,0.1,0c0,0,0,0,0.1-0.1c0,0,0-0.1,0.1-0.1c0,0,0-0.1,0.1-0.1c0-0.1,0-0.1,0-0.1c0,0,0-0.1,0-0.1s0,0,0-0.1c0,0,0,0,0,0h-1.2
	l0.4-1h1.4c0,0,0,0,0.1,0c0,0,0,0,0.1-0.1c0,0,0-0.1,0.1-0.1c0,0,0-0.1,0.1-0.1c0-0.1,0-0.1,0-0.2c0,0,0-0.1,0-0.1s0,0,0-0.1
	c0,0,0,0,0,0L22.5,10.1z M12.8,10.1c-0.1,0-0.1,0-0.2,0.1c-0.1,0-0.1,0.1-0.1,0.2l-1.3,3.6c0,0,0,0,0,0.1c0,0,0,0,0.1,0
	c0,0,0.1,0,0.1,0c0.1,0,0.1,0,0.2,0c0.1,0,0.1,0,0.2,0c0.1,0,0.1,0,0.1,0c0,0,0.1,0,0.1,0c0,0,0,0,0-0.1l0.6-1.5h0.3
	c0.1,0,0.2,0,0.2,0s0.1,0.1,0.1,0.1c0,0.1,0.1,0.1,0.1,0.2c0,0.1,0,0.2,0,0.3l0,0.9c0,0,0,0,0,0.1c0,0,0,0,0,0c0,0,0.1,0,0.1,0
	c0.1,0,0.1,0,0.2,0c0.1,0,0.2,0,0.2,0c0.1,0,0.1,0,0.1,0c0,0,0.1,0,0.1,0c0,0,0,0,0-0.1c0,0,0-0.1,0-0.1c0,0,0-0.1,0-0.2l-0.1-0.8
	c0-0.1,0-0.2,0-0.3c0-0.1,0-0.1-0.1-0.2c0-0.1-0.1-0.1-0.1-0.1c0,0-0.1-0.1-0.1-0.1c0.1,0,0.3-0.1,0.4-0.2c0.1-0.1,0.2-0.1,0.3-0.2
	c0.1-0.1,0.2-0.2,0.3-0.3c0.1-0.1,0.1-0.2,0.2-0.4C15,11,15,10.9,15,10.8c0-0.1,0-0.2-0.1-0.3c-0.1-0.1-0.1-0.2-0.2-0.2
	c-0.1-0.1-0.2-0.1-0.4-0.1c-0.1,0-0.1,0-0.2,0c-0.1,0-0.2,0-0.3,0L12.8,10.1z M9.5,10.1c-0.1,0-0.1,0-0.2,0.1
	c-0.1,0-0.1,0.1-0.1,0.2l-1.3,3.5c0,0.1,0,0.2,0,0.2c0,0,0.1,0.1,0.1,0.1h2c0,0,0,0,0.1,0c0,0,0,0,0.1-0.1c0,0,0-0.1,0.1-0.1
	c0,0,0-0.1,0.1-0.1c0-0.1,0-0.1,0-0.1c0,0,0-0.1,0-0.1s0,0,0-0.1c0,0,0,0,0,0H8.8l0.4-1.1h1.2c0,0,0,0,0.1,0c0,0,0,0,0.1-0.1
	c0,0,0-0.1,0.1-0.1c0,0,0-0.1,0.1-0.1c0-0.1,0-0.1,0-0.1c0,0,0-0.1,0-0.1s0,0,0-0.1c0,0,0,0,0,0H9.5l0.3-1h1.4c0,0,0,0,0.1,0
	c0,0,0,0,0.1-0.1c0,0,0-0.1,0.1-0.1c0,0,0-0.1,0.1-0.1c0-0.1,0-0.1,0-0.2c0,0,0-0.1,0-0.1s0,0,0-0.1c0,0,0,0,0,0L9.5,10.1z
	 M38.2,10.1c-0.1,0-0.1,0-0.2,0c-0.1,0-0.1,0-0.1,0c0,0-0.1,0-0.1,0c0,0,0,0,0,0.1l-0.7,1.9c-0.1,0.1-0.1,0.3-0.2,0.4
	s-0.1,0.3-0.1,0.4h0c0-0.1,0-0.2,0-0.2c0-0.1,0-0.2,0-0.2c0-0.1,0-0.2,0-0.3c0-0.1,0-0.2,0-0.3l-0.2-1.5c0-0.1,0-0.1,0-0.2
	c0-0.1,0-0.1-0.1-0.1c0,0-0.1-0.1-0.1-0.1c-0.1,0-0.1,0-0.2,0h-0.4c-0.1,0-0.2,0-0.2,0.1c-0.1,0.1-0.1,0.1-0.2,0.2l-1.3,3.6
	c0,0,0,0,0,0.1c0,0,0,0,0,0c0,0,0.1,0,0.1,0c0,0,0.1,0,0.2,0c0.1,0,0.1,0,0.2,0s0.1,0,0.1,0c0,0,0.1,0,0.1,0c0,0,0,0,0-0.1l0.8-2.1
	c0.1-0.2,0.1-0.3,0.2-0.5c0.1-0.1,0.1-0.3,0.1-0.4h0c0,0.1,0,0.2,0,0.4s0,0.2,0,0.4l0.3,1.9c0,0.1,0,0.2,0,0.2c0,0.1,0,0.1,0.1,0.2
	c0,0,0.1,0.1,0.1,0.1c0,0,0.1,0,0.2,0h0.3c0,0,0.1,0,0.1,0c0,0,0.1,0,0.1-0.1c0,0,0.1-0.1,0.1-0.1c0,0,0.1-0.1,0.1-0.1l1.3-3.6
	c0,0,0,0,0-0.1c0,0,0,0,0,0c0,0-0.1,0-0.1,0C38.3,10.1,38.2,10.1,38.2,10.1z M31.3,10.1c-0.1,0-0.1,0-0.2,0c-0.1,0-0.1,0-0.1,0
	c0,0-0.1,0-0.1,0c0,0,0,0,0,0.1l-0.9,2.4c-0.1,0.3-0.1,0.5-0.1,0.7c0,0.2,0.1,0.3,0.1,0.5c0.1,0.1,0.2,0.2,0.4,0.3
	c0.2,0.1,0.4,0.1,0.6,0.1c0.3,0,0.5,0,0.7-0.1c0.2-0.1,0.4-0.2,0.6-0.3c0.2-0.1,0.3-0.3,0.5-0.5c0.1-0.2,0.3-0.4,0.3-0.7l0.9-2.4
	c0,0,0,0,0-0.1s0,0-0.1,0c0,0-0.1,0-0.1,0c0,0-0.1,0-0.2,0c-0.1,0-0.1,0-0.2,0c-0.1,0-0.1,0-0.1,0c0,0-0.1,0-0.1,0c0,0,0,0,0,0.1
	l-0.9,2.4c-0.1,0.1-0.1,0.3-0.2,0.4c-0.1,0.1-0.2,0.2-0.3,0.3c-0.1,0.1-0.2,0.1-0.3,0.2c-0.1,0-0.2,0.1-0.4,0.1
	c-0.1,0-0.2,0-0.3-0.1c-0.1,0-0.2-0.1-0.2-0.2c0-0.1-0.1-0.2-0.1-0.3c0-0.1,0-0.3,0.1-0.4l0.9-2.3c0,0,0,0,0-0.1s0,0-0.1,0
	c0,0-0.1,0-0.1,0C31.4,10.1,31.3,10.1,31.3,10.1z M1.5,10.1c-0.1,0-0.1,0-0.2,0c-0.1,0-0.1,0-0.1,0c0,0-0.1,0-0.1,0s0,0,0,0.1
	l-0.9,2.4C0,12.9,0,13.1,0,13.3c0,0.2,0.1,0.3,0.1,0.5C0.2,13.9,0.4,14,0.5,14c0.2,0.1,0.4,0.1,0.6,0.1c0.3,0,0.5,0,0.7-0.1
	c0.2-0.1,0.4-0.2,0.6-0.3c0.2-0.1,0.3-0.3,0.5-0.5c0.1-0.2,0.3-0.4,0.3-0.7l0.9-2.4c0,0,0,0,0-0.1s0,0-0.1,0c0,0-0.1,0-0.1,0
	c0,0-0.1,0-0.2,0c-0.1,0-0.1,0-0.2,0c-0.1,0-0.1,0-0.1,0c0,0-0.1,0-0.1,0c0,0,0,0,0,0.1l-0.9,2.4c-0.1,0.1-0.1,0.3-0.2,0.4
	c-0.1,0.1-0.2,0.2-0.3,0.3c-0.1,0.1-0.2,0.1-0.3,0.2c-0.1,0-0.2,0.1-0.4,0.1s-0.2,0-0.3-0.1c-0.1,0-0.2-0.1-0.2-0.2
	c0-0.1-0.1-0.2-0.1-0.3c0-0.1,0-0.3,0.1-0.4l0.9-2.3c0,0,0,0,0-0.1s0,0-0.1,0c0,0-0.1,0-0.1,0C1.6,10.1,1.5,10.1,1.5,10.1z M26,10.1
	c-0.1,0-0.1,0-0.2,0c-0.1,0-0.1,0-0.1,0c0,0-0.1,0-0.1,0c0,0,0,0,0,0.1l-1.4,3.8c0,0,0,0,0,0.1c0,0,0,0,0.1,0c0,0,0.1,0,0.1,0
	s0.1,0,0.2,0c0.1,0,0.1,0,0.2,0s0.1,0,0.1,0c0,0,0.1,0,0.1,0c0,0,0,0,0-0.1l1.4-3.8c0,0,0,0,0-0.1s0,0-0.1,0c0,0-0.1,0-0.1,0
	C26.2,10.1,26.1,10.1,26,10.1z M16.4,10.1c-0.1,0-0.2,0-0.2,0c-0.1,0-0.1,0-0.1,0c0,0-0.1,0.1-0.1,0.1c0,0,0,0.1,0,0.2l-0.4,3.5
	c0,0.1,0,0.1,0,0.1s0,0.1,0.1,0.1c0,0,0.1,0,0.2,0c0.1,0,0.2,0,0.3,0c0.1,0,0.2,0,0.3,0c0.1,0,0.1,0,0.2,0c0,0,0.1,0,0.1-0.1
	c0,0,0.1-0.1,0.1-0.1l1.5-2.5h0L18,13.8c0,0.1,0,0.1,0,0.1c0,0,0,0.1,0.1,0.1c0,0,0.1,0,0.2,0c0.1,0,0.2,0,0.3,0c0.1,0,0.2,0,0.3,0
	c0.1,0,0.1,0,0.2,0C19,14,19,14,19,14c0,0,0.1-0.1,0.1-0.1l2.2-3.5c0-0.1,0.1-0.1,0.1-0.2c0,0,0-0.1,0-0.1c0,0,0,0-0.1,0
	c-0.1,0-0.1,0-0.2,0c-0.1,0-0.2,0-0.2,0c-0.1,0-0.1,0-0.1,0c0,0-0.1,0-0.1,0.1c0,0,0,0.1-0.1,0.1l-1.8,3h0l0.3-3c0,0,0-0.1,0-0.1
	s0,0-0.1-0.1c0,0-0.1,0-0.1,0c-0.1,0-0.1,0-0.2,0c-0.1,0-0.2,0-0.2,0c-0.1,0-0.1,0-0.1,0c0,0-0.1,0-0.1,0.1c0,0,0,0.1-0.1,0.1
	l-1.8,3h0l0.4-3c0,0,0-0.1,0-0.1c0,0,0,0,0-0.1c0,0-0.1,0-0.1,0C16.6,10.1,16.5,10.1,16.4,10.1z M41.6,10c-0.3,0-0.6,0.1-0.9,0.1
	c-0.3,0.1-0.6,0.2-0.8,0.4c-0.2,0.2-0.5,0.4-0.7,0.7c-0.2,0.3-0.3,0.6-0.5,0.9c-0.1,0.3-0.2,0.6-0.2,0.8c0,0.2,0.1,0.5,0.2,0.6
	c0.1,0.2,0.3,0.3,0.5,0.4s0.5,0.1,0.8,0.1c0.1,0,0.2,0,0.3,0c0.1,0,0.2,0,0.3,0c0.1,0,0.2,0,0.3-0.1s0.2-0.1,0.3-0.1
	c0.1,0,0.1-0.1,0.2-0.1c0,0,0.1-0.1,0.1-0.2l0.6-1.6c0,0,0-0.1,0-0.1c0,0,0-0.1,0-0.1c0,0,0,0-0.1-0.1c0,0-0.1,0-0.1,0h-1.3
	c0,0,0,0-0.1,0c0,0,0,0-0.1,0.1c0,0,0,0.1-0.1,0.1c0,0,0,0.1-0.1,0.1c0,0.1-0.1,0.2-0.1,0.2c0,0,0,0.1,0.1,0.1h0.8l-0.3,0.9
	c-0.1,0-0.2,0.1-0.3,0.1c-0.1,0-0.2,0-0.3,0c-0.2,0-0.3,0-0.5-0.1c-0.1-0.1-0.2-0.1-0.3-0.3c-0.1-0.1-0.1-0.3-0.1-0.4
	c0-0.2,0-0.4,0.1-0.6c0.1-0.2,0.2-0.4,0.3-0.6c0.1-0.2,0.3-0.3,0.4-0.4c0.2-0.1,0.3-0.2,0.5-0.3c0.2-0.1,0.4-0.1,0.6-0.1
	c0.2,0,0.3,0,0.5,0.1c0.1,0,0.2,0.1,0.3,0.1c0.1,0,0.1,0.1,0.2,0.1c0,0,0.1,0.1,0.1,0.1c0,0,0,0,0.1,0c0,0,0,0,0.1-0.1
	c0,0,0-0.1,0.1-0.1c0,0,0-0.1,0.1-0.2c0-0.1,0.1-0.2,0.1-0.2s0-0.1,0-0.1s-0.1-0.1-0.1-0.1c-0.1,0-0.1-0.1-0.2-0.1
	c-0.1,0-0.2-0.1-0.3-0.1C41.9,10,41.7,10,41.6,10z M28.8,10c-0.2,0-0.4,0-0.5,0.1c-0.2,0-0.3,0.1-0.5,0.2c-0.2,0.1-0.3,0.2-0.4,0.4
	c-0.1,0.1-0.2,0.3-0.3,0.5C27,11.3,27,11.5,27,11.6c0,0.1,0,0.2,0.1,0.3c0,0.1,0.1,0.2,0.2,0.2c0.1,0.1,0.2,0.1,0.2,0.2
	c0.1,0.1,0.2,0.1,0.3,0.1c0.1,0,0.2,0.1,0.2,0.1c0.1,0.1,0.1,0.1,0.1,0.2c0,0.1,0,0.1,0,0.2c0,0.1-0.1,0.1-0.1,0.2
	c-0.1,0.1-0.1,0.1-0.2,0.2c-0.1,0-0.1,0.1-0.2,0.1c-0.1,0-0.2,0-0.3,0c-0.2,0-0.3,0-0.4-0.1c-0.1,0-0.2-0.1-0.3-0.1
	c-0.1,0-0.1-0.1-0.2-0.1c0,0-0.1-0.1-0.1-0.1c0,0,0,0-0.1,0c0,0,0,0-0.1,0.1c0,0,0,0.1-0.1,0.1c0,0,0,0.1-0.1,0.2
	c0,0.1-0.1,0.2-0.1,0.2c0,0.1,0,0.1,0,0.1c0,0,0.1,0.1,0.1,0.1s0.1,0.1,0.2,0.1s0.2,0.1,0.3,0.1c0.1,0,0.2,0,0.4,0
	c0.2,0,0.4,0,0.6-0.1s0.4-0.1,0.6-0.2c0.2-0.1,0.3-0.2,0.5-0.4c0.1-0.2,0.2-0.3,0.3-0.5c0.1-0.2,0.1-0.3,0.1-0.4
	c0-0.1,0-0.2-0.1-0.3c-0.1-0.1-0.1-0.2-0.2-0.2c-0.1-0.1-0.2-0.1-0.3-0.2c-0.1-0.1-0.2-0.1-0.3-0.1c-0.1,0-0.2-0.1-0.2-0.1
	c-0.1-0.1-0.1-0.1-0.1-0.2c0-0.1,0-0.1,0-0.2c0-0.1,0.1-0.1,0.1-0.2c0-0.1,0.1-0.1,0.1-0.1c0.1,0,0.1-0.1,0.2-0.1s0.2,0,0.2,0
	c0.1,0,0.2,0,0.3,0c0.1,0,0.2,0.1,0.2,0.1s0.1,0.1,0.1,0.1c0,0,0.1,0,0.1,0c0,0,0,0,0.1,0c0,0,0,0,0.1-0.1c0,0,0-0.1,0.1-0.1
	c0,0,0-0.1,0.1-0.2c0-0.1,0-0.1,0-0.1c0,0,0-0.1,0-0.1s0,0,0-0.1c0,0,0,0,0-0.1c0,0,0,0-0.1-0.1c-0.1,0-0.1-0.1-0.2-0.1
	c-0.1,0-0.2,0-0.2-0.1C29,10,28.9,10,28.8,10z M3.7,9C3.6,9,3.5,9,3.4,9.1C3.3,9.1,3.3,9.2,3.2,9.4c-0.1,0.1-0.1,0.2,0,0.3
	c0,0.1,0.1,0.1,0.3,0.1s0.3,0,0.4-0.1C3.9,9.6,4,9.5,4,9.3c0.1-0.1,0.1-0.2,0-0.3C4,9,3.9,9,3.7,9z M2.4,9C2.3,9,2.1,9,2.1,9.1
	C2,9.1,1.9,9.2,1.9,9.4c-0.1,0.1-0.1,0.2,0,0.3c0,0.1,0.1,0.1,0.3,0.1s0.3,0,0.3-0.1c0.1-0.1,0.1-0.2,0.2-0.3c0.1-0.1,0.1-0.2,0-0.3
	C2.7,9,2.6,9,2.4,9z"/>
</svg>
