<?xml version="1.0" encoding="utf-8"?>
<!-- Generator: Adobe Illustrator 22.0.1, SVG Export Plug-In . SVG Version: 6.00 Build 0)  -->
<svg version="1.1" id="Ebene_1" xmlns="http://www.w3.org/2000/svg" xmlns:xlink="http://www.w3.org/1999/xlink" x="0px" y="0px"
	 viewBox="0 0 91.5 26.6" style="enable-background:new 0 0 91.5 26.6;" xml:space="preserve">
<style type="text/css">
	.st0{fill:#FFFFFF;}
	.st1{fill:#179BD7;}
	.st2{fill:#222D65;}
	.st3{fill:#253B80;}
	.st4{fill:#EE7F00;}
	.st5{fill:#D8D8D8;}
	.st6{fill:#FF9900;}
	.st7{fill:#FAA61A;}
	.st8{fill:#F79410;}
	.st9{fill:#FF5F00;}
	.st10{fill:#EB001B;}
	.st11{fill:#F79E1B;}
	.st12{fill:#FF6600;}
	.st13{fill:#E0B646;}
	.st14{fill:#E40520;}
	.st15{fill-rule:evenodd;clip-rule:evenodd;fill:#E0B646;}
</style>
<rect x="0" y="22" class="st12" width="91.4" height="4.6"/>
<path class="st0" d="M0,18.3h4.7V5.5H0V18.3 M0,3.6h4.7V0H0V3.6z"/>
<path class="st0" d="M39.9,14.6h4.4c0,3.2-2.8,3.9-6.4,3.9h-3.7c-3.2,0-6.6-0.6-6.6-6.1v-1.3c0-4.9,2.4-6.4,5.9-6.4h3.4
	c5.2,0,7.3,1.5,7.3,6v2.1H32.3v0.9c0,1.5,1.1,1.9,3.1,1.9h1.5C39.3,15.6,39.9,15.6,39.9,14.6 M39.8,10.2c0-1.8-0.9-2.5-3.7-2.5
	c-3.2,0-3.7,0.7-3.7,2.4L39.8,10.2z"/>
<rect x="66.9" class="st0" width="4.7" height="18.3"/>
<path class="st0" d="M46.8,13.8c0-3.4,2.3-3.7,7.1-3.7c2.7,0,4.1,0.1,5,1l0.2,0.2V10c0-1.4-0.5-1.9-2.4-1.9h-2.9c-1.5,0-2-0.1-2,0.6
	h-4.6c0-2.7,2.5-3.5,5.8-3.5h5.7c3.3,0,5.1,1.6,5.1,4.6v8.5h-4.4v-1.7l-0.2,0.2c-1.4,1.4-1.8,1.7-4.3,1.7h-3.4c-3,0-4.8-0.7-4.8-3.6
	L46.8,13.8 M55.4,15.6c3.4,0,3.8-0.5,3.8-1.5c0-1.1-0.4-1.5-3.1-1.5h-2.2c-2.1,0-2.6,0.5-2.6,1.7c0,1,0.8,1.3,2.7,1.3H55.4z"/>
<path class="st0" d="M12.2,12.6c0,1.5,0.3,2.4,2.7,2.4h2.3c2,0,3.1-0.5,3.1-2.5v-1.3c0-2.1-1.1-2.5-3.1-2.5h-2.3
	c-2.4,0-2.7,0.9-2.7,2.4V12.6 M8,10.7c0-3.3,0.7-5.5,6.9-5.5c2.2,0,4.7,0.7,5,2.6h0.4V0h4.7v18.3h-4.4v-2.4h-0.3
	c-0.6,1.7-2.3,2.6-5.3,2.6c-6.3,0-7-2.2-7-5.4L8,10.7L8,10.7z"/>
<path class="st0" d="M74.5,10.3c0-4.2,2.8-5.1,5.3-5.1h6.5c2.5,0,5.3,0.9,5.3,5.1v3.1c0,4.2-2.8,5.1-5.3,5.1h-6.5
	c-2.5,0-5.3-0.9-5.3-5.1V10.3 M79,12.5c0,1.7,0.6,2.8,3.7,2.8H83c3.2,0,4.1-0.4,4.1-2.5V11c0-2.1-0.6-2.5-4.1-2.5h-0.3
	c-3.3,0-3.7,1.1-3.7,2.8V12.5z"/>
</svg>
