<svg id="Ebene_1" data-name="Ebene 1" xmlns="http://www.w3.org/2000/svg" viewBox="0 0 91.5 26.6">
  <defs>
    <style>
      .cls-1 {
        fill: #f60;
      }

      .cls-2 {
        fill: #fff;
      }
    </style>
  </defs>
  <title>mgc_icons</title>
  <rect class="cls-1" y="22" width="91.4" height="4.6"/>
  <path class="cls-2" d="M0,18.3H4.7V5.5H0V18.3M0,3.6H4.7V0H0Z"/>
  <path class="cls-2" d="M39.9,14.6h4.4c0,3.1-2.8,3.9-6.4,3.9H34.2c-3.2,0-6.6-.6-6.6-6.1V11.2c0-4.9,2.4-6.4,5.9-6.4h3.4c5.3,0,7.3,1.5,7.3,6v2.1H32.3v.9c0,1.5,1.1,1.8,3.1,1.8h1.5c2.4,0,3,0,3-1m-.1-4.4c0-1.8-.9-2.5-3.8-2.5s-3.7.7-3.7,2.4Z"/>
  <rect class="cls-2" x="66.9" width="4.7" height="18.3"/>
  <path class="cls-2" d="M46.8,13.8c0-3.4,2.3-3.6,7.1-3.6,2.7,0,4.1.1,5,1l.2.2V10c0-1.4-.4-1.9-2.4-1.9H53.8c-1.5,0-2,0-2,.6H47.2c0-2.6,2.5-3.4,5.8-3.4h5.7c3.3,0,5.1,1.5,5.1,4.5v8.5H59.4V16.6l-.2.2c-1.4,1.4-1.8,1.7-4.3,1.7H51.5c-2.9,0-4.8-.7-4.8-3.6V13.8m8.7,1.8c3.4,0,3.8-.5,3.8-1.5s-.4-1.4-3.1-1.4H53.9c-2.1,0-2.6.4-2.6,1.6s.8,1.3,2.7,1.3Z"/>
  <path class="cls-2" d="M12.2,12.6c0,1.5.2,2.4,2.7,2.4h2.2c2,0,3.1-.4,3.1-2.5V11.2c0-2-1.1-2.5-3.1-2.5H14.9c-2.4,0-2.7.9-2.7,2.4v1.5M8,10.7c0-3.2.7-5.4,6.8-5.4,2.2,0,4.8.6,5.1,2.6h.3V0h4.7V18.3H20.6V15.9h-.3c-.6,1.6-2.4,2.6-5.3,2.6-6.3,0-7-2.2-7-5.4V10.7Z"/>
  <path class="cls-2" d="M74.5,10.3c0-4.2,2.9-5,5.3-5h6.5c2.4,0,5.2.8,5.2,5v3.1c0,4.2-2.8,5.1-5.2,5.1H79.8c-2.4,0-5.3-.9-5.3-5.1V10.3M79,12.5c0,1.6.6,2.7,3.7,2.7H83c3.2,0,4.1-.3,4.1-2.4V11c0-2.1-.6-2.5-4.1-2.5h-.3c-3.3,0-3.7,1-3.7,2.7Z"/>
</svg>
