<svg id="Ebene_1" data-name="Ebene 1" xmlns="http://www.w3.org/2000/svg" viewBox="0 0 112 15.9">
  <defs>
    <style>
      .cls-1 {
        fill: #fff;
      }
    </style>
  </defs>
  <title>mgc_icons</title>
  <path class="cls-1" d="M74,10.5,72.9,12c-1.3,1.8-.1,3.8,4.1,3.8H93.5l3.9-5.3ZM85.8,9.4,92.6,0H81.8L74.9,9.4Zm13.5,1.1-.9,1.2H112V10.5Zm-3.9,5.4H112V14.7H96.2Zm1.5-2.1H112V12.6H97.7ZM0,15.9H12.8l.8-1.2H0Zm16.7-5.4H0v1.2H15.9ZM0,12.6v1.2H14.3l.9-1.2Zm56.5,3.3H66.8l3.9-5.3H60.4ZM68.2,0l-4,5.4H59.6l4-5.4H53.3L46.5,9.4H71.6L78.4,0ZM41.7,15.9H51.9l3.9-5.3H45.6ZM30.3,10.5c-1.6,0-1.1-.6-.9-.9l1.9-2.5c.5-.7.5-1-.5-1H21.9l-7.2,9.8H32.2a12.6,12.6,0,0,0,10-5.3Zm5.8-4.6L34.3,8.3c-.2.4-.7,1,.9,1h7.9l2.4-3.2C47,4.1,45.6,0,40.4,0H19.8L16.2,4.8H35.7C36.6,4.8,36.6,5.2,36.1,5.9Z"/>
</svg>
