<svg id="Ebene_1" data-name="Ebene 1" xmlns="http://www.w3.org/2000/svg" viewBox="0 0 48 32">
  <defs>
    <style>
      .cls-1 {
        fill: #fff;
      }
    </style>
  </defs>
  <title>mgc_icons</title>
  <path class="cls-1" d="M48,0H0V32H48Zm-.3.3V31.7H.3V.3H47.7"/>
  <path class="cls-1" d="M18.7,7.4H20a.2.2,0,0,0,.3-.1l.2-.9c0-.1.1-.1.2.1l.5.9a.5.5,0,0,0,.4.3l1.3.3c.1,0,.2.1,0,.2l-.8.3c-.2,0-.2.2-.1.3a4.2,4.2,0,0,0,.4,1h-.1l-1-.7a.4.4,0,0,0-.5-.1l-.8.4h-.2c.1-.3.1-.6.2-.9s0-.2-.2-.3l-1.1-.6c-.2-.2-.2-.2,0-.2"/>
  <path class="cls-1" d="M13.7,11l1.4-.2c.2,0,.3-.1.4-.3l.3-.8c0-.2.1-.2.2,0l.5.8.4.2h1.2c.2,0,.2,0,.1.1l-1,.6c-.1.1-.2.2-.1.3a3.6,3.6,0,0,1,.4.9c.1.1,0,.2-.1.1l-1-.6h-.5l-1.1.6c-.1.1-.2.1-.1,0a4.6,4.6,0,0,1,.3-.9c.1-.2,0-.3-.2-.3l-1.2-.3c-.1-.1-.1-.1.1-.2"/>
  <path class="cls-1" d="M11.1,15.7h1.3l.5-.2.7-.9h.1c.1.4.1.6.2.9a.3.3,0,0,0,.3.3l1.1.2c.2,0,.2.1,0,.1l-1.1.4a.5.5,0,0,0-.3.3v.9c0,.2,0,.2-.1.1a4.6,4.6,0,0,1-.7-.7.5.5,0,0,0-.5,0l-1.2.6c-.2,0-.3,0-.2-.1l.8-.9c0-.2,0-.3-.1-.4l-.9-.5h.1"/>
  <path class="cls-1" d="M20,21.9l-.9.6a.4.4,0,0,0-.2.4c.1.5.2.7.3,1.2s-.1.2-.2.1l-.8-.7a.5.5,0,0,0-.5,0l-1,.8c-.1.1-.2.1-.1-.1l.5-1.1c0-.2,0-.4-.1-.4l-.9-.6c-.1-.1-.1-.1.1-.2h1.1c.2,0,.3-.1.4-.3s.2-.6.4-1,.2-.1.2,0,.1.6.2,1l.4.2H20c.1-.1.1,0,0,.1"/>
  <path class="cls-1" d="M26.1,22.6l-.8.2c-.1.1-.2.2-.1.4s.2.5.3,1,0,.1-.1,0l-.9-.8h-.4l-.8.4c-.1,0-.2,0-.1-.1a2.4,2.4,0,0,1,.3-.9.4.4,0,0,0-.2-.4l-.8-.9c-.1-.1-.1-.1.1-.1l1,.3c.1,0,.3,0,.3-.1a2.6,2.6,0,0,0,.3-.8c.1-.1.1-.1.2.1l.3,1c.1.1.2.3.3.3l1.1.3a.1.1,0,0,1,0,.2"/>
  <path class="cls-1" d="M31.5,21l-.9.3a.2.2,0,0,0-.1.3l.5,1h-.2l-1-.8c-.1-.1-.3-.2-.4-.1l-.8.2c-.1.1-.2,0-.2-.1l.3-.8a.8.8,0,0,0-.2-.4l-.9-.9c-.1-.2-.1-.2,0-.2l1.1.5c.1,0,.3,0,.3-.1l.3-.8c0-.1.1-.1.1.1a4.2,4.2,0,0,1,.4,1l.4.3,1.2.3c.2,0,.2.1.1.2"/>
  <path class="cls-1" d="M35,17.3l-.9.6a.4.4,0,0,0-.1.3l.4.8c.1.1,0,.1-.1,0a2,2,0,0,1-.9-.5c-.1,0-.3-.1-.4,0l-.7.3c-.1.1-.2,0-.1-.1l.2-.7a.4.4,0,0,0-.1-.3l-.8-.7c-.1-.1-.1-.1,0-.1l1,.3.3-.2a2.6,2.6,0,0,1,.3-.8h.1l.4.9.3.2h1c.2-.1.2,0,.1,0"/>
  <path class="cls-1" d="M37.9,11.9l-.8.9-.2.3a2.6,2.6,0,0,1,.3.8h-.1l-.8-.2c-.1-.1-.3,0-.4.1l-.8.7c-.1.1-.1,0-.1-.1a3.6,3.6,0,0,1,.4-.9.4.4,0,0,0-.1-.3l-.8-.4h.1l.9-.2q.2,0,.3-.3l.3-.9c.1-.2.1-.2.2-.1s.1.5.2.8a.2.2,0,0,0,.3.1l1-.3h.1"/>
  <path class="cls-1" d="M31.6,8.3h.9l.3-.2c.1-.4.1-.6.2-1h.2c.1.4.1.6.2.9l.3.2h.9c.2,0,.2,0,.1.1l-.8.5c0,.1-.1.3,0,.4l.3.7c0,.1,0,.2-.1.1l-.8-.4H33l-.7.5c0,.1-.1,0,0-.1a3.1,3.1,0,0,1,.2-.8c0-.1-.1-.2-.2-.3l-.7-.6c-.1,0-.1-.1,0-.1"/>
  <path class="cls-1" d="M25.3,7.1l1.1.3c.1,0,.2,0,.2-.1l.3-.8h.2l.3,1,.3.2,1,.3c.1.1.2.1,0,.2l-.7.3c-.1,0-.2.2-.2.3a3.2,3.2,0,0,1,.3.9c0,.2,0,.2-.1.1L27.2,9l-.3-.2-.8.3H26l.3-.7a.8.8,0,0,0-.2-.4l-.8-.7c-.1-.1-.1-.1,0-.1"/>
  <path class="cls-1" d="M41,6.9l-.8.7a.4.4,0,0,0-.1.3l.3.5c0,.1,0,.2-.1.1H39.1l-.8.8h-.1c.1-.4.2-.5.3-.9s0-.2-.1-.2l-.7-.3c-.1,0-.1-.1.1-.1l.9-.3.3-.3a7.9,7.9,0,0,0,.4-.9h.1l.2.7H40l.9-.3c.1-.1.2,0,.1.1"/>
  <path class="cls-1" d="M28.1,13.1c.3,0,.3-.1,0-.1a31,31,0,0,0-9.7,3.7,51.5,51.5,0,0,0-7.2,4.9c-.2.2-.4.2-.5.1a7.6,7.6,0,0,0-.4-1.1c0-.1-.1-.1-.2.1s-.2.9-.4,1.5a2.3,2.3,0,0,1-.5.5l-1.1.8c-.1.1-.2.2.1.3h.6c.3.1.2.3.2.4s-.2.7-.3,1.2,0,.2.1,0a4.7,4.7,0,0,0,1-1c.2-.2.3-.4.5-.3h1.1c.2.1.2,0,.2-.2a3.2,3.2,0,0,1-.3-.9.3.3,0,0,1,.1-.5,33.1,33.1,0,0,1,6.9-5.4A34.9,34.9,0,0,1,28.1,13.1Z"/>
</svg>
