<svg id="Ebene_1" data-name="Ebene 1" xmlns="http://www.w3.org/2000/svg" viewBox="0 0 87.3 16.3">
  <defs>
    <style>
      .cls-1 {
        fill: #fff;
      }

      .cls-2 {
        fill: #f90;
      }
    </style>
  </defs>
  <title>mgc_icons</title>
  <path class="cls-1" d="M37.3,7.1a7.1,7.1,0,0,0-3.2-.7l2.9-4c.2-.4.4-.6.4-.8V.6a.4.4,0,0,0-.3-.4H31.6a.4.4,0,0,0-.4.4V1.8c0,.2.2.3.4.3h2.8L31.1,6.8a1.6,1.6,0,0,0-.2.9V8.9c0,.2.2.4.4.3a6.3,6.3,0,0,1,5.8,0c.2.1.4-.1.4-.3V7.6C37.5,7.4,37.5,7.2,37.3,7.1Z"/>
  <path class="cls-1" d="M18.1.1a2.3,2.3,0,0,0-2.3,1.6A2.2,2.2,0,0,0,13.6.1a2.2,2.2,0,0,0-2.2,1.6h0V.6a.3.3,0,0,0-.3-.3H9.5a.3.3,0,0,0-.3.3V9.2c0,.1.2.2.3.3h1.7c.2,0,.3-.2.3-.4V4.6c0-1,0-2.4,1.2-2.4s1,1.4,1,2.4V9.1c0,.2.1.3.3.4h1.7c.2,0,.3-.2.3-.4V4.6a5,5,0,0,1,.2-1.7,1.1,1.1,0,0,1,1-.7.9.9,0,0,1,.9.8,8.1,8.1,0,0,1,.1,1.6V9.1c0,.2.1.3.3.4h1.7c.2,0,.3-.2.3-.4V3.7A4.8,4.8,0,0,0,20.1,1,2.7,2.7,0,0,0,18.1.1Z"/>
  <path class="cls-1" d="M53.6,1.1a2,2,0,0,0-1.9-1,2.3,2.3,0,0,0-2.3,1.7h0V.5L49.1.3H47.5l-.3.2V9.1a.3.3,0,0,0,.3.3h1.7a.3.3,0,0,0,.3-.3V4.5a4.1,4.1,0,0,1,.2-1.6,1.2,1.2,0,0,1,1-.7c1.2,0,1.1,1.4,1.1,2.3V9.2c0,.1.1.2.3.2h1.6l.4-.2V3.8A4.9,4.9,0,0,0,53.6,1.1Z"/>
  <path class="cls-1" d="M26.6,7.1a1.4,1.4,0,0,1-1.2.8c-.6,0-1-.5-1-1.2S25.7,5,26.9,5v.3A3.6,3.6,0,0,1,26.6,7.1Zm2.6-.8V3.7c0-1.1.1-2.1-.7-2.9A3.9,3.9,0,0,0,26,0c-1.6,0-3.4.6-3.8,2.6a.3.3,0,0,0,.3.3l1.6.2a.3.3,0,0,0,.3-.3,1.2,1.2,0,0,1,1.3-1,1.2,1.2,0,0,1,1,.4,2.5,2.5,0,0,1,.2,1.2v.2a16.5,16.5,0,0,0-3.2.6A2.9,2.9,0,0,0,22,7a2.3,2.3,0,0,0,2.5,2.6,3.3,3.3,0,0,0,2.7-1.2,4.7,4.7,0,0,0,1,1.1h.4l1.3-1.1a.3.3,0,0,0,0-.4A2.2,2.2,0,0,1,29.2,6.3Z"/>
  <path class="cls-1" d="M4.6,7.1a1.4,1.4,0,0,1-1.1.8A1.1,1.1,0,0,1,2.4,6.7C2.4,5.2,3.7,5,4.9,5v.3A3.6,3.6,0,0,1,4.6,7.1Zm2.7-.8V3.7c0-1.1.1-2.1-.7-2.9A4.2,4.2,0,0,0,4,0C2.4,0,.7.6.3,2.6c-.1.2.1.3.2.3l1.7.2c.1,0,.2-.2.2-.3a1.4,1.4,0,0,1,1.4-1,1.1,1.1,0,0,1,.9.4,1.7,1.7,0,0,1,.2,1.2v.2a17,17,0,0,0-3.1.6A2.9,2.9,0,0,0,0,7,2.4,2.4,0,0,0,2.5,9.6,3.6,3.6,0,0,0,5.3,8.4a7.3,7.3,0,0,0,.9,1.1h.4L7.9,8.3a.3.3,0,0,0,0-.4A2.6,2.6,0,0,1,7.3,6.3Z"/>
  <path class="cls-2" d="M33.1,12a28.2,28.2,0,0,1-10.8,2.2A28.8,28.8,0,0,1,8.1,10.5c-.4-.3-.6.1-.4.4a21,21,0,0,0,14.2,5.4,20.2,20.2,0,0,0,11.7-3.6C34.1,12.4,33.6,11.8,33.1,12Z"/>
  <path class="cls-2" d="M36.2,10.2c-.4-.4-3.3-.8-5.1.5s-.2.5.1.4,3.2-.4,3.7.1-.5,2.7-.9,3.6.2.4.4.2C36.1,13.6,36.5,10.7,36.2,10.2Z"/>
  <path class="cls-1" d="M63.1,8.3a2.5,2.5,0,0,1-2.4-.9v-5a3,3,0,0,1,2.1-.9c1.7-.1,3.2,1,3.2,3.3A3.2,3.2,0,0,1,63.1,8.3ZM62.7.2a3.2,3.2,0,0,0-2.1,1L60.4.3H59.3V12.9h1.3v-4a4.2,4.2,0,0,0,2.3.6,4.4,4.4,0,0,0,4.4-4.6C67.3,2,65.6.1,62.7.2Z"/>
  <path class="cls-1" d="M75.7,7.3a3.5,3.5,0,0,1-2.5,1.2c-1.9,0-2.8-.9-2.8-2s1-2,3-2a4.6,4.6,0,0,1,2.3.6ZM73.1,0a5.4,5.4,0,0,0-3.4,1.2l.6,1a4.7,4.7,0,0,1,2.8-.9c1.4,0,2.6.5,2.6,2.3V4a4.8,4.8,0,0,0-2.3-.7c-2.9,0-4.3,1.4-4.3,3.2s1.4,3.1,4.1,3.1a3.7,3.7,0,0,0,2.5-1l.2.8H77V3.6C77,1,75.2,0,73.1,0Z"/>
  <path class="cls-1" d="M85.8.3,83,7.9,80,.3H78.5l3.7,9.2-.5,1.3c-.2.6-.6,1-1.7.9v1.1a2.6,2.6,0,0,0,3.1-1.6L87.3.3Z"/>
  <path class="cls-1" d="M42.1,7.9c-1.3,0-1.3-2.3-1.3-3.3s.1-2.8,1.3-2.8.9.3,1.1.9a7.8,7.8,0,0,1,.3,2.2C43.5,6,43.4,7.9,42.1,7.9Zm0-7.8c-2.4,0-3.7,2.1-3.7,4.7s1.3,4.8,3.7,4.8S46,7.6,46,4.9,44.6.1,42.1.1Z"/>
</svg>
