<?xml version="1.0" encoding="utf-8"?>
<!-- Generator: Adobe Illustrator 22.0.1, SVG Export Plug-In . SVG Version: 6.00 Build 0)  -->
<svg version="1.1" id="Ebene_1" xmlns="http://www.w3.org/2000/svg" xmlns:xlink="http://www.w3.org/1999/xlink" x="0px" y="0px"
	 viewBox="0 0 48 32" style="enable-background:new 0 0 48 32;" xml:space="preserve">
<style type="text/css">
	.st0{fill:#FFFFFF;}
	.st1{fill:#179BD7;}
	.st2{fill:#222D65;}
	.st3{fill:#253B80;}
	.st4{fill:#EE7F00;}
	.st5{fill:#D8D8D8;}
	.st6{fill:#FF9900;}
	.st7{fill:#FAA61A;}
	.st8{fill:#F79410;}
	.st9{fill:#FF5F00;}
	.st10{fill:#EB001B;}
	.st11{fill:#F79E1B;}
	.st12{fill:#FF6600;}
	.st13{fill:#E0B646;}
	.st14{fill:#E40520;}
	.st15{fill-rule:evenodd;clip-rule:evenodd;fill:#E0B646;}
</style>
<path class="st0" d="M48,0H0v32h48V0z M47.7,0.3v31.4H0.3V0.3H47.7"/>
<path class="st0" d="M18.7,7.4c0.5,0,0.8,0.1,1.3,0.1c0.2,0,0.3-0.1,0.3-0.2c0.1-0.3,0.1-0.5,0.2-0.8c0-0.1,0.1-0.1,0.2,0
	c0.2,0.4,0.3,0.6,0.5,1c0.1,0.1,0.3,0.3,0.4,0.3c0.5,0.1,0.6,0.1,1.2,0.3c0.2,0,0.2,0.1,0.1,0.2c-0.3,0.1-0.5,0.2-0.9,0.3
	c-0.1,0-0.2,0.2-0.1,0.3c0.2,0.4,0.3,0.6,0.5,1c0.1,0.1,0,0.2-0.1,0c-0.4-0.3-0.6-0.5-1-0.8C21.2,9.1,21,9,20.8,9.1
	c-0.3,0.2-0.5,0.3-0.9,0.4c-0.1,0.1-0.2,0-0.2-0.1c0.1-0.3,0.1-0.5,0.2-0.8c0-0.1-0.1-0.3-0.2-0.3c-0.4-0.3-0.7-0.4-1.1-0.6
	C18.5,7.4,18.5,7.4,18.7,7.4"/>
<path class="st0" d="M13.7,11c0.6-0.1,0.8-0.2,1.4-0.3c0.2,0,0.3-0.1,0.4-0.3c0.1-0.3,0.2-0.5,0.3-0.9c0-0.1,0.1-0.1,0.2,0
	c0.2,0.3,0.3,0.5,0.5,0.8c0.1,0.1,0.3,0.2,0.4,0.2c0.5,0,0.7-0.1,1.2-0.1c0.2,0,0.2,0.1,0.1,0.1c-0.4,0.3-0.6,0.4-0.9,0.6
	c-0.1,0.1-0.2,0.2-0.1,0.3c0.2,0.3,0.3,0.5,0.4,0.9c0.1,0.1,0,0.2-0.1,0.1c-0.4-0.2-0.6-0.3-1-0.5c-0.2-0.1-0.4-0.1-0.5,0
	c-0.4,0.3-0.5,0.3-1.1,0.7c-0.2,0.1-0.2,0.1-0.2-0.1c0.2-0.4,0.2-0.5,0.4-0.9c0-0.1,0-0.3-0.2-0.3c-0.5-0.2-0.7-0.2-1.2-0.3
	C13.5,11.1,13.5,11.1,13.7,11"/>
<path class="st0" d="M11.1,15.7c0.6,0,0.8-0.1,1.3-0.1c0.2,0,0.4-0.1,0.5-0.2c0.3-0.3,0.4-0.5,0.7-0.9c0.1-0.1,0.2-0.1,0.2,0
	c0.1,0.4,0.1,0.5,0.1,0.9c0,0.1,0.2,0.2,0.3,0.3c0.5,0.1,0.6,0.1,1.1,0.2c0.2,0,0.2,0.1,0,0.1c-0.4,0.1-0.6,0.2-1.1,0.4
	c-0.2,0.1-0.3,0.2-0.3,0.3c0,0.4,0,0.6,0,0.9c0,0.1-0.1,0.2-0.2,0.1c-0.3-0.3-0.4-0.4-0.7-0.7c-0.1-0.1-0.3-0.1-0.5,0
	c-0.5,0.2-0.7,0.3-1.2,0.6c-0.2,0.1-0.2,0-0.1-0.1c0.3-0.4,0.4-0.6,0.7-0.9c0.1-0.1,0.1-0.3,0-0.3C11.6,16,11.4,15.9,11.1,15.7
	C10.9,15.7,10.9,15.7,11.1,15.7"/>
<path class="st0" d="M20,21.9c-0.4,0.2-0.6,0.3-1,0.6c-0.1,0.1-0.2,0.3-0.2,0.4c0.1,0.4,0.2,0.7,0.3,1.1c0,0.2,0,0.2-0.2,0.1
	c-0.3-0.3-0.5-0.4-0.8-0.7c-0.1-0.1-0.3-0.1-0.4,0c-0.4,0.3-0.6,0.5-1,0.8c-0.1,0.1-0.2,0.1-0.1-0.1c0.2-0.5,0.3-0.7,0.5-1.2
	c0.1-0.2,0-0.3-0.1-0.4c-0.3-0.2-0.5-0.3-0.9-0.6C16,22,16,22,16.2,21.9c0.5-0.1,0.7-0.1,1.2-0.1c0.2,0,0.3-0.1,0.4-0.3
	c0.2-0.4,0.3-0.7,0.4-1c0.1-0.1,0.1-0.1,0.2,0c0.1,0.4,0.2,0.6,0.3,1c0,0.1,0.2,0.3,0.3,0.3C19.3,21.7,19.5,21.7,20,21.9
	C20.1,21.7,20.1,21.8,20,21.9"/>
<path class="st0" d="M26.1,22.6c-0.3,0.1-0.5,0.2-0.8,0.3c-0.1,0-0.2,0.2-0.1,0.3c0.2,0.4,0.2,0.6,0.4,1c0.1,0.1,0,0.2-0.1,0.1
	c-0.3-0.3-0.5-0.5-0.9-0.8c-0.1-0.1-0.3-0.2-0.4-0.1c-0.3,0.1-0.5,0.2-0.8,0.4c-0.1,0.1-0.2,0-0.1-0.1c0.1-0.4,0.2-0.5,0.3-0.9
	c0-0.1,0-0.3-0.1-0.4c-0.3-0.3-0.5-0.5-0.8-0.8c-0.1-0.1-0.1-0.2,0.1-0.1c0.4,0.1,0.6,0.2,1,0.3c0.1,0,0.3,0,0.3-0.1
	c0.1-0.3,0.2-0.5,0.3-0.8c0-0.1,0.1-0.1,0.2,0.1c0.1,0.4,0.2,0.6,0.3,1c0,0.1,0.2,0.3,0.3,0.3c0.4,0.1,0.6,0.2,1,0.3
	C26.1,22.4,26.2,22.5,26.1,22.6"/>
<path class="st0" d="M31.5,21c-0.3,0.1-0.5,0.2-0.9,0.3c-0.1,0-0.2,0.2-0.1,0.3c0.2,0.4,0.3,0.6,0.5,0.9c0.1,0.1,0,0.2-0.1,0.1
	c-0.4-0.3-0.6-0.4-1-0.8c-0.1-0.1-0.3-0.2-0.4-0.2c-0.3,0.1-0.5,0.2-0.8,0.3c-0.1,0-0.2,0-0.2-0.1c0.1-0.3,0.2-0.5,0.3-0.8
	c0-0.1,0-0.3-0.2-0.4c-0.4-0.4-0.6-0.6-0.9-0.9c-0.1-0.1-0.1-0.2,0-0.1c0.4,0.2,0.7,0.3,1.1,0.4c0.1,0.1,0.3,0,0.3-0.1
	c0.1-0.3,0.2-0.5,0.3-0.8c0-0.1,0.1-0.1,0.2,0.1c0.2,0.4,0.3,0.6,0.4,1c0.1,0.1,0.2,0.3,0.4,0.3c0.4,0.2,0.7,0.2,1.2,0.3
	C31.6,20.8,31.6,20.9,31.5,21"/>
<path class="st0" d="M35,17.3c-0.3,0.3-0.5,0.3-0.8,0.6C34,18,34,18.1,34,18.2c0.2,0.3,0.2,0.4,0.4,0.8c0.1,0.1,0,0.1-0.1,0.1
	c-0.3-0.2-0.5-0.3-0.9-0.5c-0.1-0.1-0.3-0.1-0.4-0.1c-0.3,0.1-0.5,0.2-0.8,0.3c-0.1,0-0.2,0-0.1-0.1c0.1-0.3,0.2-0.4,0.3-0.7
	c0-0.1,0-0.3-0.1-0.3c-0.3-0.3-0.5-0.4-0.8-0.7c-0.1-0.1-0.1-0.1,0-0.1c0.4,0.1,0.6,0.1,1,0.2c0.1,0,0.3-0.1,0.3-0.2
	c0.1-0.3,0.2-0.5,0.3-0.8c0-0.1,0.1-0.1,0.2,0c0.1,0.4,0.2,0.5,0.3,0.9c0,0.1,0.2,0.2,0.3,0.2C34.3,17.3,34.5,17.3,35,17.3
	C35.1,17.2,35.1,17.3,35,17.3"/>
<path class="st0" d="M37.9,11.9c-0.3,0.3-0.5,0.5-0.8,0.8c-0.1,0.1-0.2,0.3-0.1,0.4c0.1,0.3,0.2,0.4,0.3,0.7c0,0.1,0,0.2-0.1,0.1
	c-0.3-0.1-0.5-0.1-0.8-0.2c-0.1,0-0.3,0-0.4,0.1c-0.3,0.3-0.5,0.4-0.8,0.7C35,14.7,35,14.6,35,14.5c0.1-0.3,0.2-0.5,0.3-0.9
	c0-0.1,0-0.3-0.1-0.3c-0.3-0.2-0.4-0.2-0.7-0.4c-0.1-0.1-0.1-0.1,0-0.1c0.4-0.1,0.6-0.1,0.9-0.2c0.1,0,0.3-0.2,0.3-0.3
	c0.1-0.4,0.2-0.6,0.3-1c0-0.1,0.1-0.2,0.1,0c0.1,0.3,0.2,0.5,0.3,0.8c0,0.1,0.2,0.2,0.3,0.1C37.2,12.1,37.4,12,37.9,11.9
	C37.9,11.8,38,11.8,37.9,11.9"/>
<path class="st0" d="M31.6,8.3c0.3,0,0.5,0,0.9,0c0.1,0,0.2-0.1,0.3-0.2c0.1-0.4,0.2-0.6,0.3-1c0-0.1,0.1-0.1,0.1,0
	c0.1,0.4,0.2,0.6,0.3,0.9c0,0.1,0.2,0.2,0.3,0.2c0.3,0,0.5,0,0.9,0c0.1,0,0.2,0,0,0.1c-0.3,0.2-0.4,0.3-0.7,0.5
	c-0.1,0.1-0.1,0.3-0.1,0.3C34,9.5,34,9.6,34.2,9.9c0,0.1,0,0.1-0.1,0.1c-0.3-0.2-0.4-0.3-0.7-0.4c-0.1-0.1-0.3,0-0.3,0
	c-0.3,0.2-0.4,0.3-0.7,0.5c-0.1,0.1-0.1,0-0.1-0.1c0.1-0.3,0.1-0.5,0.2-0.8c0-0.1,0-0.3-0.1-0.3c-0.3-0.2-0.4-0.3-0.7-0.6
	C31.5,8.4,31.5,8.3,31.6,8.3"/>
<path class="st0" d="M25.3,7.1c0.4,0.1,0.6,0.2,1,0.3c0.1,0,0.3,0,0.3-0.1c0.1-0.3,0.2-0.5,0.3-0.8c0-0.1,0.1-0.1,0.2,0
	c0.1,0.4,0.2,0.6,0.3,1c0,0.1,0.2,0.3,0.3,0.3c0.4,0.1,0.6,0.2,1,0.3c0.1,0,0.2,0.1,0,0.2c-0.3,0.1-0.5,0.2-0.8,0.3
	c-0.1,0-0.2,0.2-0.1,0.3C28,9.2,28,9.3,28.1,9.7c0,0.1,0,0.1-0.1,0c-0.3-0.3-0.4-0.5-0.8-0.8c-0.1-0.1-0.3-0.2-0.4-0.1
	c-0.3,0.1-0.4,0.2-0.7,0.3C26,9.1,26,9.1,26,9c0.1-0.3,0.2-0.4,0.3-0.7c0-0.1,0-0.3-0.1-0.3C25.8,7.6,25.6,7.5,25.3,7.1
	C25.2,7.1,25.2,7.1,25.3,7.1"/>
<path class="st0" d="M41,6.9c-0.3,0.3-0.4,0.4-0.8,0.7c-0.1,0.1-0.2,0.2-0.1,0.3c0.1,0.3,0.2,0.3,0.3,0.6c0,0.1,0,0.1-0.1,0.1
	c-0.3,0-0.5-0.1-0.8-0.1c-0.1,0-0.3,0-0.4,0.1c-0.3,0.3-0.5,0.4-0.8,0.8c-0.1,0.1-0.2,0.1-0.1,0c0.2-0.3,0.2-0.5,0.3-0.8
	c0.1-0.1,0-0.2-0.1-0.3C38.1,8.1,38,8,37.7,7.9c-0.1,0-0.1-0.1,0.1-0.1c0.4-0.1,0.6-0.2,0.9-0.3c0.1,0,0.3-0.2,0.3-0.3
	c0.2-0.3,0.2-0.5,0.3-0.9c0.1-0.1,0.1-0.1,0.1,0c0.1,0.3,0.1,0.4,0.2,0.7c0,0.1,0.2,0.1,0.3,0.1C40.4,7,40.6,6.9,41,6.9
	C41,6.7,41.1,6.8,41,6.9"/>
<path class="st0" d="M28.1,13.1c0.2-0.1,0.3-0.2,0-0.2c-0.4,0-5.4,1.2-9.8,3.7c-4.7,2.8-6.1,4.1-7.2,4.9c-0.3,0.2-0.5,0.2-0.5,0.1
	c-0.2-0.4-0.3-0.7-0.4-1.1c0-0.1-0.2-0.1-0.2,0.1c-0.2,0.6-0.3,0.9-0.4,1.5c-0.1,0.2-0.1,0.3-0.4,0.6c-0.6,0.4-0.8,0.5-1.1,0.8
	c-0.1,0.1-0.2,0.2,0.1,0.3s0.3,0.1,0.7,0.1C9.1,24,9,24.2,9,24.3c-0.1,0.5-0.2,0.7-0.3,1.2c-0.1,0.2,0,0.2,0.2,0
	c0.4-0.4,0.5-0.6,1-1c0.2-0.2,0.3-0.4,0.5-0.3c0.4,0.1,0.5,0.1,1.1,0.2c0.3,0.1,0.3-0.1,0.2-0.3c-0.2-0.5-0.2-0.4-0.3-0.9
	c-0.1-0.1-0.1-0.4,0.1-0.5c2.5-2.4,3.5-3.2,6.9-5.4C21,15.5,24.5,14.1,28.1,13.1z"/>
</svg>
