<?xml version="1.0" encoding="utf-8"?>
<!-- Generator: Adobe Illustrator 22.0.1, SVG Export Plug-In . SVG Version: 6.00 Build 0)  -->
<svg version="1.1" id="Ebene_1" xmlns="http://www.w3.org/2000/svg" xmlns:xlink="http://www.w3.org/1999/xlink" x="0px" y="0px"
	 viewBox="0 0 51.5 16.6" style="enable-background:new 0 0 51.5 16.6;" xml:space="preserve">
<style type="text/css">
	.st0{fill:#FFFFFF;}
	.st1{fill:#179BD7;}
	.st2{fill:#222D65;}
	.st3{fill:#253B80;}
	.st4{fill:#EE7F00;}
	.st5{fill:#D8D8D8;}
	.st6{fill:#FF9900;}
	.st7{fill:#FAA61A;}
	.st8{fill:#F79410;}
	.st9{fill:#FF5F00;}
	.st10{fill:#EB001B;}
	.st11{fill:#F79E1B;}
	.st12{fill:#FF6600;}
	.st13{fill:#E0B646;}
	.st14{fill:#E40520;}
	.st15{fill-rule:evenodd;clip-rule:evenodd;fill:#E0B646;}
</style>
<g>
	<polygon class="st0" points="22.3,16.4 18.1,16.4 20.8,0.3 24.9,0.3 	"/>
	<path class="st0" d="M33.4,3.4c1.4,0,2.4,0.3,3.1,0.6l0.4,0.2l0.5-3.4C36.6,0.4,35.3,0,33.7,0c-4.1,0-7.1,2.2-7.1,5.3
		c0,2.4,2.1,3.6,3.6,4.4c1.6,0.8,2.2,1.3,2.2,2c0,1.1-1.3,1.5-2.5,1.5c-1.6,0-2.5-0.3-3.9-0.8l-0.5-0.3l-0.5,3.6
		c1,0.5,2.8,0.8,4.6,0.8c4.4,0,7.3-2.2,7.3-5.5c0-1.8-1.1-3.3-3.5-4.4c-1.5-0.7-2.4-1.3-2.4-2C31,4.1,31.7,3.4,33.4,3.4z"/>
	<path class="st0" d="M43,10.7c0.4-0.9,1.6-4.5,1.6-4.5s0.4-0.9,0.5-1.5L45.5,6c0,0,0.8,3.9,1,4.7C45.9,10.7,43.9,10.7,43,10.7z
		 M48.1,0.3h-3.3c-1,0-1.7,0.3-2.2,1.4l-6.2,14.8h4.4c0,0,0.7-2,0.9-2.4c0.5,0,4.7,0,5.3,0c0.1,0.5,0.5,2.4,0.5,2.4h3.9L48.1,0.3z"
		/>
	<path class="st0" d="M14.7,0.3l-4.1,11l-0.5-2.2C9.4,6.5,7.1,3.7,4.4,2.3l3.7,14.1h4.4L19,0.3H14.7z"/>
	<path class="st7" d="M8.7,1.6c-0.3-1-1-1.3-1.9-1.4H0.1L0,0.6C5.3,2,8.7,5.2,10.2,9.1L8.7,1.6z"/>
</g>
</svg>
