<?xml version="1.0" encoding="utf-8"?>
<!-- Generator: Adobe Illustrator 22.0.1, SVG Export Plug-In . SVG Version: 6.00 Build 0)  -->
<svg version="1.1" id="Ebene_1" xmlns="http://www.w3.org/2000/svg" xmlns:xlink="http://www.w3.org/1999/xlink" x="0px" y="0px"
	 viewBox="0 0 87.3 16.3" style="enable-background:new 0 0 87.3 16.3;" xml:space="preserve">
<style type="text/css">
	.st0{fill:#FFFFFF;}
	.st1{fill:#179BD7;}
	.st2{fill:#222D65;}
	.st3{fill:#253B80;}
	.st4{fill:#EE7F00;}
	.st5{fill:#D8D8D8;}
	.st6{fill:#FF9900;}
	.st7{fill:#FAA61A;}
	.st8{fill:#F79410;}
	.st9{fill:#FF5F00;}
	.st10{fill:#EB001B;}
	.st11{fill:#F79E1B;}
	.st12{fill:#FF6600;}
	.st13{fill:#E0B646;}
	.st14{fill:#E40520;}
	.st15{fill-rule:evenodd;clip-rule:evenodd;fill:#E0B646;}
</style>
<path class="st0" d="M37.3,7.1c-1-0.5-2.1-0.7-3.1-0.7L37,2.4c0.3-0.4,0.4-0.6,0.4-0.8v-1c0-0.2-0.1-0.3-0.3-0.3h-5.5
	c-0.2,0-0.3,0.1-0.3,0.3v1.2c0,0.2,0.1,0.3,0.3,0.3h2.9l-3.3,4.7c-0.2,0.3-0.2,0.7-0.2,0.8v1.2c0,0.2,0.2,0.4,0.4,0.3
	c1.9-1,4.1-0.9,5.8,0c0.2,0.1,0.4-0.1,0.4-0.3V7.6C37.5,7.4,37.5,7.2,37.3,7.1z"/>
<path class="st0" d="M18.1,0.1c-1,0-1.9,0.5-2.3,1.6c-0.5-1.1-1.1-1.6-2.2-1.6c-1,0-1.8,0.5-2.2,1.6h0V0.6c0-0.2-0.1-0.3-0.3-0.3
	H9.5c-0.2,0-0.3,0.1-0.3,0.3v8.6c0,0.2,0.1,0.3,0.3,0.3h1.7c0.2,0,0.3-0.1,0.3-0.3V4.6c0-1,0-2.4,1.2-2.4c1.2,0,1,1.4,1,2.4v4.6
	c0,0.2,0.1,0.3,0.3,0.3h1.7c0.2,0,0.3-0.1,0.3-0.3V4.6c0-0.5,0-1.2,0.2-1.6c0.2-0.4,0.6-0.7,1-0.7c0.5,0,0.9,0.2,1,0.7
	c0.1,0.3,0,1.3,0,1.6v4.6c0,0.2,0.1,0.3,0.3,0.3h1.7c0.2,0,0.3-0.1,0.3-0.3V3.7c0-0.9,0.1-2-0.4-2.7C19.6,0.4,18.8,0.1,18.1,0.1z"/>
<path class="st0" d="M53.6,1.1c-0.5-0.7-1.2-1-2-1c-1.2,0-1.8,0.6-2.3,1.7h0V0.5c0-0.1-0.2-0.2-0.3-0.2h-1.6c-0.2,0-0.3,0.1-0.3,0.3
	v8.6c0,0.2,0.1,0.3,0.3,0.3h1.7c0.2,0,0.3-0.1,0.3-0.3V4.5c0-0.6,0-1.1,0.3-1.6c0.2-0.4,0.6-0.7,1-0.7c1.2,0,1,1.4,1,2.3v4.7
	c0,0.1,0.1,0.3,0.3,0.3h1.7c0.2,0,0.3-0.1,0.3-0.3V3.8C54.1,2.9,54.1,1.8,53.6,1.1z"/>
<path class="st0" d="M26.6,7.1c-0.3,0.5-0.7,0.8-1.2,0.8c-0.6,0-1-0.5-1-1.2c0-1.4,1.3-1.7,2.5-1.7v0.4C26.9,6,26.9,6.5,26.6,7.1z
	 M29.2,6.3V3.7c0-1.1,0.1-2.1-0.7-2.9C27.8,0.2,26.8,0,26,0c-1.6,0-3.4,0.6-3.7,2.6c0,0.2,0.1,0.3,0.3,0.3l1.6,0.2
	c0.2,0,0.3-0.2,0.3-0.3c0.1-0.7,0.7-1,1.3-1c0.3,0,0.7,0.1,0.9,0.4c0.2,0.3,0.2,0.8,0.2,1.2v0.2c-1,0.1-2.2,0.2-3.1,0.6
	C22.7,4.7,22,5.6,22,7c0,1.7,1.1,2.6,2.5,2.6c1.2,0,1.8-0.3,2.8-1.2c0.3,0.4,0.4,0.7,1,1.1c0.1,0.1,0.3,0.1,0.4,0
	c0.3-0.3,0.9-0.8,1.3-1.1C30,8.2,30,8,29.9,7.9C29.5,7.4,29.2,7.1,29.2,6.3z"/>
<path class="st0" d="M4.6,7.1C4.3,7.6,3.9,7.9,3.5,7.9c-0.6,0-1-0.5-1-1.2C2.4,5.2,3.7,5,4.9,5v0.4C4.9,6,4.9,6.5,4.6,7.1z M7.3,6.3
	V3.7c0-1.1,0.1-2.1-0.7-2.9C5.9,0.2,4.8,0,4,0C2.4,0,0.7,0.6,0.3,2.6c0,0.2,0.1,0.3,0.3,0.3l1.6,0.2c0.2,0,0.3-0.2,0.3-0.3
	c0.1-0.7,0.7-1,1.3-1c0.3,0,0.7,0.1,0.9,0.4C5,2.6,4.9,3,4.9,3.4v0.2C4,3.8,2.7,3.8,1.8,4.2C0.7,4.7,0,5.6,0,7
	c0,1.7,1.1,2.6,2.5,2.6c1.2,0,1.8-0.3,2.8-1.2c0.3,0.4,0.4,0.7,1,1.1c0.1,0.1,0.3,0.1,0.4,0C7,9.1,7.6,8.6,7.9,8.3
	C8,8.2,8,8,7.9,7.9C7.6,7.4,7.3,7.1,7.3,6.3z"/>
<path class="st6" d="M33.1,12c-3.5,1.5-7.3,2.2-10.8,2.2c-5.2,0-10.2-1.4-14.2-3.8c-0.3-0.2-0.6,0.2-0.3,0.4
	c3.7,3.4,8.7,5.4,14.2,5.4c3.9,0,8.5-1.2,11.6-3.6C34.1,12.4,33.6,11.8,33.1,12z"/>
<path class="st6" d="M36.2,10.2c-0.3-0.4-3.3-0.8-5.1,0.5c-0.3,0.2-0.2,0.5,0.1,0.4c1-0.1,3.3-0.4,3.7,0.1c0.4,0.5-0.4,2.6-0.8,3.6
	c-0.1,0.3,0.1,0.4,0.4,0.2C36.1,13.6,36.5,10.7,36.2,10.2z"/>
<path class="st0" d="M63.1,8.3c-1,0.1-1.8-0.2-2.4-0.9v-5c0.7-0.6,1.4-1,2.2-1c1.6,0,3.1,1,3.1,3.4C66,6.8,64.9,8.1,63.1,8.3z
	 M62.7,0.2c-0.8,0-1.7,0.5-2.1,1.1l-0.2-1h-1.1v12.6h1.3v-4c0.7,0.5,1.5,0.6,2.3,0.6c2.3,0,4.3-1.9,4.3-4.6
	C67.3,2,65.6,0.1,62.7,0.2z"/>
<path class="st0" d="M75.7,7.3c-0.6,0.7-1.6,1.2-2.5,1.2c-1.9,0-2.8-0.9-2.8-2c0-1.2,1-2,3-2.1c0.8,0,1.6,0.2,2.3,0.7V7.3z M73.1,0
	c-1.1,0-2.2,0.3-3.4,1.1l0.6,1c0.8-0.5,1.8-0.9,2.8-0.9c1.4,0,2.6,0.5,2.6,2.3V4c-0.7-0.4-1.6-0.7-2.4-0.7c-2.8,0-4.3,1.4-4.3,3.2
	c0,1.8,1.3,3.1,4.1,3.1c0.9,0,1.9-0.4,2.5-1l0.2,0.8H77V3.6C77,1,75.2,0,73.1,0z"/>
<path class="st0" d="M85.8,0.3L83,7.9l-3-7.6h-1.5l3.7,9.2l-0.5,1.3c-0.2,0.6-0.7,1-1.7,0.9v1.2c1.3,0.1,2.5-0.2,3.1-1.6l4.2-10.9
	H85.8z"/>
<path class="st0" d="M42.1,7.9c-1.3,0-1.3-2.2-1.3-3.3s0.1-2.7,1.3-2.7c0.5,0,0.9,0.2,1.1,0.8c0.2,0.7,0.3,1.6,0.3,2.3
	C43.5,6,43.4,7.9,42.1,7.9z M42.1,0.1c-2.4,0-3.8,2.1-3.8,4.8c0,2.7,1.3,4.8,3.8,4.8c2.3,0,3.8-2.1,3.8-4.7
	C45.9,2.2,44.6,0.1,42.1,0.1z"/>
</svg>
