<?xml version="1.0" encoding="utf-8"?>
<!-- Generator: Adobe Illustrator 22.0.1, SVG Export Plug-In . SVG Version: 6.00 Build 0)  -->
<svg version="1.1" id="Ebene_1" xmlns="http://www.w3.org/2000/svg" xmlns:xlink="http://www.w3.org/1999/xlink" x="0px" y="0px"
	 viewBox="0 0 91.5 37.6" style="enable-background:new 0 0 91.5 37.6;" xml:space="preserve">
<style type="text/css">
	.st0{fill:#FFFFFF;}
	.st1{fill:#179BD7;}
	.st2{fill:#222D65;}
	.st3{fill:#253B80;}
	.st4{fill:#EE7F00;}
	.st5{fill:#D8D8D8;}
	.st6{fill:#FF9900;}
	.st7{fill:#FAA61A;}
	.st8{fill:#F79410;}
	.st9{fill:#FF5F00;}
	.st10{fill:#EB001B;}
	.st11{fill:#F79E1B;}
	.st12{fill:#FF6600;}
	.st13{fill:#E0B646;}
	.st14{fill:#E40520;}
	.st15{fill-rule:evenodd;clip-rule:evenodd;fill:#E0B646;}
</style>
<polygon class="st0" points="37,17.8 34.4,17.8 34.4,16 41.9,16 41.9,17.8 39.2,17.8 39.2,25.7 37,25.7 "/>
<path class="st0" d="M44.9,20.2h0.9c1.1,0,1.7-0.5,1.7-1.4c0-0.9-0.6-1.3-1.6-1.4c-0.5,0-0.8,0-1,0.1V20.2z M42.7,16.1
	c0.7-0.1,1.8-0.2,2.9-0.2c1.5,0,2.5,0.2,3.1,0.8c0.6,0.5,0.9,1.1,0.9,2c0,1.2-0.9,2.1-1.7,2.4v0c0.7,0.3,1,0.9,1.3,1.8
	c0.3,1.1,0.6,2.4,0.8,2.7h-2.2c-0.2-0.3-0.4-1.1-0.7-2.3c-0.3-1.2-0.7-1.5-1.6-1.5h-0.7v3.8h-2.2V16.1z"/>
<path class="st0" d="M53.2,16v5.6c0,1.7,0.6,2.5,1.8,2.5s1.8-0.8,1.8-2.5V16h2.2v5.4c0,3-1.5,4.4-4,4.4c-2.5,0-3.9-1.4-3.9-4.5V16
	H53.2z"/>
<path class="st0" d="M60.5,23.4c0.6,0.3,1.5,0.6,2.4,0.6c1,0,1.5-0.4,1.5-1c0-0.6-0.5-0.9-1.6-1.4c-1.6-0.6-2.7-1.5-2.7-2.9
	c0-1.6,1.4-2.9,3.7-2.9c1.1,0,1.9,0.2,2.5,0.5l-0.5,1.8c-0.4-0.2-1.1-0.5-2-0.5c-0.9,0-1.4,0.4-1.4,0.9c0,0.6,0.5,0.9,1.8,1.4
	c1.7,0.6,2.5,1.5,2.5,2.9c0,1.6-1.3,3-3.9,3c-1.1,0-2.2-0.3-2.7-0.6L60.5,23.4z"/>
<polygon class="st0" points="69.7,17.8 67.1,17.8 67.1,16 74.6,16 74.6,17.8 71.9,17.8 71.9,25.7 69.7,25.7 "/>
<polygon class="st0" points="81.2,21.5 77.6,21.5 77.6,23.8 81.6,23.8 81.6,25.7 75.4,25.7 75.4,16 81.4,16 81.4,17.8 77.6,17.8 
	77.6,19.8 81.2,19.8 "/>
<path class="st0" d="M85.2,24c0.2,0,0.5,0,0.8,0c2,0,3.3-1.1,3.3-3.4c0-2-1.2-3.1-3.1-3.1c-0.5,0-0.8,0-1,0.1V24z M83,16.1
	c0.8-0.1,1.9-0.2,3-0.2c1.8,0,3,0.3,4,1c1,0.8,1.6,2,1.6,3.7c0,1.9-0.7,3.1-1.6,3.9c-1,0.9-2.6,1.3-4.5,1.3c-1.1,0-2-0.1-2.5-0.2
	V16.1z"/>
<path class="st0" d="M15.6,25.7c-5.5,0-10-4.5-10-10s4.5-10,10-10s10,4.5,10,10S21.1,25.7,15.6,25.7z M15.8,0C7.1,0,0,7.1,0,15.8
	c0,8.7,7.1,15.8,15.8,15.8c8.7,0,15.8-7.1,15.8-15.8C31.6,7.1,24.5,0,15.8,0z"/>
<path class="st0" d="M18.4,11.2c0-0.7-0.4-1.3-1.2-1.3c-2.3,0-3.4,4.4-3.9,6.1C15.5,15.4,18.4,13.7,18.4,11.2z M20,18.9
	c-1.5,2.1-3.4,4.1-6.2,4.1c-2.9,0-4.5-1.8-4.5-4.7c0-4.7,3.4-9.3,8.3-9.3c1.6,0,3.8,0.7,3.8,2.7c0,3.5-5.6,4.7-8.3,5.4
	C13,17.7,13,18.3,13,18.9c0,1.2,0.7,2.4,2,2.4c1.8,0,3.2-1.7,4.2-3L20,18.9z"/>
<path class="st0" d="M34.7,36.5c0.5,0.3,1.2,0.6,2,0.6c1.3,0,2.1-0.8,2.1-1.9c0-1-0.5-1.6-1.8-2.1c-1.5-0.5-2.3-1.2-2.3-2.5
	c0-1.3,1.1-2.3,2.6-2.3c0.8,0,1.5,0.2,1.8,0.4l-0.3,0.5c-0.3-0.2-0.8-0.4-1.6-0.4c-1.5,0-1.9,0.9-1.9,1.6c0,1,0.6,1.5,1.9,2
	c1.5,0.6,2.2,1.3,2.2,2.6c0,1.3-0.9,2.5-2.8,2.5c-0.8,0-1.7-0.3-2.1-0.6L34.7,36.5z"/>
<polygon class="st0" points="42.1,28.6 42.1,32.5 47,32.5 47,28.6 47.6,28.6 47.6,37.5 47,37.5 47,33 42.1,33 42.1,37.5 41.4,37.5 
	41.4,28.6 "/>
<path class="st0" d="M50.1,33.1c0,2,1.2,4,3.3,4c2.1,0,3.3-1.9,3.3-4.1c0-1.9-1-4-3.3-4C51.2,28.9,50.1,31,50.1,33.1z M57.4,32.9
	c0,3.2-1.9,4.7-4,4.7c-2.2,0-3.9-1.7-3.9-4.5c0-2.9,1.8-4.7,4-4.7C55.7,28.4,57.4,30.1,57.4,32.9z"/>
<path class="st0" d="M59.8,33.1c0.3,0.1,0.7,0.1,1.1,0.1c1.6,0,2.6-0.8,2.6-2.2c0-1.4-1-2-2.4-2c-0.6,0-1,0.1-1.3,0.1V33.1z
	 M59.2,28.7c0.5-0.1,1.1-0.2,1.9-0.2c1.1,0,1.9,0.3,2.4,0.8c0.4,0.4,0.7,1,0.7,1.7c0,0.8-0.2,1.3-0.6,1.8c-0.6,0.7-1.5,1-2.6,1
	c-0.4,0-0.8,0-1.1-0.1v3.8h-0.6V28.7z"/>
<path class="st0" d="M65.8,36.5c0.5,0.3,1.2,0.6,2,0.6c1.3,0,2.1-0.8,2.1-1.9c0-1-0.5-1.6-1.8-2.1c-1.5-0.5-2.3-1.2-2.3-2.5
	c0-1.3,1.1-2.3,2.6-2.3c0.8,0,1.5,0.2,1.8,0.4l-0.3,0.5c-0.3-0.2-0.8-0.4-1.6-0.4c-1.5,0-1.9,0.9-1.9,1.6c0,1,0.6,1.5,1.9,2
	c1.5,0.6,2.2,1.3,2.2,2.6c0,1.3-0.9,2.5-2.8,2.5c-0.8,0-1.7-0.3-2.1-0.6L65.8,36.5z"/>
</svg>
