<svg id="Ebene_1" data-name="Ebene 1" xmlns="http://www.w3.org/2000/svg" viewBox="0 0 48 48">
  <defs>
    <style>
      .cls-1, .cls-3 {
        fill: #e0b646;
      }

      .cls-2 {
        fill: #e40520;
      }

      .cls-3 {
        fill-rule: evenodd;
      }
    </style>
  </defs>
  <title>mgc_icons</title>
  <circle class="cls-1" cx="24" cy="24" r="24"/>
  <path d="M8.4,24A15.8,15.8,0,1,1,24.2,39.8,15.8,15.8,0,0,1,8.4,24"/>
  <path d="M24,1.7A22.3,22.3,0,1,0,46.3,24,22.3,22.3,0,0,0,24,1.7Zm0,45.1A22.8,22.8,0,1,1,46.8,24,22.8,22.8,0,0,1,24,46.8Z"/>
  <path d="M4.3,19.1l3,1.4V21l-1.5.3H5.1l.5.2,1.4.7v.5l-3.2.6v-.7l1.7-.2h.5l-.5-.2-1.3-.7V21l1.4-.3h.5l-.5-.2-1.6-.7Z"/>
  <polygon points="7.8 17 8.3 17.2 7.6 19.3 4.7 18.3 5.4 16.2 5.9 16.4 5.4 17.9 6 18.1 6.4 16.9 6.9 17.1 6.5 18.3 7.2 18.5 7.8 17"/>
  <path d="M8.7,15.4a.6.6,0,0,0-.2-.7c-.2-.1-.4,0-.6.2l-.3.6.8.4Zm-1.3-.6a.4.4,0,0,0-.1-.6c-.1-.1-.4,0-.5.3l-.2.4.6.4Zm-1-.7c.3-.5.8-.7,1.2-.4a.7.7,0,0,1,.3.6,1,1,0,0,1,.9-.2.9.9,0,0,1,.3,1.4l-.6,1.1L5.8,15.1Z"/>
  <polygon points="10.8 12.2 11.2 12.5 9.9 14.3 7.5 12.4 8.8 10.7 9.3 11.1 8.3 12.3 8.8 12.7 9.6 11.7 10 12 9.2 13 9.8 13.4 10.8 12.2"/>
  <path d="M11,10.6l.4-.4a.6.6,0,0,0,.1-.7.5.5,0,0,0-.7,0l-.4.4Zm1.9.4-1.2-.4h0l-.4.3.8.7-.5.4L9.5,9.9l.8-.7a1.1,1.1,0,0,1,1.6-.1.9.9,0,0,1,.2,1.1l1.3.3Z"/>
  <path d="M15.4,6.7a1,1,0,0,0-.9.1.9.9,0,0,0-.3,1.3.9.9,0,0,0,1.3.4,1,1,0,0,0,.5-.8h.6a1.8,1.8,0,0,1-.8,1.5,1.6,1.6,0,0,1-2.2-.6,1.6,1.6,0,0,1,.6-2.2,1.5,1.5,0,0,1,1.6,0Z"/>
  <polygon points="19.2 6.9 19.4 7.4 17.3 8.2 16.3 5.3 18.3 4.5 18.5 5.1 17 5.6 17.3 6.2 18.4 5.8 18.6 6.3 17.5 6.7 17.7 7.4 19.2 6.9"/>
  <path d="M20.2,5.6h.5c.4-.1.5-.3.4-.5s-.2-.5-.5-.4h-.5ZM21.6,7l-.8-.9h-.5l.2,1.1h-.6l-.6-3,1.1-.2a1.1,1.1,0,0,1,1.4.8,1.3,1.3,0,0,1-.4,1l.9,1Z"/>
  <polygon points="24.8 3.7 24.8 4.3 23.9 4.3 23.9 6.8 23.3 6.8 23.2 4.3 22.3 4.3 22.3 3.8 24.8 3.7"/>
  <rect x="24.1" y="5" width="3.1" height="0.61" transform="translate(18.4 30.5) rotate(-85.5)"/>
  <polygon points="27.6 4.6 27.4 5.3 28.6 5.5 28.5 6.1 27.3 5.9 27.1 7 26.5 6.9 27.1 3.9 29.2 4.3 29.1 4.8 27.6 4.6"/>
  <rect x="28.2" y="5.8" width="3.1" height="0.61" transform="translate(15.1 32.7) rotate(-72.7)"/>
  <polygon points="32.4 8.2 32.2 8.7 30.2 7.8 31.4 5 33.4 5.9 33.2 6.4 31.8 5.8 31.5 6.4 32.6 6.9 32.4 7.4 31.3 6.9 31 7.6 32.4 8.2"/>
  <path d="M34.1,9.3A1,1,0,0,0,35.4,9a.9.9,0,0,0-.2-1.3l-.6-.4L33.5,8.9Zm1.4-2.1a1.5,1.5,0,0,1,.4,2.2,1.5,1.5,0,0,1-2.1.3L32.6,9l1.8-2.6Z"/>
  <path d="M38.8,11.3a.5.5,0,0,0-.1-.7c-.2-.3-.4-.3-.5-.2s0,.5.1.9.4,1,0,1.4a1.2,1.2,0,0,1-1.5-.3,1.2,1.2,0,0,1-.2-1.5l.5.3c-.1.3-.2.6.1.9a.5.5,0,0,0,.6.1c.2-.2,0-.6-.2-1s-.3-.8.1-1.2a1.1,1.1,0,0,1,1.4.2,1.2,1.2,0,0,1,.2,1.4Z"/>
  <polygon points="41.6 13.6 41.2 14 40.6 13.2 38.6 14.6 38.2 14.1 40.3 12.7 39.8 11.9 40.2 11.5 41.6 13.6"/>
  <path d="M40.3,16.6a1,1,0,1,0,1.8-.8,1,1,0,0,0-1.3-.5.9.9,0,0,0-.5,1.3m2.4-1.1a1.6,1.6,0,1,1-2.2-.8,1.7,1.7,0,0,1,2.2.8"/>
  <path d="M42.3,18.8v.6a.4.4,0,0,0,.6.3.3.3,0,0,0,.3-.5v-.6ZM41,20.3l.9-.9h0l-.2-.4-1,.2v-.5l3-.8.2,1c.2.8-.1,1.3-.7,1.4s-.7,0-1-.3l-.9,1Z"/>
  <polygon points="42 23.5 41.4 23.6 41.2 21.4 44.3 21.1 44.5 23.2 43.9 23.3 43.8 21.8 43.1 21.8 43.2 23 42.7 23.1 42.6 21.9 41.8 21.9 42 23.5"/>
  <path class="cls-2" d="M24.4,10.3v-.2h-.8v.2Zm-2,7h1.2v-.3l-1-.2Zm1.7-.1h1.2l-.2-.5h-1Zm1,4.7h0Zm1.5,0,.3-.2-1.2-3.2a3.9,3.9,0,0,1-1.6.2v1a1.2,1.2,0,0,1,.8,1.1v.3Zm-4.7.1,1.2-.2c0-.1-.1-.1-.2-.2Zm-1.2,0,2-.9a.4.4,0,0,1-.1-.3,1.2,1.2,0,0,1,1-1.1v-1a4.7,4.7,0,0,1-1.7-.2Zm5.5.3h0Zm1.3,1.5a1.3,1.3,0,0,1-1.2-1H20.4l-.4,1h-.6l2-5.4c-.4-.1-.5-.3-.5-.4s.3-.4.9-.6l.3-.9A3.7,3.7,0,0,1,20,13.6v-.3h-.2a.8.8,0,0,1,.1-.7H20c.4-1.9,2.3-2,3.1-2.1v-.2h0a.3.3,0,0,1-.3-.3c0-.2.2-.3.4-.3H25c.2,0,.3.2.3.4l-.2.3h0a.4.4,0,0,1-.1.3q2.5.3,3,2.1h0c.1,0,.2,0,.2.2s.1.5-.1.6H28v.4a4.2,4.2,0,0,1-2.3,2.9l.3.9c.5.1.8.2.8.5s-.2.3-.5.4l1.1,3.1h.1a1.2,1.2,0,0,1,1.2,1.2,1.3,1.3,0,0,1-1.2,1.1"/>
  <path class="cls-1" d="M20.9,21.8,22,18.7h1.5v.8a1.2,1.2,0,0,0-.9,1.2V21Zm3.4-3h1.4l1,3h-.1L25,21h0a1.2,1.2,0,0,0-.8-1.2Zm0-1.8H25l.2.3h-.9Zm-1.7.2v-.4l.8.2h-.9m1.1-7h0m.3-.9h-.9a.4.4,0,0,0-.4.4c0,.2,0,.3.2.4h0a3.1,3.1,0,0,0-3.1,2.1h-.2c0,.2-.2.6,0,.8h.2v.3A4.3,4.3,0,0,0,22,16.5l-.3.8q-.9.3-.9.6a.5.5,0,0,0,.5.5l-1.9,5.2v.3h.8v-.2l.3-.8h5.8a1.2,1.2,0,0,0,1.2,1,1.3,1.3,0,0,0,1.3-1.2,1.3,1.3,0,0,0-1.3-1.3h0l-1.1-3c.3-.1.4-.3.4-.4s-.2-.5-.7-.7l-.3-.7A4.2,4.2,0,0,0,28,13.7v-.4a.4.4,0,0,0,.2-.6c0-.2,0-.4-.2-.4s-1.3-1.9-2.9-2v-.2a.5.5,0,0,0,.2-.4.4.4,0,0,0-.4-.4H24m2.2,12.9h0M23.7,22h2.1l-.4-.2-1.7.3m-2.6.2,2.4-.4a.7.7,0,0,1-.5-.4l-1.9.8m3.4-.5.5-.2h-.3c0,.1-.2.1-.2.3m-4,.5,2.3-1v-.4a1.1,1.1,0,0,1,.9-1.1V18.6l-1.8-.2-1.4,3.8m6.1-.2.4-.3-1.2-3.3-1.7.3v1.1a1.2,1.2,0,0,1,.8,1.1c0,.1,0,.2-.1.2l1.8.9m-1.2-4.6-.2-.8a2.5,2.5,0,0,1-1.2.2v.5h1.4m-3.1,0h1.4v-.5l-1.1-.2-.3.8m2.2-7v-.3h-1v.3h1m-.5-1h.9l.3.2a.3.3,0,0,1-.3.3h0c0,.1,0,.3-.1.3s2.6.5,3,2.1h.1c.1,0,.2.5,0,.6h-.1v.4a4,4,0,0,1-2.3,2.9l.4,1c.4.1.7.2.7.4s-.1.2-.4.4l1.1,3.2h.2a1.1,1.1,0,0,1,1.1,1.1,1,1,0,0,1-1.1,1,.9.9,0,0,1-1-1H20.4l-.4,1h-.4l2-5.3c-.3-.1-.5-.2-.5-.4s.3-.3.8-.4l.4-1.1a4.2,4.2,0,0,1-2.2-2.8v-.5h-.3c-.1-.1,0-.6.1-.6h.2c.3-1.8,1.9-2,3.1-2.1s-.1-.2-.1-.3h0a.2.2,0,0,1-.2-.2.3.3,0,0,1,.3-.3H24"/>
  <path class="cls-1" d="M14,19.9h0Zm.1-.8h0Zm-.1.1Zm-.1,0h0Zm.1.2h0Zm-.1.2h0Zm0,0h0Zm-.1-.4h0Zm.1.4h0v.2h0Zm-.1-.7h0Zm-.1,1.4h0Zm-.4.1Zm.4-.7h0Zm-.6.6h0Zm-.1-.1Zm0-.1h0Zm0,.1Zm-.3.4h0Z"/>
  <path class="cls-1" d="M14.8,18.7h0Zm-.2.5Z"/>
  <path class="cls-1" d="M15.9,19.4h0Zm-.1.1h0Zm0-.1Zm-.6.4Zm.6.4h0Z"/>
  <path class="cls-1" d="M17.1,19.6h0Zm-.1,0h0Zm-.1-.2h0Zm-.1.3h0Z"/>
  <path class="cls-1" d="M18.1,19.6h0Zm0-.2Zm-.1-.1h0Zm-.3.4Zm-.2,0h0Zm0,.2Zm0,.1Zm-.1-.2h0Zm.5-.6h.6v.2h-.6Z"/>
  <path class="cls-1" d="M30.5,19.3Zm0-.1h0Zm0,0Zm-.1.2Zm-.4.9h.5v.2H30Z"/>
  <path class="cls-1" d="M31.8,19.4Zm-.1,0Zm-.1.1h0Zm-.1.2h0Zm-.3-.2h0Zm0-.3Zm-.1.2Zm.3.4Z"/>
  <path class="cls-1" d="M32.9,19.6Zm-.1,0Zm-.1.1h0Zm-.4-.3Zm-.2.6Zm.3-1.2h.5V20h-.5Z"/>
  <path class="cls-1" d="M34.2,19.3Zm0-.3h0Zm0,0Zm-.1.3h0Zm-.2.3h0Zm-.4.5Zm-.1-.1h0Zm0,0Zm-.1,0h0Zm0,.1h0Zm.3-.1h.1L34,19h-.2v.2h-.1Z"/>
  <path d="M22.6,44.2l-.5-.2h0c0-.1-.1-.2-.2-.3v-.3h.4l.3.8h0m-.1.1h0m-.9-.3h-.5Zm-.2-.7h.4v.3c-.1,0-.2.1-.2.3h0l-.6.2Zm.1-.5h0Zm.5-1.6Zm0,2.9h0Zm.2,0h0Zm.1-1.1h-.1Zm.5,1.1h-.1l-.3-.9c.1,0,.2,0,.2-.1h-.2v-.2a1.1,1.1,0,0,0,.6-.8h0c.1,0,0-.2,0-.2h0c-.1-.4-.5-.4-.7-.5h-.5a.7.7,0,0,0-.8.5h0c-.1,0-.1.2,0,.2h0a1,1,0,0,0,.5.7V43c-.1,0-.2,0-.2.1s0,.1.2.1l-.6,1.3h.2v-.2h1.5a.2.2,0,0,0,.2.2c.2,0,.3-.1.3-.2l-.2-.2"/>
  <path d="M26.6,44.2l-.4-.2h0c0-.1-.1-.2-.2-.3v-.3h.4l.3.8a.1.1,0,0,1-.1.1m0,.1h0m-.9-.3h-.4Zm-.2-.7h.4v.3c-.1,0-.2.1-.2.3h0l-.6.2Zm.1-.5h0Zm.5-1.6Zm0,2.9h0Zm.2,0h0Zm0-1.1h0Zm.6,1.1h-.1l-.3-.9c.1,0,.1,0,.1-.1a.1.1,0,0,0-.1-.1v-.2A1.4,1.4,0,0,0,27,42h0v-.2h0c-.1-.4-.5-.4-.8-.5h.1c0-.1,0-.1-.1-.1h-.4a.1.1,0,0,0-.1.1h.1a.7.7,0,0,0-.8.5h0c-.1,0-.1.2,0,.2h0a1,1,0,0,0,.6.7l-.2.3c-.1,0-.2,0-.2.1h.2l-.5,1.3H25v-.2h1.5c0,.1.1.2.3.2a.2.2,0,1,0,0-.4"/>
  <path d="M34.4,41.7l-.4-.2h0a.2.2,0,0,0-.2-.2v-.3h.4l.3.9h-.1m0,.1h0m-.9-.2H33Zm-.2-.8h.4v.3c-.2,0-.2.1-.2.3h0l-.6.2Zm.1-.5h0Zm.5-1.6h0Zm0,2.9h0Zm.2,0h0Zm0-1H34Zm.6,1h-.1l-.3-.8h.1c0-.1,0-.1-.1-.1v-.3a.8.8,0,0,0,.6-.7h0a.7.7,0,0,0-.8-.5h0a.1.1,0,0,0,0-.2h-.4a.7.7,0,0,0-.8.5h0a1.2,1.2,0,0,0,.5.8v.2H33c0,.1,0,.1.1.1l-.5,1.4h.1l.2-.3h1.5c0,.2.1.3.2.3a.3.3,0,0,0,.3-.3l-.2-.2"/>
  <path d="M14.8,41.7l-.5-.2h0a.2.2,0,0,0-.2-.2v-.3h.5l.3.9h-.1m-.1.1h0m-.9-.2h-.4Zm-.2-.8H14v.3c-.1,0-.2.1-.2.3h0l-.6.2Zm.2-.5c0,.1.2.1.3.1h-.4Zm.4-1.6h0Zm0,2.9h0Zm.3,0h0Zm0-1h-.1Zm.5,1h0l-.3-.8h.1c0-.1-.1-.1-.2-.1v-.3a.8.8,0,0,0,.6-.7h0c.1,0,0-.1,0-.1h0a.7.7,0,0,0-.7-.5H14a.1.1,0,0,0-.1.1h0a.7.7,0,0,0-.8.5h0c-.1,0-.1.1,0,.1h0a1.4,1.4,0,0,0,.6.8v.2h-.3c0,.1.1.1.2.1L13,42.1h.1v-.3h1.5a.3.3,0,0,0,.3.3c.1,0,.2-.1.2-.3s-.1-.2-.2-.2"/>
  <path d="M30.6,43.2l-.5-.2h0c0-.1,0-.2-.2-.2v-.3h.5l.3.9c0-.1,0,0-.1,0m0,.1h0m-.9-.3v.2h-.6Zm-.3-.7h.5v.3a.3.3,0,0,0-.3.3h0l-.5.2Zm.2-.5h-.1Zm.5-1.6Zm0,2.9h0Zm.2,0h0Zm0-1.1h0Zm.5,1.1h0l-.3-.8c.1-.1.1-.1.1-.2h-.2v-.2a1.3,1.3,0,0,0,.5-.7h0a.1.1,0,0,1,.1-.1h-.1c0-.4-.4-.5-.7-.5h0a.1.1,0,0,0,.1-.1c0-.1,0-.1-.1-.1h-.4c-.1,0-.1,0-.1.1a.1.1,0,0,0,.1.1h0c-.3,0-.7,0-.8.5h0c-.1,0-.1.1,0,.1h0a.9.9,0,0,0,.5.7V42h-.2a.1.1,0,0,0,.1.1l-.5,1.4H29v-.3h1.5c0,.1.1.3.2.3a.3.3,0,0,0,.3-.3c0-.1-.1-.2-.3-.2"/>
  <path d="M18.6,43.2l-.5-.2h0a.2.2,0,0,0-.2-.2v-.3h.5l.3.9c0-.1-.1,0-.1,0m-.1.1h0m-.8-.3v.2h-.6Zm-.3-.7h.5v.3a.3.3,0,0,0-.3.3h0l-.5.2Zm.2-.5c0,.1.1.1.3.1h-.4Zm.4-1.6Zm0,2.9h0Zm.3,0h0Zm0-1.1h-.1Zm.5,1.1h0l-.3-.8c0-.1.1-.1.1-.2h-.2v-.2a1.2,1.2,0,0,0,.6-.7h0c.1,0,0-.1,0-.1h0a.7.7,0,0,0-.7-.5h.1a.1.1,0,0,0-.1-.1h-.5c-.3,0-.7,0-.8.5h0c-.1,0-.1.1,0,.1h0a.8.8,0,0,0,.6.7l-.2.3h0l-.5,1.4h.1v-.3h1.5a.3.3,0,0,0,.3.3c.1,0,.2-.2.2-.3s-.1-.2-.2-.2"/>
  <path d="M40.2,38.8a60.1,60.1,0,0,0-16.1-2.1A59.2,59.2,0,0,0,8,38.8l-3.1-10A80.9,80.9,0,0,1,24.1,26a83.4,83.4,0,0,1,19.3,2.8Z"/>
  <path class="cls-1" d="M24.1,36.4A58.8,58.8,0,0,1,40,38.5L43.2,29a86.1,86.1,0,0,0-19.1-2.7A83.6,83.6,0,0,0,5.2,29l3,9.5A58.1,58.1,0,0,1,24.1,36.4ZM7.8,39.1,4.6,28.7h.2c.1,0,10-2.8,19.3-2.8s19.3,2.8,19.4,2.8h.3L40.3,39.1h-.2a60.7,60.7,0,0,0-16-2.1A59.8,59.8,0,0,0,8.1,39Z"/>
  <path class="cls-1" d="M38.5,28.6a3.1,3.1,0,1,1,3.1,3.1,3.1,3.1,0,0,1-3.1-3.1"/>
  <path d="M38.8,28.6a2.8,2.8,0,1,1,2.8,2.8,2.9,2.9,0,0,1-2.8-2.8"/>
  <path class="cls-3" d="M40.7,29.5l-.4.2h-.1a1.5,1.5,0,0,0,1,.6,3.5,3.5,0,0,1-.5-.8m1.3.8a2.1,2.1,0,0,0,1-.6l-.5-.2a.8.8,0,0,1-.2.4l-.3.4m1-3a2.1,2.1,0,0,0-1-.6,2.2,2.2,0,0,1,.5.8l.5-.2m-1.8-.6a1.5,1.5,0,0,0-.9.6l.4.2c.1-.1.1-.3.3-.4s.1-.2.2-.4m1.1.9a2.4,2.4,0,0,0-.6-.9v1h.6m-.8-.9-.7.9h.7Zm.2,3.6a2.7,2.7,0,0,0,.7-.8l-.7-.2Zm-.2-1h-.7a2.2,2.2,0,0,0,.7.9Zm1-.9a1.3,1.3,0,0,0-.1-.6h-.7v.5Zm-1-.5h-.7c-.1.1-.1.5-.1.6h.8Zm.2.7v.5h.7c.1-.1.1-.4.1-.6Zm-.2,0h-.8c0,.2,0,.5.1.6h.7Zm-1.4,1,.5-.3c0-.2-.1-.5-.1-.7h-.7a2.4,2.4,0,0,0,.3,1m3.3-1h-.6c0,.3-.1.5-.1.7l.5.3a3,3,0,0,0,.2-1m-2.9-.2h0a4.3,4.3,0,0,1,.1-.5h0a.1.1,0,0,0-.1-.1h-.1l-.3-.2a1.6,1.6,0,0,0-.3.9Zm2.9,0a1.2,1.2,0,0,0-.3-.9l-.4.2c-.1,0-.1.1,0,.1v.3a.4.4,0,0,1,.1.3Zm-1.7,2.1h-.4l-1-.4a2.5,2.5,0,0,1-.7-1.2v-.6h0a3,3,0,0,1,.4-1,2.5,2.5,0,0,1,1.2-.7h.6l.6.2a1.8,1.8,0,0,1,1.2,1.5c0,.1.1.1.1.2v.3h0a2.6,2.6,0,0,1-.3.8,1.9,1.9,0,0,1-1.4,1h-.3"/>
  <path d="M33.4,27.4l-.3.3a66.9,66.9,0,0,0-9.1-.8,68.5,68.5,0,0,0-9.3.8,1.3,1.3,0,0,1-.1-.6c0-.2,0-.5.1-.6a55.5,55.5,0,0,1,9.3-.8,67.4,67.4,0,0,1,9.2.7h.2a.1.1,0,0,1,.1.1A.5.5,0,0,1,33.4,27.4Z"/>
  <path class="cls-1" d="M16.8,24.7Zm-.1.2Zm-.5.3h0Zm0-.1h0Zm0,.3Zm0,.1Zm0,.6Zm-.1-.7Zm0,.8Zm0-.1h0Zm-.8,1.2Zm.9-2.6h-.7v.2h-.1v.2h1.8v.2H14.9v-.2h.3v-.2h.6v-.2h.2v.2Z"/>
  <path class="cls-1" d="M18.4,26.3Zm0,.7h0Zm-.1-.3h0Zm0-.3h0Zm0-.4Zm-.1.8h0Zm.1-.7Zm-.2.8h0Zm.5-.9h.5v-.2H17.7v.2h.9Z"/>
  <path class="cls-1" d="M20.7,25.9h0Zm0,.5h0Zm-.2.7Zm-.2,0h0Zm0,.1Zm-.6-.7Zm-.3.4h0Zm1.2.2H21v-.2H19.8v.2h-.2v.2h0v-.2h.1v-.2H21V26h-.4Z"/>
  <path class="cls-1" d="M22.7,25.7Zm-.3-.1h0Zm-.9.8h0Zm0,.1h0Zm.8-1.3h-.6v.2h-.3v-.2h0v-.2h1Z"/>
  <path class="cls-1" d="M23.9,26.3Zm.5.4h-.8v-.2h-.1V26h.9Z"/>
  <path class="cls-1" d="M25.9,24.8h0Zm-.7,1.1h0Zm-.3.8h0Zm-.2.2Zm.9-1.6h-.2V26h-.9v-.2h1.1Z"/>
  <path class="cls-1" d="M27.2,25.7Zm-.3-.1h0Zm-.9.7h0Zm0,.1h0Zm.9-1.2H25.8v-.2h1.1Z"/>
  <path class="cls-1" d="M29.1,25.9h0Zm-.1-.2h0Zm-.1.3Zm-.2.3h0Zm.1.9h-1v.2H28v-.2h1.2V26h-.4Z"/>
  <path class="cls-1" d="M30.2,26Zm-.5.5Zm.9-.1h-.4v.2h-.2v.2h.7Z"/>
  <path class="cls-1" d="M32.7,26.2Zm-.3-.1h-.1v-.2h0Zm-1,.7h0Zm0,0Zm1-1.1h-.9v.2h-.4v-.2h.2v-.2h1Z"/>
  <path class="cls-1" d="M20.2,29.8h0Zm-.4.7h0Zm-.3.7Zm-.2.8Zm-.1.9Zm-1.5-2.1Zm-.1.5h0Zm-.1,3.8h0Zm0-2.9Zm-.1-.2Zm0,.6Zm-.1-1.8h0Zm0,.5h0Zm-.2.7h0Zm0,.9h0Zm-.1,0h0Zm-.1.7h0Zm0,.5h0Zm-.1-.3Zm0,.6h0Zm-.1-.9Zm-.1.2h0Zm0,.4h0Zm-.1.1h0Zm-1-3.7Zm-.2.7h0Zm-.1-.6h0Zm.1,1h0Zm-.2-.2h0Zm0-1h0ZM15,31.8h0Zm.1-.8h0Zm-.1.6h0Zm0-1Zm0,.7Zm-.1,1.1h0Zm0-.4h0Zm0,3h0Zm-.1.2h0Zm0-2.9h0Zm-.1-1.1h.1v-.2h-.1Zm-.1,4.1h0Zm.1-4.6h-.1V31h0Zm-.1.7Zm0,.1h0Zm-.1,2.6h0Zm0,1.4h0Zm-.1-.5h0Zm-.1-1.2Zm0,.1h0Zm2.1,1.2h-.3v.2H13.8V34.4h0v-.8h0v-.9h0v-.7h-.6l-.2.2h-.1l-.2.2h-.5v.4H13V34H11.5v-.5h0v-.5h0v-.2h1.9l.2-.2h.8l.2-.2.2-.2v-.2h1v.2h0v.2h.1l-.2.2h-.2v.3h0v.3h0v.3h-.1v.4h0v1.3H15v.5h.4l.2-.2h.3v-.2l.2-.2v-.3h.1v-.2h0v-.2h0V30.8h.1V30h0v-.3h1.4v.9h-.1v.2h0v.5h-.1v.5h-.1v1.9h.3l.3-.2V34h.1l.2-.3h.2v-.7h0v-.7h0v-.2H19v-.9h0v-.3h0v-.5l.2-.2h1.8V29h0v.2h-.6v.2h-.1v.2h0v.5h-.2v.2h-.1v.2h0v1h0v.4h0v.4h-.3l-.2.2v.2l-.2.2h-.2l-.2.2h-2l-.2-.2Z"/>
  <path class="cls-1" d="M24,33.1h0Zm0-1Zm-.1.8h0Zm0,.4Zm0-.8Zm-.2,1.3h0Zm0-1.1h0Zm0,1h0Zm-.1-.2h0Zm-.1-.5h0Zm0,.4Zm-.1.4h0Zm-1.5-1.5h0Zm1-.6h-.3v.2h-.1v.2h-.1v.2h0v.8h.8v-.8h.1l.3-.2h.3v-.5h0v-.2h-.3Zm-1.5,1Zm-.1,1h0Zm-.1-.8Zm3.4.6H25v-.2l.2-.2v-.2h.4v.3h-.2l-.2.2H23.9l-.2.2-.2.2H21.1l-.2-.2h-.3V32.7h.1v-.3h.1v-.2h.3v-.2h.5L22,31h1.9l.2.2.3.2v.2h.1v.5h.1v.8h-.1v.2h.1Z"/>
  <path class="cls-1" d="M27.8,32.6Zm-.2-.1h0Zm-.2.3h0Zm0,.5Zm-.1.2Zm-.1.2h0Zm-.2.2Zm-.1.2h0Zm.9.2h.4V34h.6l.2-.3h.5v.2H29l-.2.2-.2.2-.3.3H26.7l-.2-.2h-.2V33.3h.1v-.2h.1v-.4h-.1l-.2-.2h-.3l-.2.2v.2l-.2.2h-.5l.2-.3h0v-.2h.4v-.2h0v-.6h.1v-.2h.9v.2h.4l.3.2h.1V32l.2.2h.1v.6h-.1v1.1h0Z"/>
  <path class="cls-1" d="M30.2,32.7h0Zm-.5.9h0Zm-.1.9Zm0-.2ZM32,29.9h.1v.4h-.1v.2h-.1v.2h-.1V32h0v.2l-.2.2h-.1v.3h-.3v.2h-.2v.2H30v.2h.8l.2-.2h.1l.2-.2h.7l-.2.2v.2h-.2l-.2.3h-.3l-.2.2h-.2l-.3.2H29l-.2-.2h-.1v-2h.1v-.3h.1V32l.2-.3H30v-.4h.1v-.3h.2l.2-.2v-.3H32Z"/>
  <path class="cls-1" d="M35.6,32.6Zm-.2.5h0Zm-.2.7h0Zm-.1-.7h0Zm0-.3h0Zm-.2,1h0Zm0-.5h0Zm0,.9Zm-.1-.5v-.2h0Zm-.1.8h0Zm-.1.1Zm-.1.3h0Zm-.1-.7Zm-.1,1.4h0Zm-.1-.8Zm-.2.6Zm-1.1-2.8h0Zm0,.2h0Zm1,.1h-.1l-.2.2H33V34h-.2v.4h.8l.2-.2v-.2l.2-.2h.3v-.2h-.4Zm-1.6,1.5h0Zm0,.2Zm0-.2h0Zm-.1.7Zm0-.8h0Zm-.1-.3Zm-.1.6h0Zm-.1-.2h0Zm-.2.2h0Zm3.2.6h1l.2-.2h.2l.3-.3h.5v.2H34.2L34,36h-.5v-.2h-2V35h0V33.8h.2v-.4h2.6l.2.2v.2h.1l.2-.2v-.4l.2-.2V31l.2-.2h1.2v.2l-.2.2v.3l-.2.2h-.1v.4H36l-.2.2v.2l-.2.2h-.2v.6H35v.2Z"/>
</svg>
