<svg id="Ebene_1" data-name="Ebene 1" xmlns="http://www.w3.org/2000/svg" viewBox="0 0 91.5 37.6">
  <defs>
    <style>
      .cls-1 {
        fill: #fff;
      }
    </style>
  </defs>
  <title>mgc_icons</title>
  <polygon class="cls-1" points="37 17.8 34.4 17.8 34.4 16 41.9 16 41.9 17.8 39.2 17.8 39.2 25.6 37 25.6 37 17.8"/>
  <path class="cls-1" d="M44.9,20.2h.8c1.1,0,1.8-.5,1.8-1.3s-.6-1.4-1.6-1.4h-1Zm-2.2-4.1,2.9-.2a5.4,5.4,0,0,1,3.2.7,2.9,2.9,0,0,1,.9,2.1A2.7,2.7,0,0,1,48,21.1h0a2.4,2.4,0,0,1,1.2,1.8c.4,1.1.6,2.4.8,2.8H47.8a10.7,10.7,0,0,1-.7-2.3c-.2-1.2-.6-1.6-1.5-1.6h-.7v3.9H42.7Z"/>
  <path class="cls-1" d="M53.2,16v5.5c0,1.7.6,2.6,1.7,2.6s1.8-.9,1.8-2.6V16h2.2v5.4c0,3-1.5,4.4-4,4.4S51,24.5,51,21.4V16Z"/>
  <path class="cls-1" d="M60.5,23.4a5.3,5.3,0,0,0,2.4.6c1,0,1.5-.4,1.5-1s-.4-1-1.6-1.4-2.7-1.4-2.7-2.9,1.4-2.9,3.7-2.9a5.5,5.5,0,0,1,2.5.5l-.5,1.8a4.6,4.6,0,0,0-2.1-.5c-.9,0-1.4.4-1.4.9s.6.9,1.8,1.4,2.6,1.5,2.6,2.9-1.3,3-4,3a6,6,0,0,1-2.7-.6Z"/>
  <polygon class="cls-1" points="69.7 17.8 67.1 17.8 67.1 16 74.5 16 74.5 17.8 71.9 17.8 71.9 25.6 69.7 25.6 69.7 17.8"/>
  <polygon class="cls-1" points="81.2 21.5 77.6 21.5 77.6 23.9 81.6 23.9 81.6 25.6 75.4 25.6 75.4 16 81.4 16 81.4 17.8 77.6 17.8 77.6 19.8 81.2 19.8 81.2 21.5"/>
  <path class="cls-1" d="M85.2,24h.7c2,0,3.3-1,3.3-3.4a2.8,2.8,0,0,0-3.1-3.1h-.9ZM83,16.1l2.9-.2a6.2,6.2,0,0,1,4,1,4.5,4.5,0,0,1,1.6,3.7,4.6,4.6,0,0,1-1.6,3.9,6.7,6.7,0,0,1-4.5,1.3H83Z"/>
  <path class="cls-1" d="M15.6,25.7a10,10,0,1,1,10-10A9.9,9.9,0,0,1,15.6,25.7ZM15.8,0A15.8,15.8,0,1,0,31.6,15.8,15.8,15.8,0,0,0,15.8,0Z"/>
  <path class="cls-1" d="M18.4,11.2a1.2,1.2,0,0,0-1.1-1.3c-2.3,0-3.4,4.4-3.9,6.1C15.5,15.4,18.4,13.7,18.4,11.2ZM20,18.9c-1.5,2.1-3.5,4-6.2,4s-4.5-1.8-4.5-4.6c0-4.7,3.4-9.3,8.3-9.3,1.7,0,3.8.6,3.8,2.6,0,3.6-5.5,4.8-8.3,5.5a10.9,10.9,0,0,0-.1,1.8c0,1.2.6,2.3,2,2.3s3.2-1.7,4.2-2.9Z"/>
  <path class="cls-1" d="M34.7,36.5a4.3,4.3,0,0,0,2,.6,2,2,0,0,0,2.2-1.9c0-1-.6-1.6-1.8-2.1s-2.4-1.2-2.4-2.4a2.4,2.4,0,0,1,2.6-2.3,3.4,3.4,0,0,1,1.8.4l-.2.5a4.6,4.6,0,0,0-1.6-.4,1.8,1.8,0,0,0-2,1.7c0,1,.6,1.5,1.9,2s2.3,1.2,2.3,2.6-1,2.4-2.9,2.4a3.5,3.5,0,0,1-2.1-.6Z"/>
  <polygon class="cls-1" points="42.1 28.6 42.1 32.5 47 32.5 47 28.6 47.6 28.6 47.6 37.5 47 37.5 47 33 42.1 33 42.1 37.5 41.4 37.5 41.4 28.6 42.1 28.6"/>
  <path class="cls-1" d="M50.1,33.1c0,2,1.2,4,3.3,4s3.3-1.9,3.3-4.2-1-4-3.3-4S50.1,31,50.1,33.1Zm7.3-.2c0,3.2-2,4.7-4,4.7s-3.9-1.7-3.9-4.5,1.8-4.7,4-4.7S57.4,30.1,57.4,32.9Z"/>
  <path class="cls-1" d="M59.8,33.1H61c1.5,0,2.5-.8,2.5-2.2s-1-2-2.4-2H59.8Zm-.6-4.4,1.9-.2a2.9,2.9,0,0,1,2.4.8,2.2,2.2,0,0,1,.7,1.7,2.9,2.9,0,0,1-.7,1.8,3.5,3.5,0,0,1-2.6,1H59.8v3.8h-.6Z"/>
  <path class="cls-1" d="M65.8,36.5a3.9,3.9,0,0,0,2,.6,1.9,1.9,0,0,0,2.1-1.9c0-1-.5-1.6-1.8-2.1s-2.3-1.2-2.3-2.4a2.4,2.4,0,0,1,2.6-2.3,3.7,3.7,0,0,1,1.8.4l-.3.5a3.4,3.4,0,0,0-1.5-.4,1.8,1.8,0,0,0-2,1.7c0,1,.6,1.5,1.9,2s2.2,1.2,2.2,2.6-.9,2.4-2.8,2.4a3.3,3.3,0,0,1-2.1-.6Z"/>
</svg>
