<?xml version="1.0" encoding="utf-8"?>
<!-- Generator: Adobe Illustrator 22.0.1, SVG Export Plug-In . SVG Version: 6.00 Build 0)  -->
<svg version="1.1" id="Ebene_1" xmlns="http://www.w3.org/2000/svg" xmlns:xlink="http://www.w3.org/1999/xlink" x="0px" y="0px"
	 viewBox="0 0 67.5 16.5" style="enable-background:new 0 0 67.5 16.5;" xml:space="preserve">
<style type="text/css">
	.st0{fill:#FFFFFF;}
	.st1{fill:#179BD7;}
	.st2{fill:#222D65;}
	.st3{fill:#253B80;}
	.st4{fill:#EE7F00;}
	.st5{fill:#D8D8D8;}
	.st6{fill:#FF9900;}
	.st7{fill:#FAA61A;}
	.st8{fill:#F79410;}
	.st9{fill:#FF5F00;}
	.st10{fill:#EB001B;}
	.st11{fill:#F79E1B;}
	.st12{fill:#FF6600;}
	.st13{fill:#E0B646;}
	.st14{fill:#E40520;}
	.st15{fill-rule:evenodd;clip-rule:evenodd;fill:#E0B646;}
</style>
<path class="st0" d="M25.7,7.2c-0.2,1.4-1.2,1.4-2.2,1.4h-0.5l0.4-2.5c0-0.2,0.2-0.3,0.3-0.3h0.3c0.7,0,1.3,0,1.6,0.4
	C25.7,6.4,25.7,6.7,25.7,7.2z M25.2,3.7h-3.7c-0.3,0-0.5,0.2-0.5,0.4l-1.5,9.6c-0.1,0.2,0.1,0.4,0.3,0.4h1.8c0.3,0,0.5-0.2,0.5-0.4
	l0.4-2.6c0.1-0.3,0.3-0.4,0.5-0.4h1.2c2.5,0,3.9-1.2,4.3-3.5c0.2-1,0-1.9-0.5-2.4C27.4,4,26.5,3.7,25.2,3.7z"/>
<path class="st0" d="M33.9,10.6c-0.2,1-1,1.7-2,1.7c-0.5,0-0.9-0.2-1.2-0.5c-0.3-0.3-0.4-0.8-0.3-1.3c0.2-1,1-1.7,2-1.7
	c0.5,0,0.9,0.2,1.2,0.5C33.9,9.7,34,10.1,33.9,10.6z M36.4,7.2h-1.8c-0.2,0-0.3,0.1-0.3,0.3l-0.1,0.5l-0.1-0.2C33.7,7.2,32.9,7,32,7
	c-2,0-3.7,1.5-4,3.6c-0.2,1,0.1,2.1,0.7,2.7c0.5,0.7,1.3,0.9,2.2,0.9c1.6,0,2.5-1,2.5-1l-0.1,0.5c-0.1,0.2,0.1,0.4,0.3,0.4h1.6
	c0.3,0,0.5-0.2,0.5-0.4l1-6.1C36.7,7.3,36.6,7.2,36.4,7.2z"/>
<path class="st0" d="M45.9,7.2h-1.8c-0.2,0-0.3,0.1-0.4,0.2L41.2,11l-1-3.5c-0.1-0.2-0.3-0.4-0.5-0.4h-1.7c-0.2,0-0.4,0.2-0.3,0.4
	l2,5.8L37.8,16c-0.2,0.2,0,0.5,0.3,0.5h1.8c0.2,0,0.3-0.1,0.4-0.2l5.9-8.6C46.3,7.4,46.2,7.2,45.9,7.2z"/>
<path class="st0" d="M52.3,7.2c-0.2,1.4-1.2,1.4-2.2,1.4h-0.5l0.4-2.5c0-0.2,0.2-0.3,0.3-0.3h0.3c0.7,0,1.3,0,1.6,0.4
	C52.3,6.4,52.4,6.7,52.3,7.2z M51.9,3.7h-3.7c-0.3,0-0.5,0.2-0.5,0.4l-1.5,9.6c-0.1,0.2,0.1,0.4,0.3,0.4h1.9c0.2,0,0.3-0.1,0.4-0.3
	l0.4-2.7c0.1-0.3,0.3-0.4,0.5-0.4h1.2c2.5,0,3.9-1.2,4.3-3.5c0.2-1,0-1.9-0.5-2.4C54,4,53.1,3.7,51.9,3.7z"/>
<path class="st0" d="M60.5,10.6c-0.2,1-1,1.7-2,1.7c-0.5,0-0.9-0.2-1.2-0.5c-0.3-0.3-0.4-0.8-0.3-1.3c0.2-1,1-1.7,2-1.7
	c0.5,0,0.9,0.2,1.2,0.5C60.5,9.7,60.6,10.1,60.5,10.6z M63,7.2h-1.8c-0.2,0-0.3,0.1-0.3,0.3l-0.1,0.5l-0.1-0.2
	C60.3,7.2,59.5,7,58.6,7c-2,0-3.7,1.5-4,3.6c-0.2,1,0.1,2.1,0.7,2.7c0.5,0.7,1.3,0.9,2.2,0.9c1.6,0,2.5-1,2.5-1l-0.1,0.5
	c-0.1,0.2,0.1,0.4,0.3,0.4h1.6c0.3,0,0.5-0.2,0.5-0.4l1-6.1C63.4,7.3,63.2,7.2,63,7.2z"/>
<path class="st0" d="M65.1,3.9l-1.5,9.8c-0.1,0.2,0.1,0.4,0.3,0.4h1.5c0.3,0,0.5-0.2,0.5-0.4l1.5-9.6c0.1-0.2-0.1-0.4-0.3-0.4h-1.7
	C65.3,3.7,65.1,3.8,65.1,3.9z"/>
<path class="st0" d="M4,15.9l0.3-1.8H3.6h-3L2.7,0.7c0-0.1,0.1-0.1,0.1-0.1c0.1,0,0.1-0.1,0.1-0.1H8c1.7,0,2.9,0.4,3.5,1.1
	C11.7,2,12,2.3,12,2.7c0.1,0.4,0.1,0.9,0,1.4v0.1v0.4l0.3,0.2c0.2,0.1,0.4,0.3,0.6,0.4c0.3,0.3,0.4,0.7,0.5,1
	c0.1,0.4,0.1,0.9-0.1,1.5C13.2,8.4,13,9,12.7,9.4c-0.3,0.4-0.6,0.8-1,1.1s-0.8,0.5-1.4,0.6c-0.5,0.1-1,0.2-1.7,0.2H8.3
	c-0.3,0-0.5,0.1-0.8,0.3c-0.2,0.2-0.4,0.4-0.4,0.7l-0.1,0.2l-0.5,3.2v0.1c0,0.1,0,0.1-0.1,0.1H6.4C6.4,15.9,4,15.9,4,15.9z"/>
<path class="st1" d="M12.6,4.2c0,0.1,0,0.2,0,0.3c-0.7,3.5-3,4.6-5.9,4.6H5.1c-0.4,0-0.7,0.3-0.7,0.6l-0.8,4.9l-0.2,1.4
	c-0.1,0.2,0.2,0.4,0.4,0.4h2.7c0.3,0,0.6-0.2,0.7-0.5v-0.1l0.5-3.2l0.1-0.2c0.1-0.3,0.3-0.5,0.7-0.5h0.4c2.6,0,4.6-1,5.2-4.1
	c0.3-1.3,0.1-2.3-0.5-3.1C13.1,4.5,12.9,4.3,12.6,4.2z"/>
<path class="st2" d="M11.9,3.9c-0.1-0.1-0.2-0.1-0.3-0.1c-0.1,0-0.2-0.1-0.3-0.1c-0.4-0.1-0.9-0.1-1.3-0.1h-4c-0.1,0-0.2,0-0.3,0.1
	C5.4,3.8,5.3,4,5.2,4.2L4.4,9.6v0.2c0.1-0.4,0.4-0.6,0.7-0.6h1.5c2.9,0,5.2-1.2,5.9-4.6c0-0.2,0-0.3,0-0.3C12.4,4.1,12.2,4,12,4
	C12,3.9,11.9,3.9,11.9,3.9z"/>
<path class="st3" d="M5.2,4.2C5.3,4,5.4,3.8,5.6,3.7c0.1-0.1,0.2-0.1,0.3-0.1h4c0.5,0,0.9,0.1,1.3,0.1c0.1,0,0.2,0.1,0.3,0.1
	c0.1,0,0.2,0.1,0.3,0.1C12,3.9,12,4,12.1,4c0.2,0.1,0.4,0.2,0.5,0.2c0.2-1.3,0-2.1-0.7-2.9C11.1,0.4,9.8,0,8,0H2.8
	C2.5,0,2.2,0.3,2.1,0.6L0,14.1c-0.1,0.3,0.2,0.5,0.4,0.5h3.2l0.8-5l0.2-0.9L5.2,4.2z"/>
</svg>
