<svg id="Ebene_1" data-name="Ebene 1" xmlns="http://www.w3.org/2000/svg" viewBox="0 0 20.9 16.3">
  <defs>
    <style>
      .cls-1 {
        fill: #fff;
      }

      .cls-2 {
        fill: #f79410;
      }

      .cls-3 {
        fill: #ff5f00;
      }

      .cls-4 {
        fill: #eb001b;
      }

      .cls-5 {
        fill: #f79e1b;
      }
    </style>
  </defs>
  <title>mgc_icons</title>
  <path class="cls-1" d="M3.8,16.2V15.1c0-.4-.3-.6-.7-.6a.7.7,0,0,0-.6.2l-.6-.2a.6.6,0,0,0-.5.2v-.2H1.1v1.7h.3v-.9a.5.5,0,0,1,.4-.5c.3,0,.4.2.4.5v.9h.4v-.9c0-.3.1-.5.4-.5a.5.5,0,0,1,.4.5v.9Zm5.5-1.7H8.7V14H8.3v.5H8v.4h.3v.7c0,.5.2.7.6.7l.5-.2v-.3H8.9c-.2,0-.2-.1-.2-.3v-.7h.6Zm3.2,0c-.2,0-.4,0-.4.2v-.2h-.4v1.7h.4v-.9c0-.3.1-.5.3-.5h.3v-.4h-.3m-4.8.2a.8.8,0,0,0-.7-.2c-.4,0-.7.2-.7.5s.2.5.6.5h.4c0,.1-.1.2-.4.2H6.4l-.2.3.7.2c.5,0,.8-.3.8-.6s-.2-.5-.6-.5H6.6l.4-.2h.5Zm10-.2c-.2,0-.4,0-.5.2v-.2h-.3v1.7h.3v-.9a.5.5,0,0,1,.4-.5h.2l.2-.4h-.3m-4.8.9a.9.9,0,0,0,.9.9l.6-.2-.2-.3h-.4a.5.5,0,0,1,0-1h.4l.2-.3c-.2-.2-.3-.2-.6-.2a.9.9,0,0,0-.9.9m3.5,0v-.9H16v.2l-.5-.2a.8.8,0,0,0-.9.9.9.9,0,0,0,.9.9A.5.5,0,0,0,16,16v.2h.4Zm-1.4,0a.5.5,0,1,1,1,0,.5.5,0,0,1-.5.5.5.5,0,0,1-.5-.5m-4.5-.9a.8.8,0,0,0-.9.9.9.9,0,0,0,.9.9.9.9,0,0,0,.7-.3l-.2-.3-.5.2a.4.4,0,0,1-.4-.4h1.2c0-.6-.3-.9-.8-.9m0,.3a.4.4,0,0,1,.4.4H10c.1-.2.2-.4.5-.4m9.3.6V13.8h-.4v.9a.6.6,0,0,0-.5-.2.8.8,0,0,0-.8.9.8.8,0,0,0,.8.9.5.5,0,0,0,.5-.3v.2h.4Zm-1.3,0a.5.5,0,1,1,1,0,.5.5,0,0,1-.5.5c-.4,0-.5-.2-.5-.5m-12.6,0v-.9H5.5v.2l-.6-.2c-.5,0-.8.3-.8.9a.8.8,0,0,0,.8.9.7.7,0,0,0,.6-.3v.2h.3v-.8Zm-1.4,0a.6.6,0,0,1,.5-.6.6.6,0,0,1,.5.6.5.5,0,0,1-.5.5.5.5,0,0,1-.5-.5m16,.6h-.2a.1.1,0,0,1,.1-.1h.1m0,.3h.1c-.1,0-.1,0-.1-.1h0m0-.2Zm-.1,0Z"/>
  <path class="cls-2" d="M20.3,10.5v-.2h-.1v.2Zm.4,0v-.2h-.4v.2h.1v0h.2Z"/>
  <rect class="cls-3" x="7.6" y="1.5" width="5.6" height="10.14"/>
  <path class="cls-4" d="M8,6.5a6.6,6.6,0,0,1,2.4-5.1A6.9,6.9,0,0,0,6.4,0,6.5,6.5,0,0,0,0,6.5a6.4,6.4,0,0,0,6.4,6.4,6.1,6.1,0,0,0,4-1.4A6.1,6.1,0,0,1,8,6.5"/>
  <path class="cls-5" d="M20.9,6.5A6.5,6.5,0,0,1,14.4,13a6.9,6.9,0,0,1-4-1.4,6.2,6.2,0,0,0,2.5-5.1,6.2,6.2,0,0,0-2.5-5.1,6.3,6.3,0,0,1,4-1.4,6.7,6.7,0,0,1,6.5,6.5"/>
</svg>
