<?xml version="1.0" encoding="utf-8"?>
<!-- Generator: Adobe Illustrator 22.0.1, SVG Export Plug-In . SVG Version: 6.00 Build 0)  -->
<svg version="1.1" id="Ebene_1" xmlns="http://www.w3.org/2000/svg" xmlns:xlink="http://www.w3.org/1999/xlink" x="0px" y="0px"
	 viewBox="0 0 20.9 16.3" style="enable-background:new 0 0 20.9 16.3;" xml:space="preserve">
<style type="text/css">
	.st0{fill:#FFFFFF;}
	.st1{fill:#179BD7;}
	.st2{fill:#222D65;}
	.st3{fill:#253B80;}
	.st4{fill:#EE7F00;}
	.st5{fill:#D8D8D8;}
	.st6{fill:#FF9900;}
	.st7{fill:#FAA61A;}
	.st8{fill:#F79410;}
	.st9{fill:#FF5F00;}
	.st10{fill:#EB001B;}
	.st11{fill:#F79E1B;}
	.st12{fill:#FF6600;}
	.st13{fill:#E0B646;}
	.st14{fill:#E40520;}
	.st15{fill-rule:evenodd;clip-rule:evenodd;fill:#E0B646;}
</style>
<path class="st0" d="M3.8,16.2v-1.1c0-0.4-0.2-0.7-0.7-0.7c-0.2,0-0.5,0.1-0.6,0.3c-0.1-0.2-0.3-0.3-0.6-0.3c-0.2,0-0.4,0-0.5,0.2
	v-0.2H1.1v1.7h0.4v-0.9c0-0.3,0.2-0.5,0.4-0.5c0.2,0,0.4,0.2,0.4,0.5v0.9h0.4v-0.9c0-0.3,0.2-0.5,0.4-0.5c0.2,0,0.4,0.2,0.4,0.5v0.9
	H3.8z M9.3,14.5H8.7V14H8.3v0.5H8v0.4h0.3v0.8c0,0.4,0.2,0.6,0.6,0.6c0.2,0,0.3,0,0.5-0.1l-0.1-0.3c-0.1,0.1-0.2,0.1-0.3,0.1
	c-0.2,0-0.2-0.1-0.2-0.3v-0.7h0.6V14.5z M12.5,14.5c-0.2,0-0.4,0.1-0.5,0.2v-0.2h-0.4v1.7h0.4v-0.9c0-0.3,0.1-0.5,0.4-0.5
	c0.1,0,0.2,0,0.2,0l0.1-0.4C12.7,14.5,12.6,14.5,12.5,14.5 M7.7,14.7c-0.2-0.1-0.4-0.2-0.7-0.2c-0.5,0-0.7,0.2-0.7,0.5
	c0,0.3,0.2,0.5,0.6,0.5l0.2,0c0.2,0,0.3,0.1,0.3,0.2c0,0.1-0.1,0.2-0.4,0.2c-0.2,0-0.5-0.1-0.6-0.2l-0.2,0.3
	c0.2,0.2,0.5,0.2,0.7,0.2c0.5,0,0.8-0.2,0.8-0.6c0-0.3-0.2-0.5-0.6-0.5l-0.2,0c-0.2,0-0.3,0-0.3-0.2c0-0.1,0.1-0.2,0.3-0.2
	c0.2,0,0.4,0.1,0.5,0.2L7.7,14.7z M17.7,14.5c-0.2,0-0.4,0.1-0.5,0.2v-0.2h-0.4v1.7h0.4v-0.9c0-0.3,0.1-0.5,0.4-0.5
	c0.1,0,0.2,0,0.2,0l0.1-0.3C17.8,14.5,17.8,14.5,17.7,14.5 M12.9,15.4c0,0.5,0.4,0.9,0.9,0.9c0.2,0,0.4,0,0.6-0.2l-0.2-0.3
	c-0.1,0.1-0.3,0.2-0.5,0.2c-0.3,0-0.5-0.2-0.5-0.5s0.2-0.5,0.5-0.5c0.2,0,0.3,0,0.5,0.2l0.2-0.3c-0.2-0.2-0.3-0.3-0.6-0.3
	C13.3,14.5,12.9,14.9,12.9,15.4 M16.4,15.4v-0.9H16v0.2c-0.1-0.2-0.3-0.3-0.5-0.3c-0.5,0-0.9,0.4-0.9,0.9s0.4,0.9,0.9,0.9
	c0.2,0,0.4-0.1,0.5-0.2v0.2h0.4V15.4z M15,15.4c0-0.3,0.2-0.5,0.5-0.5s0.5,0.2,0.5,0.5s-0.2,0.5-0.5,0.5C15.2,15.9,15,15.7,15,15.4
	 M10.5,14.5c-0.5,0-0.9,0.4-0.9,0.9s0.4,0.9,0.9,0.9c0.2,0,0.5-0.1,0.7-0.2L11,15.7c-0.2,0.1-0.3,0.2-0.5,0.2
	c-0.2,0-0.5-0.1-0.5-0.4h1.3c0,0,0-0.1,0-0.1C11.3,14.8,11,14.5,10.5,14.5 M10.5,14.8c0.2,0,0.4,0.2,0.5,0.4H10
	C10.1,15,10.2,14.8,10.5,14.8 M19.8,15.4v-1.6h-0.4v0.9c-0.1-0.2-0.3-0.3-0.5-0.3c-0.5,0-0.9,0.4-0.9,0.9c0,0.5,0.4,0.9,0.9,0.9
	c0.2,0,0.4-0.1,0.5-0.2v0.2h0.4V15.4z M18.5,15.4c0-0.3,0.2-0.5,0.5-0.5s0.5,0.2,0.5,0.5s-0.2,0.5-0.5,0.5
	C18.6,15.9,18.5,15.7,18.5,15.4 M5.9,15.4v-0.9H5.5v0.2c-0.1-0.2-0.3-0.3-0.6-0.3c-0.5,0-0.9,0.4-0.9,0.9s0.4,0.9,0.9,0.9
	c0.2,0,0.4-0.1,0.5-0.2v0.2h0.4L5.9,15.4L5.9,15.4z M4.5,15.4c0-0.3,0.2-0.5,0.5-0.5s0.5,0.2,0.5,0.5S5.3,15.9,5,15.9
	C4.7,15.9,4.5,15.7,4.5,15.4 M20.5,16C20.5,16,20.5,16,20.5,16c0.1,0,0.1,0,0.1,0l0,0c0,0,0,0,0,0.1s0,0,0,0.1c0,0,0,0,0,0l0,0
	c0,0,0,0-0.1,0c0,0,0,0-0.1,0s0,0,0,0l0,0c0,0,0,0,0-0.1s0,0,0-0.1s0,0,0,0L20.5,16C20.4,16,20.4,16,20.5,16 M20.5,16.3L20.5,16.3
	C20.5,16.3,20.6,16.3,20.5,16.3c0.1-0.1,0.1-0.1,0.1-0.1v0v0c0,0,0,0,0,0s0,0,0-0.1h0h0c0,0,0,0,0,0s0,0,0,0v0v0
	C20.4,16.2,20.4,16.2,20.5,16.3C20.4,16.2,20.4,16.3,20.5,16.3C20.4,16.3,20.4,16.3,20.5,16.3 M20.5,16.1L20.5,16.1L20.5,16.1
	L20.5,16.1L20.5,16.1l0,0.1h0h0v0h0L20.5,16.1L20.5,16.1z M20.4,16.1L20.4,16.1L20.4,16.1C20.5,16.1,20.5,16.1,20.4,16.1
	C20.5,16.1,20.5,16.1,20.4,16.1z"/>
<path class="st8" d="M20.3,10.5v-0.2h0.1v0h-0.2v0h0.1L20.3,10.5L20.3,10.5z M20.7,10.5v-0.2h-0.1l-0.1,0.2l-0.1-0.2h-0.1v0.2h0
	v-0.2l0.1,0.2h0l0.1-0.2L20.7,10.5L20.7,10.5z"/>
<rect x="7.6" y="1.5" class="st9" width="5.6" height="10.1"/>
<path class="st10" d="M8,6.5c0-2.1,0.9-3.9,2.5-5.1C9.3,0.6,7.9,0,6.4,0C2.9,0,0,2.9,0,6.5c0,3.6,2.9,6.4,6.4,6.4
	c1.5,0,2.9-0.5,4-1.4C8.9,10.4,8,8.6,8,6.5"/>
<path class="st11" d="M20.9,6.5c0,3.6-2.9,6.4-6.4,6.4c-1.5,0-2.9-0.5-4-1.4c1.5-1.2,2.5-3,2.5-5.1c0-2.1-0.9-3.9-2.5-5.1
	c1.1-0.9,2.5-1.4,4-1.4C17.9,0.1,20.9,3,20.9,6.5"/>
</svg>
