<?xml version="1.0" encoding="utf-8"?>
<!-- Generator: Adobe Illustrator 22.0.1, SVG Export Plug-In . SVG Version: 6.00 Build 0)  -->
<svg version="1.1" id="Ebene_1" xmlns="http://www.w3.org/2000/svg" xmlns:xlink="http://www.w3.org/1999/xlink" x="0px" y="0px"
	 viewBox="0 0 48 48" style="enable-background:new 0 0 48 48;" xml:space="preserve">
<style type="text/css">
	.st0{fill:#FFFFFF;}
	.st1{fill:#179BD7;}
	.st2{fill:#222D65;}
	.st3{fill:#253B80;}
	.st4{fill:#EE7F00;}
	.st5{fill:#D8D8D8;}
	.st6{fill:#FF9900;}
	.st7{fill:#FAA61A;}
	.st8{fill:#F79410;}
	.st9{fill:#FF5F00;}
	.st10{fill:#EB001B;}
	.st11{fill:#F79E1B;}
	.st12{fill:#FF6600;}
	.st13{fill:#E0B646;}
	.st14{fill:#E40520;}
	.st15{fill-rule:evenodd;clip-rule:evenodd;fill:#E0B646;}
</style>
<circle class="st13" cx="24" cy="24" r="24"/>
<path d="M8.4,24c0-8.7,7.1-15.8,15.8-15.8S40,15.3,40,24s-7.1,15.8-15.8,15.8S8.4,32.7,8.4,24"/>
<path d="M24,1.7C11.7,1.7,1.7,11.7,1.7,24c0,12.3,10,22.3,22.3,22.3s22.3-10,22.3-22.3C46.3,11.7,36.3,1.7,24,1.7z M24,46.8
	C11.4,46.8,1.2,36.6,1.2,24C1.2,11.4,11.4,1.2,24,1.2c12.6,0,22.8,10.2,22.8,22.8C46.8,36.6,36.6,46.8,24,46.8z"/>
<path d="M4.3,19.1l2.9,1.4L7.2,21l-1.5,0.3c-0.4,0.1-0.5,0.1-0.5,0.1s0.2,0.1,0.5,0.2L7,22.3L7,22.8l-3.2,0.5l0.1-0.7l1.7-0.3
	c0.3,0,0.5,0,0.5-0.1c0,0-0.2-0.1-0.5-0.2l-1.3-0.7L4.4,21l1.4-0.3c0.3-0.1,0.5-0.1,0.5-0.1s-0.2-0.1-0.5-0.2l-1.6-0.7L4.3,19.1z"/>
<polygon points="7.8,17 8.3,17.2 7.6,19.3 4.7,18.3 5.4,16.2 5.9,16.4 5.4,17.9 6,18.1 6.4,16.9 6.9,17.1 6.5,18.3 7.2,18.5 "/>
<path d="M8.7,15.4c0.1-0.3,0.1-0.5-0.1-0.7c-0.2-0.1-0.5,0-0.6,0.2l-0.3,0.5l0.8,0.4L8.7,15.4z M7.4,14.8c0.1-0.2,0.1-0.4-0.1-0.5
	c-0.2-0.1-0.4,0-0.5,0.2l-0.3,0.5l0.6,0.3L7.4,14.8z M6.4,14.1c0.3-0.5,0.8-0.7,1.1-0.4c0.3,0.1,0.4,0.5,0.3,0.7
	c0.2-0.2,0.6-0.3,0.9-0.2c0.5,0.3,0.7,0.8,0.3,1.4l-0.6,1.1l-2.7-1.5L6.4,14.1z"/>
<polygon points="10.8,12.2 11.2,12.5 9.9,14.3 7.5,12.4 8.8,10.7 9.3,11.1 8.3,12.3 8.8,12.7 9.6,11.7 10,12 9.2,13 9.8,13.4 "/>
<path d="M11,10.6l0.4-0.4c0.3-0.2,0.2-0.5,0.1-0.7c-0.2-0.2-0.4-0.2-0.7,0l-0.4,0.4L11,10.6z M12.9,11l-1.2-0.4c0,0,0,0,0,0L11.3,11
	l0.7,0.8l-0.4,0.4L9.5,9.9l0.8-0.7c0.5-0.5,1.2-0.5,1.6-0.1c0.3,0.3,0.4,0.7,0.2,1l1.3,0.4L12.9,11z"/>
<path d="M15.4,6.7c-0.3-0.1-0.6-0.1-0.9,0.1c-0.5,0.3-0.6,0.8-0.3,1.3c0.3,0.5,0.8,0.7,1.3,0.4C15.8,8.3,16,8,16,7.7l0.6-0.1
	c0,0.6-0.3,1.2-0.8,1.5c-0.8,0.4-1.7,0.2-2.2-0.6c-0.5-0.8-0.2-1.7,0.6-2.2c0.5-0.3,1.1-0.3,1.6,0L15.4,6.7z"/>
<polygon points="19.2,6.9 19.4,7.4 17.3,8.2 16.3,5.3 18.3,4.5 18.5,5.1 17,5.6 17.3,6.2 18.4,5.8 18.6,6.3 17.5,6.7 17.7,7.4 "/>
<path d="M20.2,5.6l0.5-0.1c0.3-0.1,0.4-0.3,0.4-0.5c0-0.3-0.3-0.4-0.6-0.4l-0.5,0.1L20.2,5.6z M21.6,7l-0.8-0.9h0l-0.5,0.1l0.2,1
	l-0.6,0.1l-0.5-3l1-0.2c0.8-0.1,1.3,0.2,1.4,0.8c0.1,0.4-0.1,0.8-0.4,1l0.9,1L21.6,7z"/>
<polygon points="24.8,3.7 24.8,4.3 23.9,4.3 23.9,6.8 23.3,6.8 23.2,4.3 22.3,4.3 22.3,3.8 "/>
<rect x="24.1" y="5" transform="matrix(7.902355e-02 -0.9969 0.9969 7.902355e-02 18.354 30.4586)" width="3.1" height="0.6"/>
<polygon points="27.6,4.6 27.4,5.3 28.6,5.5 28.5,6.1 27.3,5.9 27.1,7 26.5,6.9 27.1,3.9 29.2,4.3 29.1,4.8 "/>
<rect x="28.2" y="5.8" transform="matrix(0.2981 -0.9545 0.9545 0.2981 15.0792 32.6634)" width="3.1" height="0.6"/>
<polygon points="32.4,8.2 32.2,8.7 30.2,7.8 31.4,5 33.4,5.9 33.2,6.4 31.8,5.8 31.5,6.4 32.6,6.9 32.4,7.4 31.3,6.9 31,7.6 "/>
<path d="M34.1,9.3c0.4,0.3,1,0.3,1.3-0.3c0.3-0.5,0.2-1-0.3-1.3l-0.6-0.4l-1.1,1.6L34.1,9.3z M35.5,7.2c0.7,0.5,1,1.4,0.4,2.2
	c-0.5,0.8-1.4,0.9-2.2,0.4L32.6,9l1.7-2.5L35.5,7.2z"/>
<path d="M38.8,11.3c0.2-0.3,0.1-0.6-0.1-0.8c-0.2-0.2-0.4-0.3-0.5-0.1c-0.2,0.2,0,0.5,0.1,0.9c0.2,0.4,0.4,1,0,1.3s-1,0.3-1.5-0.2
	c-0.4-0.5-0.5-1-0.2-1.6l0.5,0.3c-0.1,0.3-0.2,0.6,0.1,0.9c0.2,0.3,0.5,0.3,0.6,0.1c0.2-0.2,0-0.6-0.2-1c-0.1-0.4-0.3-0.8,0.1-1.2
	c0.4-0.3,1-0.3,1.4,0.2c0.4,0.4,0.4,1,0.2,1.4L38.8,11.3z"/>
<polygon points="41.6,13.6 41.2,14 40.6,13.2 38.6,14.6 38.2,14.1 40.3,12.7 39.8,11.9 40.2,11.5 "/>
<path d="M40.3,16.6c0.3,0.5,0.8,0.7,1.3,0.5c0.5-0.3,0.7-0.8,0.5-1.3c-0.2-0.5-0.8-0.7-1.3-0.5C40.3,15.5,40,16.1,40.3,16.6
	 M42.7,15.5c0.4,0.8,0.1,1.7-0.8,2.1c-0.8,0.4-1.7,0-2.1-0.8c-0.4-0.8-0.1-1.7,0.8-2.1C41.4,14.3,42.3,14.7,42.7,15.5"/>
<path d="M42.3,18.8l0.1,0.5c0.1,0.3,0.3,0.4,0.6,0.4c0.2-0.1,0.4-0.3,0.3-0.6l-0.1-0.5L42.3,18.8z M41,20.3l0.9-0.9v0L41.7,19
	l-1,0.3l-0.1-0.6l3-0.8l0.3,1c0.2,0.7-0.1,1.3-0.7,1.4c-0.4,0.1-0.8,0-1-0.3l-0.9,1L41,20.3z"/>
<polygon points="42,23.5 41.4,23.6 41.2,21.4 44.3,21.1 44.5,23.2 43.9,23.3 43.8,21.8 43.1,21.8 43.2,23 42.7,23.1 42.6,21.9 
	41.8,21.9 "/>
<path class="st14" d="M24.4,10.3c0-0.1,0-0.2,0-0.3v0h-0.8c0,0,0,0,0,0s0,0.1,0,0.3H24.4z M22.4,17.3c0.4,0,0.8-0.1,1.2-0.1v-0.4
	c-0.3,0-0.6-0.1-0.9-0.2L22.4,17.3z M24.1,17.2c0.4,0,0.8,0,1.2,0.1l-0.2-0.5c-0.3,0.1-0.7,0.1-1,0.1V17.2z M25.1,21.9h0.4l-0.1,0
	L25.1,21.9z M26.6,21.9c0.1-0.1,0.1-0.1,0.3-0.2l-1.1-3.1c-0.4,0.1-1,0.1-1.6,0.2v1c0.5,0.1,0.8,0.6,0.8,1.1c0,0.1,0,0.2,0,0.3
	L26.6,21.9z M21.9,22l1.2-0.2c-0.1-0.1-0.1-0.1-0.2-0.2L21.9,22z M20.7,22l2-0.8c0-0.1,0-0.2,0-0.3c0-0.5,0.4-1,0.9-1.1v-1
	c-0.6,0-1.2-0.1-1.6-0.2L20.7,22z M26.2,22.3h-0.6H26.2z M27.5,23.8c-0.6,0-1.1-0.5-1.2-1h-5.9l-0.4,1h-0.7l2-5.3
	c-0.3-0.1-0.5-0.3-0.5-0.5c0-0.2,0.3-0.4,0.9-0.5l0.4-0.9c-1.4-0.7-2.1-2.1-2.2-2.9c0-0.1,0-0.2,0-0.3c0,0,0-0.1,0-0.1h0
	c-0.1,0-0.1,0-0.1-0.1c-0.1-0.2-0.1-0.6,0-0.7c0-0.1,0.1-0.1,0.1-0.1c0,0,0,0,0.1,0c0.4-1.9,2.3-2,3.1-2.1c0-0.1,0-0.2,0-0.3v0
	c-0.1,0-0.2-0.2-0.2-0.3c0-0.2,0.1-0.3,0.3-0.3c0,0,0.3,0,0.9,0c0.7,0,0.9,0,0.9,0.1c0.2,0,0.3,0.1,0.3,0.3c0,0.1-0.1,0.3-0.3,0.3v0
	c0,0,0,0.2,0,0.3c1.6,0.2,2.6,0.9,2.9,2.1c0,0,0,0,0,0h0c0.1,0,0.1,0.1,0.1,0.2c0,0.1,0.1,0.5-0.1,0.6h0h0c0,0.1,0,0.3,0,0.4
	c0,0.7-0.8,2.2-2.2,2.9l0.3,0.9c0.5,0.1,0.8,0.3,0.8,0.5c0,0.1-0.1,0.3-0.4,0.4l1.1,3.1c0,0,0.1,0,0.1,0c0.7,0,1.2,0.5,1.2,1.2
	C28.6,23.3,28.1,23.8,27.5,23.8"/>
<path class="st13" d="M20.9,21.8l1.2-3.1c0.4,0.1,0.9,0.1,1.5,0.1v0.8c-0.5,0.1-0.9,0.6-0.9,1.2c0,0.1,0,0.2,0,0.3L20.9,21.8z
	 M24.3,18.8c0.5,0,1-0.1,1.4-0.1l1,3c0,0-0.1,0.1-0.1,0.1L25,21c0-0.1,0-0.1,0-0.2c0-0.5-0.3-1-0.8-1.2L24.3,18.8z M24.3,17
	c0.3,0,0.5,0,0.8-0.1l0.1,0.3c-0.3,0-0.6,0-0.9-0.1V17z M22.6,17.2l0.1-0.4c0.3,0.1,0.5,0.1,0.8,0.1v0.1
	C23.2,17.1,22.8,17.2,22.6,17.2 M23.7,10.2h0.5c0,0,0,0.1,0,0.1L23.7,10.2C23.7,10.2,23.7,10.2,23.7,10.2 M24,9.3
	c-0.5,0-0.8,0-0.9,0c-0.2,0-0.4,0.2-0.4,0.4c0,0.1,0.1,0.3,0.2,0.4c0,0,0,0.1,0,0.1c-0.8,0-2.6,0.3-3,2.1c-0.1,0-0.1,0-0.2,0.1
	c-0.1,0.1-0.2,0.6,0,0.8c0,0,0.1,0.1,0.2,0.1c0,0.1,0,0.1,0,0.3c0.1,0.8,0.8,2.2,2.1,2.9l-0.3,0.8c-0.6,0.1-0.9,0.4-0.9,0.6
	s0.3,0.4,0.5,0.5l-1.9,5.1l-0.1,0.3h0.3H20h0.1l0-0.1l0.4-0.9h5.7c0.1,0.6,0.6,1,1.2,1c0.7,0,1.3-0.5,1.3-1.2c0-0.7-0.6-1.2-1.3-1.2
	c0,0,0,0,0,0l-1-3c0.3-0.1,0.4-0.3,0.4-0.5c0-0.3-0.3-0.5-0.8-0.6l-0.3-0.7c1.3-0.7,2.2-2.2,2.2-3c0-0.1,0-0.3,0-0.3
	c0.2-0.1,0.3-0.3,0.2-0.7c0-0.1-0.1-0.3-0.3-0.3c-0.3-1.2-1.3-1.9-2.9-2.1c0-0.1,0-0.1,0-0.1c0.1-0.1,0.3-0.2,0.3-0.4
	c0-0.2-0.2-0.4-0.4-0.4C24.9,9.3,24.6,9.3,24,9.3 M26.2,22.2h-3.4l-1.4,0.2l5,0c0,0,0,0,0-0.1L26.2,22.2 M23.7,22l2.2,0l-0.5-0.3
	L23.7,22 M21.1,22.2l2.4-0.4c-0.2-0.1-0.4-0.2-0.5-0.4L21.1,22.2 M24.5,21.7l0.6-0.1l-0.4-0.2C24.7,21.5,24.5,21.5,24.5,21.7
	 M20.5,22.2l2.3-1c0-0.1-0.1-0.3-0.1-0.4c0-0.5,0.4-1,0.9-1v-1.2c-0.7,0-1.3-0.1-1.8-0.2L20.5,22.2 M26.6,22
	c0.1-0.1,0.2-0.2,0.3-0.3l-1.2-3.3c-0.5,0.1-1.1,0.2-1.7,0.2v1.2c0.5,0.1,0.8,0.5,0.8,1c0,0.1,0,0.2,0,0.3L26.6,22 M25.4,17.4
	l-0.3-0.8c-0.4,0.1-0.8,0.1-1.1,0.1v0.5C24.6,17.3,25,17.4,25.4,17.4 M22.3,17.4c0.4-0.1,0.9-0.1,1.4-0.1v-0.5
	c-0.4,0-0.8-0.1-1.1-0.2L22.3,17.4 M24.5,10.4c0-0.1,0-0.3,0-0.4c0,0,0-0.1,0-0.1h-1c0,0,0,0.1,0,0.1c0,0.1,0,0.3,0,0.4H24.5
	 M24,9.4c0.7,0,0.9,0,0.9,0c0.1,0,0.3,0.1,0.3,0.3S25,10,24.9,10h0c0,0,0,0.1,0,0.1c0,0.1,0,0.3,0,0.4c1.1,0.1,2.6,0.5,2.9,2
	c0,0,0.1,0,0.1,0s0.1,0,0.1,0c0,0,0.2,0.5,0,0.6c0,0,0,0,0,0s-0.1,0-0.1,0.1c0,0,0,0.3,0,0.4c0,0.7-0.8,2.2-2.3,2.9l0.4,1
	c0.4,0.1,0.7,0.3,0.7,0.4c0,0.1-0.1,0.3-0.4,0.4l1.2,3.3c0,0,0.1,0,0.2,0c0.6,0,1,0.5,1,1c0,0.6-0.5,1-1,1c-0.6,0-1-0.5-1-1h-6
	l-0.4,1h-0.4l2-5.3c-0.3-0.1-0.5-0.3-0.5-0.4c0-0.2,0.3-0.4,0.8-0.5l0.4-1.1c-1.4-0.7-2.1-2.1-2.2-2.8c0-0.3,0-0.3,0-0.5
	c0,0,0,0,0,0s-0.1,0-0.1,0s-0.1,0-0.1,0c-0.1-0.2,0-0.7,0.1-0.7c0,0,0.1,0,0.1,0c0.3-1.8,2-2,3.1-2.1c0-0.1,0-0.3,0-0.3
	c0,0,0-0.1,0-0.1c-0.1,0-0.2-0.1-0.2-0.3c0-0.1,0.1-0.3,0.3-0.3C23.1,9.5,23.4,9.4,24,9.4"/>
<path class="st13" d="M14,19.9L14,19.9L14,19.9z M14.1,19.1L14.1,19.1l0.1-0.1l0-0.1v0v0v0v0v0h0h0h0l0,0v0v0V19L14.1,19.1
	L14.1,19.1L14.1,19.1z M14,19.2L14,19.2L14,19.2z M13.9,19.2L13.9,19.2L13.9,19.2z M14,19.4L14,19.4L14,19.4L14,19.4L14,19.4
	L14,19.4l-0.1,0v0L14,19.4L14,19.4L14,19.4L14,19.4L14,19.4L14,19.4L14,19.4z M13.9,19.6L13.9,19.6L13.9,19.6L13.9,19.6z M13.9,19.6
	L13.9,19.6L13.9,19.6L13.9,19.6L13.9,19.6z M13.8,19.2L13.8,19.2L13.8,19.2L13.8,19.2L13.8,19.2L13.8,19.2z M13.9,19.6L13.9,19.6
	L13.9,19.6L13.9,19.6v-0.1v0l0,0v0l0,0V19.6L13.9,19.6L13.9,19.6z M13.8,18.9L13.8,18.9L13.8,18.9z M13.7,20.3L13.7,20.3L13.7,20.3
	L13.7,20.3z M13.3,20.4L13.3,20.4L13.3,20.4z M13.7,19.7L13.7,19.7l-0.1,0.1l0,0l0,0l0,0l0,0h0l-0.1,0.1l0,0l0,0l0,0l0.1,0h0h0.1
	h0.1h0h0l0.1,0l0,0l0,0v0V20v-0.1v0v0V19.7L13.7,19.7L13.7,19.7z M13.1,20.3L13.1,20.3L13.1,20.3z M13,20.2L13,20.2L13,20.2z
	 M13,20.1L13,20.1L13,20.1L13,20.1z M13,20.2L13,20.2L13,20.2L13,20.2L13,20.2L13,20.2L13,20.2L13,20.2L13,20.2L13,20.2L13,20.2
	L13,20.2l0.1,0h0v0v0l0,0H13h0.1v0L13,20.2L13,20.2L13,20.2L13,20.2L13,20.2L13,20.2L13,20.2z M12.7,20.6L12.7,20.6l0-0.1v0l0,0v0
	l0,0v0l0-0.1l0,0v0v0l0-0.1V20v-0.1v-0.1v-0.1l0-0.1v0v0l0-0.1v0l0-0.1l0,0l0,0l0.1,0l0.1,0l0.1,0h0.1h0.1h0.1l0.1,0h0l0,0l0,0v0
	l0.1,0.1h0h0h0h0h-0.1h0l-0.1,0l0,0h0L13,19.7v0.1v0.1V20V20l0,0h0l0,0l0,0l0,0l0.1,0l0,0l0,0l0,0l0,0l0,0l0,0l0.1,0l0,0v0v-0.1v0
	v-0.1v0v-0.1v-0.1v-0.1v-0.1v0V19v0v0v0v0l0,0l0,0l0,0h0h0.1h0h0h0h0l0.1,0h0l0,0l0,0v0v0.1v0v0v0v0.1l0,0.1l0,0l0,0.1l0,0.1l0,0
	l0,0l0,0l0.2-0.1v0v0v0v0v0.1v0.1v0.1v0.1v0.1V20v0v0.1v0v0v0l0,0l0,0.1v0l0,0l0,0h0l-0.2,0l-0.1,0h0h-0.1h-0.1h-0.1h-0.1h-0.1h0h0
	l-0.1,0h0h0h0h0l0,0.1l0,0.1l0,0.1v0.1v0v0.1l0,0h0h-0.1h-0.1h0v0v-0.1v-0.1L12.7,20.6L12.7,20.6z"/>
<path class="st13" d="M14.8,18.7L14.8,18.7L14.8,18.7l0.1,0.1v0v0v0l0,0.1l0,0.1l0,0h0h0h0l-0.1,0l0,0l0,0v0v0v-0.1v-0.1l0,0l0,0h0
	L14.8,18.7z M14.6,19.2L14.6,19.2h0.1h0h0h0l0,0v0v0l0,0l0,0.1v0l0,0.1l0,0.1v0l0,0.1v0l0,0.1v0v0l0,0.1l0,0.1v0.1v0v0h0h0l0,0l0,0
	l0,0l0,0l0-0.1v0l0,0l0,0l0,0l0,0v0v0l0,0.1l0,0.1l0,0v0h0v0l0,0v0v-0.1l0,0l0,0h0l-0.1,0h0h-0.1h-0.1h-0.1h0l0,0v-0.1v-0.1v0v-0.1
	V20l0-0.1v0l0,0v0v0l0-0.1v0l0-0.1l0-0.1l0-0.1l0-0.1v0v0L14.6,19.2z"/>
<path class="st13" d="M15.9,19.4L15.9,19.4L15.9,19.4L15.9,19.4z M15.8,19.5L15.8,19.5L15.8,19.5z M15.8,19.4L15.8,19.4L15.8,19.4
	L15.8,19.4L15.8,19.4L15.8,19.4L15.8,19.4L15.8,19.4L15.8,19.4L15.8,19.4L15.8,19.4L15.8,19.4z M15.2,19.8L15.2,19.8L15.2,19.8z
	 M15.8,20.2L15.8,20.2l0.1-0.1l0,0l0,0l0-0.1v0l0,0l0,0h0h0l0,0v0v0v0l0-0.1V20l0,0l0,0l0,0.1l0,0l0,0l-0.1,0l0,0l0,0l-0.1,0h0h-0.1
	h0h0h0h0h0l-0.1,0l0-0.1v-0.1v-0.1v0V20v-0.1l0-0.1v-0.1v0v0l0-0.1l0-0.1v0l0,0h0l0,0h0l0,0l0,0v0.1v0v0v0v0.1l-0.1,0l0,0.1v0l0,0
	v0.1v0v0v0l0,0.1v0h0H15H15h0h0v0v0v0l0-0.1l0-0.1v0l0,0v0v0l0-0.1v0v0v0v0l0-0.1l0,0v-0.1l0-0.1v0v0v0v0h0l0.1,0l0.1,0h0h0l0,0
	l0.1,0h0.1h0.1h0.1h0h0v0.1v0.1v0.1v0l0,0.1l0,0.1v0h0.2l0,0.1v0.1l0,0v0v0v0.1V20.2L15.8,20.2z"/>
<path class="st13" d="M17.1,19.6L17.1,19.6L17.1,19.6z M17,19.6L17,19.6L17,19.6z M16.9,19.4L16.9,19.4L16.9,19.4z M16.8,19.7l0-0.1
	l0-0.1v-0.1v0h0h0h0l-0.1,0.1l0,0.1l0,0l0,0.1l0,0.1l0,0v0.1V20v0v0v0v0l0,0l0,0h0h0.1h0.1h0.1h0h0l0.1,0l0.1,0v0l0.1,0l0,0l0,0v0h0
	l0,0h0l0,0v0l0-0.1l0,0.1l0,0v0l0,0l0,0l-0.1,0L17,20.2l0,0l-0.1,0h-0.1h0l-0.1,0h-0.1h-0.1h-0.1h-0.1h0l0,0l-0.1-0.1l0-0.1v0v-0.1
	V20v0v-0.1v0v0l0,0l0-0.1l0-0.1v0l0-0.1l0,0l0,0l0,0l0,0h0h0h0h0h0.1h0.1h0.1l0.1,0h0l0,0l0,0v0.1v0.1v0v0v0.1v0v0v0l0,0H17h-0.1
	h-0.1V19.7z"/>
<path class="st13" d="M18.1,19.6L18.1,19.6L18.1,19.6L18.1,19.6L18.1,19.6z M18.1,19.4L18.1,19.4L18.1,19.4L18.1,19.4z M18,19.3
	L18,19.3L18,19.3z M17.7,19.7L17.7,19.7h0.1h0l0,0l0,0l0-0.1l0-0.1v0v0l0,0h0l-0.1,0l0,0.1l0,0l0,0.1L17.7,19.7L17.7,19.7z
	 M17.5,19.7L17.5,19.7L17.5,19.7z M17.5,19.9L17.5,19.9L17.5,19.9z M17.5,20L17.5,20L17.5,20z M17.4,19.8L17.4,19.8L17.4,19.8z
	 M17.9,19.2L17.9,19.2H18h0.1h0h0l0,0l0,0.1v0.1v0.1v0l0,0.1l0,0.1v0l0,0v0h0l0,0h0h0h0h-0.1h0h-0.1h-0.1h0h0v0v0v0v0v0l0,0h0.1h0.1
	h0l0.1,0H18h0l0.1,0l0,0l0,0l0.1,0l0,0l0,0h0l0,0l0,0v0l0,0h0l0,0v0v0.2v0l-0.1,0l0,0l0,0l0,0.1l0,0l-0.1,0l-0.1,0v0h0l-0.1,0h0
	h-0.1h-0.1h0h-0.1h-0.1h0h0l-0.1,0l-0.1,0l-0.1,0v0l0-0.1v-0.1v0V20v-0.1l0-0.1v-0.1v0l0-0.1v0l0-0.1l0-0.1l0-0.1l0,0l0,0l0,0l0,0
	l0,0l0.1,0L17.9,19.2L17.9,19.2z"/>
<path class="st13" d="M30.5,19.3L30.5,19.3L30.5,19.3L30.5,19.3z M30.5,19.2L30.5,19.2L30.5,19.2L30.5,19.2z M30.5,19.2L30.5,19.2
	L30.5,19.2L30.5,19.2L30.5,19.2L30.5,19.2L30.5,19.2L30.5,19.2L30.5,19.2L30.5,19.2L30.5,19.2L30.5,19.2L30.5,19.2z M30.4,19.4
	L30.4,19.4L30.4,19.4z M30,20.3v-0.1v0v0v0v0l0-0.1l0-0.1l0-0.1l0-0.1l0-0.1l0-0.1l0-0.1v0l0,0l0,0l0,0l0,0L30,19.7h0h0l-0.1,0v0v0
	l0,0l0.1-0.1l0.1,0l0,0l0,0v0l0,0l0,0l0,0l0,0l0,0l0,0h0l0,0v0l0,0l0-0.1l0-0.1l0,0h0h0h0.1l0,0h0h0h0l0,0l0,0.1v0v0v0v0v0l-0.1,0.1
	v0v0v0l0,0.1l0,0.1v0v0l0,0.1l0,0.1v0l0,0.1v0l0,0.1l0,0.1l-0.1,0.1l0,0.1l0,0.1l0,0.1l0,0.1h0h-0.1L30,20.3L30,20.3L30,20.3z"/>
<path class="st13" d="M31.8,19.4L31.8,19.4L31.8,19.4z M31.7,19.4L31.7,19.4L31.7,19.4z M31.6,19.5L31.6,19.5L31.6,19.5L31.6,19.5
	L31.6,19.5L31.6,19.5L31.6,19.5L31.6,19.5L31.6,19.5L31.6,19.5z M31.5,19.7L31.5,19.7L31.5,19.7L31.5,19.7h0.1h0v0h0L31.5,19.7z
	 M31.2,19.5L31.2,19.5L31.2,19.5l0.1,0.1l0.1,0h0l0.1,0l0.1,0l0-0.1l0-0.1v-0.1v-0.1v-0.1V19v0l0,0h0h0h0l0,0.1l0,0l0,0.1l0,0.1
	l0,0.1v0.1v0v0.1L31.2,19.5z M31.2,19.2L31.2,19.2L31.2,19.2L31.2,19.2z M31.1,19.4L31.1,19.4L31.1,19.4L31.1,19.4L31.1,19.4z
	 M31.4,19.8L31.4,19.8l-0.1,0h-0.1h-0.1h-0.1h0h0l0,0l0,0l0,0v0v-0.1v-0.1v-0.1v0v-0.1l0-0.1v0l0,0v0l0,0l0-0.1l0,0l0,0l0,0l0,0h0
	l0,0h0h0.1h0h0h0.1h0.1h0h0l0,0l0.1,0.1v0v0v0v0v0.1v0.1v0.1v0.1v0.1v0.1l0,0.1l0,0.1v0l0,0.1l0,0.1v0l0,0.1v0l0,0.1v0l0,0.1v0l0,0
	l-0.1-0.1l-0.1,0h0l-0.1,0h-0.1h0h-0.1h0H31h0l-0.1-0.1v-0.1v-0.1V20v0v0l0,0l0,0h0.1H31h0.1h0l0,0v0V20v0v0.1l0,0h0h0h0l0,0l0,0
	l0,0l0-0.1l0,0l0,0l0,0v0L31.4,19.8z"/>
<path class="st13" d="M32.9,19.6L32.9,19.6L32.9,19.6z M32.8,19.6L32.8,19.6L32.8,19.6z M32.7,19.7L32.7,19.7L32.7,19.7z M32.3,19.4
	L32.3,19.4L32.3,19.4z M32.1,20L32.1,20L32.1,20z M32.4,18.8L32.4,18.8h0.1h0h0.1h0.1h0.1h0.1h0.1H33H33l0.1,0h0h0l0,0v0l0,0.1
	l-0.1,0l0,0h0h0h0h0h-0.1h-0.1h-0.1h-0.1h0h0h0l0,0.1l0.1,0h0h0h0h0h0.1h0.1l0,0l0,0.1v0v0v0v0v0.1v0.1v0.1v0l0,0.1v0l0,0l0,0.3
	l0,0.1h0l0,0l-0.1,0.1l-0.1,0l-0.1,0h0l-0.1,0l-0.1,0h-0.1h-0.1h0h0h-0.1h0h0l-0.1,0l0,0l0-0.1l0,0l0,0v-0.1V20V20v-0.1v0v0v0h0H32
	h0.1h0.1h0v0v0v0.1V20v0v0l0,0h0h0h0l0.1,0l0,0v0l0,0v0v0l0-0.1v-0.1v-0.1v-0.1v0l0,0l0,0h0h0.1l-0.1,0l0,0l0,0l0,0h0h0l-0.1,0h-0.1
	h0l0,0v0l0-0.1l0-0.1l0-0.1l0-0.1l0-0.1l0-0.1v0l0-0.1v0L32.4,18.8L32.4,18.8z"/>
<path class="st13" d="M34.2,19.3L34.2,19.3L34.2,19.3z M34.2,19L34.2,19L34.2,19L34.2,19z M34.2,19L34.2,19L34.2,19z M34.1,19.3
	L34.1,19.3L34.1,19.3z M33.9,19.6L33.9,19.6L33.9,19.6L33.9,19.6L33.9,19.6z M33.5,20.1L33.5,20.1L33.5,20.1L33.5,20.1L33.5,20.1
	L33.5,20.1z M33.4,20L33.4,20L33.4,20z M33.4,20L33.4,20L33.4,20L33.4,20z M33.3,20L33.3,20L33.3,20L33.3,20L33.3,20L33.3,20l0,0.1
	h0l0,0l0,0h0v0v0h0h0v0h0l0,0v0v0l0,0h0H33.3z M33.3,20.1L33.3,20.1L33.3,20.1L33.3,20.1L33.3,20.1z M33.6,20L33.6,20l0.1,0h0.1h0.1
	H34h0l0,0l0,0.1v0v0l0,0v0l0,0h0h-0.1h0h-0.1h-0.1h-0.1h-0.1h-0.1h-0.1h-0.1h-0.1h-0.1h-0.1h0h0h0l0,0v0l0-0.1v0v0v0l0-0.1l0.1,0h0
	l0.1,0l0,0l0,0h0l0,0l0,0l0.1,0l0,0l0,0l0.1,0l0,0l0,0v0l0,0v0v0l0-0.1v0v-0.1v0L34,19l0,0h0h-0.1h0l0,0v0l0,0.1v0.1v0.1v0l0,0h-0.1
	h-0.1h0h0h0h0l0,0v0v-0.1v0v0l0-0.1v0v0v0l0,0l0.1,0l0,0l0.1,0h0h0.1h0.1h0.1h0h0h0.1l0.1,0l0,0l0,0l0,0.1v0.1v0.1v0.1v0l0.1,0.1
	l0,0v0l0,0.1l0,0l0,0l0,0l-0.1,0L34,19.7h0l0,0l-0.1,0.1l-0.1,0h0l0,0L33.6,20z"/>
<path d="M22.6,44.2L22.1,44c0,0,0,0,0-0.1c0-0.1-0.1-0.2-0.2-0.3v-0.3c0.2,0,0.3,0,0.4,0L22.6,44.2C22.6,44.1,22.6,44.2,22.6,44.2
	 M22.5,44.3h-1.3l0.3,0L22.5,44.3L22.5,44.3C22.5,44.2,22.5,44.2,22.5,44.3 M21.6,44c0,0,0.1,0.1,0.1,0.1l-0.6,0.1L21.6,44z
	 M21.4,43.3c0.1,0,0.3,0,0.4,0v0.3c-0.1,0-0.2,0.1-0.2,0.3c0,0,0,0.1,0,0.1L21,44.2L21.4,43.3z M21.5,42.8c0.1,0,0.2,0,0.3,0V43
	c-0.1,0-0.3,0-0.4,0L21.5,42.8z M22,41.2C22,41.2,22,41.2,22,41.2c0,0,0,0.1,0,0.1h-0.3c0,0,0-0.1,0-0.1v0H22z M22,44.1
	C22,44.1,22,44.1,22,44.1l0.1,0L22,44.1z M22.2,44.1l0.1,0.1h-0.5L22.2,44.1z M22.3,43c-0.1,0-0.2,0-0.4,0v-0.1c0.1,0,0.2,0,0.3,0
	L22.3,43z M22.8,44.1L22.8,44.1l-0.3-0.8c0.1,0,0.1-0.1,0.1-0.1S22.5,43,22.4,43l-0.1-0.3c0.4-0.1,0.6-0.5,0.6-0.7c0,0,0-0.1,0-0.1
	c0,0,0,0,0,0c0,0,0-0.1,0-0.1h0c-0.1-0.4-0.5-0.5-0.7-0.5c0,0,0-0.1,0-0.1v0c0,0,0.1,0,0.1-0.1c0,0,0-0.1-0.1-0.1c0,0-0.1,0-0.2,0
	c-0.1,0-0.2,0-0.2,0c0,0-0.1,0-0.1,0.1c0,0,0,0.1,0,0.1v0c0,0,0,0.1,0,0.1c-0.3,0-0.7,0.1-0.8,0.5h0c0,0,0,0.1,0,0.1h0
	c0,0,0,0,0,0.1c0,0.2,0.2,0.5,0.5,0.7L21.3,43c-0.1,0-0.2,0.1-0.2,0.1s0,0.1,0.1,0.1l-0.5,1.3h0.1l0.1-0.3h1.5
	c0,0.1,0.1,0.3,0.3,0.3c0.1,0,0.3-0.1,0.3-0.3C23,44.2,22.9,44.1,22.8,44.1"/>
<path d="M26.6,44.2L26.2,44c0,0,0,0,0-0.1c0-0.1-0.1-0.2-0.2-0.3v-0.3c0.2,0,0.3,0,0.4,0l0.4,0.8C26.7,44.1,26.7,44.2,26.6,44.2
	 M26.6,44.3h-1.3l0.3,0L26.6,44.3L26.6,44.3C26.6,44.2,26.6,44.2,26.6,44.3 M25.7,44c0,0,0.1,0.1,0.1,0.1l-0.6,0.1L25.7,44z
	 M25.5,43.3c0.1,0,0.3,0,0.4,0v0.3c-0.1,0-0.2,0.1-0.2,0.3c0,0,0,0.1,0,0.1l-0.6,0.3L25.5,43.3z M25.6,42.8c0.1,0,0.2,0,0.3,0V43
	c-0.1,0-0.3,0-0.4,0L25.6,42.8z M26.1,41.2C26.1,41.2,26.1,41.2,26.1,41.2c0,0,0,0.1,0,0.1h-0.3c0,0,0-0.1,0-0.1v0H26.1z M26.1,44.1
	C26.1,44.1,26.1,44.1,26.1,44.1l0.1,0L26.1,44.1z M26.3,44.1l0.1,0.1h-0.5L26.3,44.1z M26.3,43c-0.1,0-0.2,0-0.4,0v-0.1
	c0.1,0,0.2,0,0.3,0L26.3,43z M26.9,44.1L26.9,44.1l-0.3-0.8c0.1,0,0.1-0.1,0.1-0.1S26.6,43,26.5,43l-0.1-0.3
	c0.4-0.1,0.6-0.5,0.6-0.7c0,0,0-0.1,0-0.1c0,0,0,0,0,0c0,0,0-0.1,0-0.1h0c-0.1-0.4-0.5-0.5-0.7-0.5c0,0,0-0.1,0-0.1v0
	c0,0,0.1,0,0.1-0.1c0,0,0-0.1-0.1-0.1c0,0-0.1,0-0.2,0c-0.1,0-0.2,0-0.2,0c0,0-0.1,0-0.1,0.1c0,0,0,0.1,0.1,0.1v0c0,0,0,0.1,0,0.1
	c-0.3,0-0.7,0.1-0.8,0.5h0c0,0,0,0.1,0,0.1h0c0,0,0,0,0,0.1c0,0.2,0.2,0.5,0.5,0.7L25.4,43c-0.1,0-0.2,0.1-0.2,0.1s0,0.1,0.1,0.1
	l-0.5,1.3H25l0.1-0.3h1.5c0,0.1,0.1,0.3,0.3,0.3c0.1,0,0.3-0.1,0.3-0.3C27.1,44.2,27,44.1,26.9,44.1"/>
<path d="M34.4,41.7L34,41.5c0,0,0,0,0-0.1c0-0.1-0.1-0.2-0.2-0.3v-0.3c0.2,0,0.3,0,0.4,0L34.4,41.7C34.5,41.7,34.4,41.7,34.4,41.7
	 M34.4,41.8h-1.3l0.3,0L34.4,41.8L34.4,41.8 M33.5,41.6c0,0,0.1,0.1,0.1,0.1L33,41.8L33.5,41.6z M33.3,40.8c0.1,0,0.3,0,0.4,0v0.3
	c-0.1,0-0.2,0.1-0.2,0.3c0,0,0,0.1,0,0.1l-0.6,0.3L33.3,40.8z M33.4,40.3c0.1,0,0.2,0,0.3,0v0.1c-0.1,0-0.3,0-0.4,0L33.4,40.3z
	 M33.9,38.7c0,0,0,0.1,0,0.1h-0.3c0,0,0-0.1,0-0.1v0H33.9z M33.9,41.6C33.9,41.6,33.9,41.6,33.9,41.6l0.1,0L33.9,41.6z M34.1,41.6
	l0.1,0.1h-0.5L34.1,41.6z M34.1,40.6c-0.1,0-0.2,0-0.4,0v-0.1c0.1,0,0.2,0,0.3,0L34.1,40.6z M34.7,41.6L34.7,41.6l-0.3-0.8
	c0.1,0,0.1-0.1,0.1-0.1c0,0-0.1-0.1-0.2-0.1l-0.1-0.3c0.4-0.1,0.6-0.5,0.6-0.7c0,0,0-0.1,0-0.1c0,0,0,0,0,0c0,0,0-0.1,0-0.1h0
	c-0.1-0.4-0.5-0.5-0.7-0.5c0,0,0-0.1,0-0.1v0c0,0,0.1,0,0.1-0.1s0-0.1-0.1-0.1c0,0-0.1,0-0.2,0c-0.1,0-0.2,0-0.2,0
	c0,0-0.1,0-0.1,0.1s0,0.1,0,0.1v0c0,0,0,0.1,0,0.1c-0.3,0-0.7,0.1-0.8,0.5h0c0,0,0,0.1,0,0.1h0c0,0,0,0,0,0.1c0,0.2,0.2,0.5,0.5,0.7
	l-0.1,0.3c-0.1,0-0.2,0.1-0.2,0.1s0,0.1,0.1,0.1l-0.5,1.3h0.1l0.1-0.3h1.5c0,0.1,0.1,0.3,0.3,0.3c0.1,0,0.3-0.1,0.3-0.3
	C34.9,41.7,34.8,41.6,34.7,41.6"/>
<path d="M14.8,41.7l-0.5-0.2c0,0,0,0,0-0.1c0-0.1-0.1-0.2-0.2-0.3v-0.3c0.2,0,0.3,0,0.4,0L14.8,41.7C14.8,41.7,14.8,41.7,14.8,41.7
	 M14.7,41.8h-1.3l0.3,0L14.7,41.8L14.7,41.8 M13.8,41.6c0,0,0.1,0.1,0.1,0.1l-0.6,0.1L13.8,41.6z M13.6,40.8c0.1,0,0.3,0,0.4,0v0.3
	c-0.1,0-0.2,0.1-0.2,0.3c0,0,0,0.1,0,0.1l-0.6,0.3L13.6,40.8z M13.8,40.3c0.1,0,0.2,0,0.3,0v0.1c-0.1,0-0.3,0-0.4,0L13.8,40.3z
	 M14.2,38.7c0,0,0,0.1,0,0.1H14c0,0,0-0.1,0-0.1v0H14.2z M14.2,41.6C14.3,41.6,14.3,41.6,14.2,41.6l0.1,0L14.2,41.6z M14.5,41.6
	l0.1,0.1H14L14.5,41.6z M14.5,40.6c-0.1,0-0.2,0-0.4,0v-0.1c0.1,0,0.2,0,0.3,0L14.5,40.6z M15,41.6L15,41.6l-0.3-0.8
	c0.1,0,0.1-0.1,0.1-0.1c0,0-0.1-0.1-0.2-0.1l-0.1-0.3c0.4-0.1,0.6-0.5,0.6-0.7c0,0,0-0.1,0-0.1c0,0,0,0,0,0c0,0,0-0.1,0-0.1h0
	c-0.1-0.4-0.5-0.5-0.7-0.5c0,0,0-0.1,0-0.1v0c0,0,0.1,0,0.1-0.1s0-0.1-0.1-0.1c0,0-0.1,0-0.2,0c-0.1,0-0.2,0-0.2,0
	c0,0-0.1,0-0.1,0.1s0,0.1,0,0.1v0c0,0,0,0.1,0,0.1c-0.3,0-0.7,0.1-0.8,0.5h0c0,0,0,0.1,0,0.1h0c0,0,0,0,0,0.1c0,0.2,0.2,0.5,0.5,0.7
	l-0.1,0.3c-0.1,0-0.2,0.1-0.2,0.1s0,0.1,0.1,0.1L13,42.1h0.1l0.1-0.3h1.5c0,0.1,0.1,0.3,0.3,0.3c0.1,0,0.3-0.1,0.3-0.3
	C15.3,41.7,15.1,41.6,15,41.6"/>
<path d="M30.6,43.2L30.1,43c0,0,0,0,0-0.1c0-0.1-0.1-0.2-0.2-0.3v-0.3c0.2,0,0.3,0,0.4,0L30.6,43.2C30.7,43.1,30.7,43.2,30.6,43.2
	 M30.6,43.3h-1.3l0.3,0L30.6,43.3L30.6,43.3 M29.7,43c0,0,0.1,0.1,0.1,0.1l-0.6,0.1L29.7,43z M29.4,42.3c0.1,0,0.3,0,0.4,0v0.3
	c-0.1,0-0.2,0.1-0.2,0.3c0,0,0,0.1,0,0.1l-0.6,0.3L29.4,42.3z M29.6,41.8c0.1,0,0.2,0,0.3,0V42c-0.1,0-0.3,0-0.4,0L29.6,41.8z
	 M30.1,40.2C30.1,40.2,30.1,40.2,30.1,40.2c0,0,0,0.1,0,0.1h-0.3c0,0,0-0.1,0-0.1v0H30.1z M30.1,43.1C30.1,43,30.1,43,30.1,43.1
	l0.1,0L30.1,43.1z M30.3,43.1l0.1,0.1h-0.5L30.3,43.1z M30.3,42c-0.1,0-0.2,0-0.4,0v-0.1c0.1,0,0.2,0,0.3,0L30.3,42z M30.8,43.1
	L30.8,43.1l-0.3-0.8c0.1,0,0.1-0.1,0.1-0.1s-0.1-0.1-0.2-0.1l-0.1-0.3c0.4-0.1,0.6-0.5,0.6-0.7c0,0,0-0.1,0-0.1c0,0,0,0,0,0
	c0,0,0-0.1,0-0.1h0c-0.1-0.4-0.5-0.5-0.7-0.5c0,0,0-0.1,0-0.1v0c0,0,0.1,0,0.1-0.1s0-0.1-0.1-0.1c0,0-0.1,0-0.2,0
	c-0.1,0-0.2,0-0.2,0c0,0-0.1,0-0.1,0.1s0,0.1,0.1,0.1v0c0,0,0,0.1,0,0.1c-0.3,0-0.7,0.1-0.8,0.5h0c0,0,0,0.1,0,0.1h0c0,0,0,0,0,0.1
	c0,0.2,0.2,0.5,0.5,0.7L29.4,42c-0.1,0-0.2,0.1-0.2,0.1c0,0,0,0.1,0.1,0.1l-0.5,1.3H29l0.1-0.3h1.5c0,0.1,0.1,0.3,0.3,0.3
	c0.1,0,0.3-0.1,0.3-0.3C31.1,43.2,31,43.1,30.8,43.1"/>
<path d="M18.6,43.2L18.1,43c0,0,0,0,0-0.1c0-0.1-0.1-0.2-0.2-0.3v-0.3c0.2,0,0.3,0,0.4,0L18.6,43.2C18.7,43.1,18.6,43.2,18.6,43.2
	 M18.5,43.3h-1.3l0.3,0L18.5,43.3L18.5,43.3 M17.7,43c0,0,0.1,0.1,0.1,0.1l-0.6,0.1L17.7,43z M17.4,42.3c0.1,0,0.3,0,0.4,0v0.3
	c-0.1,0-0.2,0.1-0.2,0.3c0,0,0,0.1,0,0.1l-0.6,0.3L17.4,42.3z M17.6,41.8c0.1,0,0.2,0,0.3,0V42c-0.1,0-0.3,0-0.4,0L17.6,41.8z
	 M18,40.2C18,40.2,18,40.2,18,40.2c0,0,0,0.1,0,0.1h-0.3c0,0,0-0.1,0-0.1v0H18z M18,43.1C18.1,43,18.1,43,18,43.1l0.1,0L18,43.1z
	 M18.3,43.1l0.1,0.1h-0.5L18.3,43.1z M18.3,42c-0.1,0-0.2,0-0.4,0v-0.1c0.1,0,0.2,0,0.3,0L18.3,42z M18.8,43.1L18.8,43.1l-0.3-0.8
	c0.1,0,0.1-0.1,0.1-0.1s-0.1-0.1-0.2-0.1l-0.1-0.3c0.4-0.1,0.6-0.5,0.6-0.7c0,0,0-0.1,0-0.1c0,0,0,0,0,0c0,0,0-0.1,0-0.1h0
	c-0.1-0.4-0.5-0.5-0.7-0.5c0,0,0-0.1,0-0.1v0c0,0,0.1,0,0.1-0.1s0-0.1-0.1-0.1c0,0-0.1,0-0.2,0c-0.1,0-0.2,0-0.2,0
	c0,0-0.1,0-0.1,0.1s0,0.1,0,0.1v0c0,0,0,0.1,0,0.1c-0.3,0-0.7,0.1-0.8,0.5h0c0,0,0,0.1,0,0.1h0c0,0,0,0,0,0.1c0,0.2,0.2,0.5,0.5,0.7
	L17.3,42c-0.1,0-0.2,0.1-0.2,0.1c0,0,0,0.1,0.1,0.1l-0.5,1.3h0.1l0.1-0.3h1.5c0,0.1,0.1,0.3,0.3,0.3c0.1,0,0.3-0.1,0.3-0.3
	C19.1,43.2,18.9,43.1,18.8,43.1"/>
<path d="M40.2,38.8c0,0-6.8-2.1-16.1-2.1S8,38.8,8,38.8l-3.1-10c0,0,9.9-2.8,19.2-2.8s19.4,2.8,19.4,2.8L40.2,38.8z"/>
<path class="st13" d="M24.1,36.4c8.3,0,14.7,1.7,15.9,2.1l3.1-9.5c-1.6-0.4-10.7-2.7-19.1-2.7c-8.4,0-17.3,2.3-18.9,2.7l3,9.5
	C9.4,38.1,15.8,36.4,24.1,36.4z M7.8,39.1L4.6,28.7l0.3-0.1c0.1,0,10-2.8,19.3-2.8c9.3,0,19.3,2.7,19.4,2.8l0.3,0.1l-3.5,10.4
	L40.1,39c-0.1,0-6.8-2.1-16-2.1c-9.2,0-15.9,2.1-16,2.1L7.8,39.1z"/>
<path class="st13" d="M38.5,28.6c0-1.7,1.4-3.1,3.1-3.1c1.7,0,3.1,1.4,3.1,3.1c0,1.7-1.4,3.1-3.1,3.1C39.9,31.7,38.5,30.3,38.5,28.6
	"/>
<path d="M38.8,28.6c0-1.6,1.3-2.8,2.8-2.8s2.8,1.3,2.8,2.8c0,1.6-1.3,2.8-2.8,2.8C40,31.3,38.8,30.1,38.8,28.6"/>
<path class="st15" d="M40.7,29.5c-0.1,0.1-0.2,0.1-0.3,0.2c0,0-0.1,0-0.1,0.1c0.2,0.3,0.7,0.5,0.9,0.5C41,30,40.8,29.8,40.7,29.5
	 M42,30.3c0.4-0.1,0.7-0.3,0.9-0.6c-0.1-0.1-0.3-0.1-0.4-0.2c-0.1,0.1-0.1,0.3-0.2,0.4C42.2,30,42.1,30.1,42,30.3 M43,27.3
	c-0.3-0.3-0.6-0.5-1-0.6c0.2,0.2,0.4,0.5,0.5,0.8C42.7,27.4,42.8,27.4,43,27.3 M41.2,26.7c-0.4,0.1-0.7,0.3-0.9,0.6
	c0.1,0.1,0.3,0.1,0.4,0.2c0.1-0.1,0.1-0.3,0.3-0.4C41,27,41.1,26.9,41.2,26.7 M42.3,27.6c-0.1-0.3-0.4-0.6-0.7-0.9v1
	C41.9,27.7,42.1,27.7,42.3,27.6 M41.5,26.7c-0.3,0.3-0.5,0.5-0.7,0.9c0.1,0,0.5,0.1,0.7,0.1V26.7z M41.7,30.3
	c0.3-0.3,0.5-0.5,0.7-0.9c-0.2-0.1-0.4-0.1-0.7-0.1V30.3z M41.5,29.3c-0.2,0-0.4,0-0.7,0.1c0.1,0.4,0.4,0.7,0.7,0.9V29.3z
	 M42.5,28.4c0-0.2,0-0.4-0.1-0.6c-0.3,0-0.5,0.1-0.7,0.1v0.5H42.5z M41.5,27.9c-0.3,0-0.5-0.1-0.7-0.1c-0.1,0.1-0.1,0.5-0.1,0.6h0.8
	V27.9z M41.7,28.6v0.5c0.3,0,0.5,0.1,0.7,0.1c0.1-0.2,0.1-0.4,0.1-0.6H41.7z M41.5,28.6h-0.8c0,0.2,0,0.4,0.1,0.6
	c0.3,0,0.5-0.1,0.7-0.1V28.6z M40.1,29.6c0.2-0.1,0.3-0.2,0.5-0.3c-0.1-0.2-0.1-0.5-0.1-0.7h-0.7C39.8,29,40,29.4,40.1,29.6
	 M43.4,28.6h-0.7c0,0.3,0,0.5-0.1,0.7c0.2,0.1,0.3,0.2,0.5,0.3C43.3,29.3,43.4,29,43.4,28.6 M40.5,28.4L40.5,28.4
	c0-0.2,0.1-0.4,0.1-0.5c0,0,0-0.1,0-0.1c0,0-0.1,0-0.1-0.1c0,0,0,0,0,0c-0.1-0.1-0.2-0.1-0.4-0.2c-0.2,0.3-0.3,0.6-0.3,0.9
	L40.5,28.4L40.5,28.4z M43.4,28.4c0-0.4-0.2-0.8-0.3-0.9c-0.1,0.1-0.3,0.1-0.5,0.3c0,0,0,0,0,0c0,0.1,0.1,0.3,0.1,0.4
	c0,0.1,0,0.2,0,0.3H43.4z M41.7,30.5h-0.3c-0.1,0-0.1,0-0.2,0c-0.4-0.1-0.7-0.2-0.9-0.4c-0.4-0.3-0.6-0.7-0.7-1.2c0-0.1,0-0.2,0-0.3
	v-0.3c0-0.1,0-0.1,0-0.2c0.1-0.4,0.2-0.7,0.4-1c0.3-0.4,0.7-0.6,1.2-0.7c0.1,0,0.2,0,0.3,0h0.3h0c0.2,0,0.4,0.1,0.6,0.1
	c0.7,0.3,1.1,0.8,1.2,1.5c0,0.1,0,0.1,0,0.3v0.3v0c0,0.3-0.1,0.6-0.3,0.9c-0.3,0.5-0.8,0.8-1.4,1C41.9,30.5,41.8,30.5,41.7,30.5"/>
<path d="M33.4,27.4c-0.1,0.1-0.2,0.2-0.3,0.2c-2.9-0.4-6-0.7-9.1-0.7c-3.2,0-6.4,0.3-9.3,0.8c-0.1-0.2-0.1-0.4-0.1-0.6
	c0-0.2,0.1-0.4,0.1-0.6c2.9-0.4,6.1-0.8,9.3-0.8c3.1,0,6.4,0.3,9.2,0.7c0.1,0,0.2,0.1,0.2,0.1c0,0,0.1,0,0.1,0.1
	C33.7,26.8,33.7,27.2,33.4,27.4z"/>
<path class="st13" d="M16.8,24.7L16.8,24.7L16.8,24.7z M16.7,24.9L16.7,24.9l-0.1,0L16.5,25v0h0l0,0.1v0v0l0,0l0.1,0.1l0.1,0l0.1,0
	h0.1l0.1,0h0l0,0l0.1-0.1l0-0.1V25l0-0.1l0,0H17h0H16.7L16.7,24.9z M16.2,25.2L16.2,25.2L16.2,25.2z M16.2,25.1L16.2,25.1L16.2,25.1
	L16.2,25.1L16.2,25.1z M16.2,25.4L16.2,25.4L16.2,25.4L16.2,25.4L16.2,25.4z M16.2,25.5L16.2,25.5L16.2,25.5L16.2,25.5z M16.2,26.1
	L16.2,26.1L16.2,26.1L16.2,26.1L16.2,26.1L16.2,26.1L16.2,26.1L16.2,26.1z M16.1,25.4L16.1,25.4L16.1,25.4L16.1,25.4L16.1,25.4z
	 M16.1,26.2L16.1,26.2L16.1,26.2L16.1,26.2L16.1,26.2z M16.1,26.1L16.1,26.1L16.1,26.1L16.1,26.1z M15.3,27.3L15.3,27.3L15.3,27.3
	L15.3,27.3z M16.2,24.7L16.2,24.7l0.2-0.1l0,0l0.1,0l0.1,0l0.1,0l0.1,0H17h0.1h0l0.1,0h0l0.1,0.1h0l0,0l0,0v0l0,0l0.1,0.1l0,0.1V25
	v0.1v0.1l0,0.1l0,0.1l-0.1,0.1l-0.1,0.1v0l0,0h-0.1l-0.1,0l-0.1,0h-0.1h-0.1h0h-0.1h0l-0.1,0l0,0h0l-0.1,0h0h0l0,0v0l0,0.1l0,0.1
	l0,0.1h0v0l0.1,0.1l0,0v0v0.1l0,0.1l0,0v0.1l-0.1,0.1h-0.1l-0.1,0h-0.1H16h-0.1h-0.1l-0.1,0.1l-0.1,0l0,0l0,0l0,0.1l-0.1,0.1l0,0.1
	l0,0.2v0.1l0,0.1l0,0.1l0.1,0.1l0,0l0.1,0.1l0.1,0l0.1,0H16h0.1l0.2,0l0.1,0l0.1-0.1l0.1,0l0.1-0.1l0-0.1v0l0,0l0-0.1v0v-0.1l0-0.1
	v-0.1V27l0-0.1v0v-0.1l0,0l0.1,0l0.1,0h0l0.1,0.1l0,0l0,0.1l0,0.1v0.1v0.1v0.1l0,0.1l0,0.1h0l0,0.1l0,0v0l0,0v0l-0.1,0.1L16.8,28
	L16.7,28l0,0.1h0h-0.1l-0.1,0.1l-0.1,0h-0.1H16h0h-0.1h-0.1h-0.1l-0.1,0h0l0,0l-0.1,0L15.4,28l-0.1-0.1l-0.1,0l-0.1-0.1l0,0h0l0-0.1
	l0,0l0-0.1l0-0.1v-0.1v-0.1v0l0-0.1v0l0-0.1v0l0,0v0l0,0l0-0.1l0.1-0.1l0.1-0.1l0.1-0.1l0,0h0v0l0,0h0l0.1-0.1l0.1,0h0l0.1,0l0.1,0
	v0v-0.1l-0.1-0.1v-0.1v-0.1v-0.1v-0.1v-0.1v0v-0.1V25l0-0.1l0,0l0-0.1l0-0.1v0l0-0.1v-0.1l0,0l0,0h0.1h0l0.1,0l0,0L16.2,24.7
	L16.2,24.7L16.2,24.7z"/>
<path class="st13" d="M18.4,26.3L18.4,26.3L18.4,26.3z M18.4,27L18.4,27L18.4,27l-0.1,0v0H18.4L18.4,27L18.4,27z M18.3,26.7
	L18.3,26.7L18.3,26.7z M18.3,26.4L18.3,26.4L18.3,26.4L18.3,26.4l0.1,0.1h0h0v0L18.3,26.4L18.3,26.4L18.3,26.4L18.3,26.4z M18.3,26
	L18.3,26L18.3,26L18.3,26L18.3,26z M18.2,26.8L18.2,26.8l0.1,0L18.2,26.8L18.2,26.8L18.2,26.8L18.2,26.8L18.2,26.8L18.2,26.8
	L18.2,26.8z M18.3,26.1L18.3,26.1L18.3,26.1L18.3,26.1L18.3,26.1z M18.1,26.9L18.1,26.9l0.1,0L18.1,26.9L18.1,26.9z M18.6,26
	l0.1-0.1l0.1-0.1l0-0.1l0.1-0.1l0.1-0.1l0,0l0,0l0.1,0h0.1l0.1,0l0.1,0.1l0,0.1v0.1l-0.1,0.1l-0.1,0.1L19.1,26L19,26.1L19,26.2v0
	l-0.1,0.1l0,0v0l-0.1,0.1l-0.1,0.1v0l0,0v0.1v0.1V27v0.1v0.1v0.1l0,0l0,0v0h0h0.1l0.1,0l0.1-0.1l0,0h0l0.1-0.1l0.1-0.1l0.1-0.1
	l0.1-0.1l0.1-0.1v0h0v0l0-0.1v0l0,0h0l0,0l0,0v0v0l0,0.1l0,0v0l-0.1,0.1v0v0v0l-0.1,0.1l0,0v0l-0.1,0.1l-0.1,0.1l-0.1,0.1l-0.1,0.1
	L19,27.7h0l-0.2-0.1l-0.1,0l-0.1,0l-0.1,0h-0.1l-0.1,0l-0.1,0l0,0l0-0.1v0l0-0.1l-0.1-0.1h0l-0.1,0l0,0l-0.1,0.1l0,0v0l-0.1,0.1
	l0,0.1l-0.1,0.1l-0.1,0h-0.1h-0.1l0,0v0l0-0.1l0.1-0.1l0.1-0.1l0.1-0.1v0l0.1-0.1v0l0,0l0.1-0.1l0.1-0.1l0.1-0.1l0-0.1l0-0.1v-0.1
	v-0.1v-0.1v-0.1v-0.1v0v0l0.1-0.1h0l-0.1,0l0,0.1h0v0l0,0l0,0.1l0,0.1l-0.1,0.1v0l0,0.1l0,0.1l0,0.1l-0.1,0.1h0h0h0l0,0v0v-0.1
	l0-0.1l0-0.1l0,0v0l0,0l0-0.1v0v0l0,0v0l0-0.1l0,0l0-0.1l0,0v0l0.1-0.1l0.1-0.1h0l0-0.1h0l0,0l0.1,0h0.1h0.1h0l0.1,0l0.1,0.1
	l0.1,0.1l0,0.1l0,0.1L18.6,26z"/>
<path class="st13" d="M20.7,25.9L20.7,25.9l0-0.1L20.7,25.9L20.7,25.9z M20.7,26.4L20.7,26.4L20.7,26.4L20.7,26.4z M20.5,27.1
	L20.5,27.1L20.5,27.1z M20.3,27.1L20.3,27.1L20.3,27.1L20.3,27.1L20.3,27.1z M20.3,27.2L20.3,27.2L20.3,27.2L20.3,27.2L20.3,27.2
	L20.3,27.2z M19.7,26.5L19.7,26.5L19.7,26.5z M19.4,26.9L19.4,26.9L19.4,26.9L19.4,26.9L19.4,26.9z M20.6,27.1L20.6,27.1l0.1-0.1
	l0.1-0.1l0.1-0.1l0.1-0.1l0.1-0.1l0,0v0v0h0v0l0.1-0.1v0v0v0v0l0.1-0.1h0h0.1l0.1,0l0,0v0.1l0,0v0l0,0v0v0l0,0.1l0,0.1l-0.1,0.1v0
	l0,0l0,0l0,0h0v0h0l-0.1,0.1l0,0h0h0l0,0.1h0l0,0l0,0l0,0h0h0l0,0l-0.1,0h0h0h-0.1l-0.1,0l-0.1,0h-0.1h-0.1H20H20h0h0h0l-0.1,0
	l-0.1-0.1v0v0l0.1-0.1l0.1,0l0.1,0H20l0.1,0l0.1-0.1l0,0l0,0v0l0,0l0,0v0l0,0l0,0l0,0v0v0l0-0.1h0v0v0l0-0.1v0v0v0l0-0.1v-0.1v-0.1
	V26v-0.1l0-0.1l0,0h0h-0.1h0h0h0l-0.1,0h0l-0.1,0.1l0,0v0v0v0l0,0v0.1l0,0.1l-0.1,0.1l0,0.1l0,0.1l0,0.1l0,0.1l0,0.1l0,0.1l0,0.1
	l0,0.1l0,0.1l0,0.1l0,0.1l0,0.1l0,0.1v0l0,0.1l0,0.1l0,0.1v0h0v0l-0.1,0.1H19h-0.1h-0.1v0v0v0v-0.1v0l0-0.1v0v0v0l0-0.1l0-0.1l0-0.1
	l0-0.1l0-0.1v0l0-0.1v0v0l0-0.1l0-0.1l0-0.1l0-0.1l0-0.1l0-0.1v0l0-0.1v0l0-0.1l0,0v0l0-0.1l0-0.1v0v-0.1v0l0-0.1v0l0,0l0-0.1v0l0,0
	h0h0.1h0h0h0h0h0h0h0h0h0.1l0.1-0.1l0,0h0l0.1,0l0.1,0l0.1,0h0.1l0.1,0h0l0.1,0.1l0,0h0l0,0.1l0,0.1v0.1v0.1V26v0.1v0.1v0l0,0.1
	l0,0.1l0,0.1l-0.1,0.1v0v0v0L20.7,27L20.6,27.1L20.6,27.1z"/>
<path class="st13" d="M22.7,25.7L22.7,25.7L22.7,25.7z M22.4,25.6h-0.1l0,0h0l-0.1,0.1h0L22,25.8l0,0.1L21.9,26v0.1v0l0,0.1l0,0h0
	h0.1h0l0,0h0l0,0l0,0h0l0.1-0.1l0-0.1l0-0.1l0-0.1v-0.1L22.4,25.6z M21.5,26.4L21.5,26.4L21.5,26.4L21.5,26.4z M21.5,26.5L21.5,26.5
	L21.5,26.5z M22.3,25.2h0.1h0h0.1l0,0l0.1,0l0,0l0.1,0v0v0l0,0.1l0,0.1v0.1l0,0.1v0l0,0.1V26l0,0.1v0l0,0l0,0l-0.1,0.1l0,0v0l-0.1,0
	h0v0h0l-0.1,0h0h-0.1h0H22h-0.1h-0.1l-0.1,0v0.1v0.1l0,0l0.1,0.1l0.1,0h0H22h0.1l0.1,0l0.1,0l0.1-0.1l0.1-0.1h0h0l0-0.1h0l0-0.1h0
	l0.1-0.1l0.1-0.1l0.1-0.1l0.1-0.1l0,0v0l0.1-0.1h0.1l0.1,0l0,0l0,0.1v0.1v0l-0.1,0.1l0,0l0,0v0l-0.1,0.1v0l-0.1,0.1L23,26.9L22.9,27
	l-0.1,0.1h0h0h0l-0.1,0l-0.1,0.1h0l-0.1,0h-0.1l-0.1,0h0l-0.1,0h-0.1l-0.1,0h-0.1h-0.1l-0.1,0h-0.1l-0.1,0l0,0l0,0h0l0-0.1l0,0
	l0-0.1l0-0.1v-0.1v-0.1v-0.1l0-0.1l0-0.1v0l0-0.1l0-0.1l0,0l0-0.1v0l0.1-0.1l0-0.1l0.1-0.1l0,0l0-0.1l0,0l0,0h0l0.1-0.1h0v0l0.1,0
	l0.1,0L22.3,25.2L22.3,25.2z"/>
<path class="st13" d="M23.9,26.3L23.9,26.3L23.9,26.3z M24.4,26.7l0.1-0.1l0-0.1l0,0v0h0v0l0,0l0-0.1l0.1-0.1l0,0h0.1h0l0.1,0.1v0.1
	l0,0.1l0,0.1v0v0v0l-0.1,0.1v0l-0.1,0.1l-0.1,0.1l0,0l0,0l0,0.1l-0.1,0.1l-0.1,0.1l-0.1,0.1l0,0H24h-0.1l-0.1,0h0l0,0l-0.1,0v0
	l0-0.1v-0.1v-0.1l0-0.1l0-0.1l0-0.1l0-0.1l0,0l0-0.1l0-0.1l0-0.1v-0.1v0v-0.1l0-0.1l0,0l-0.1-0.1h0h0l0,0v0l0,0v0.1l0,0.2l-0.1,0.1
	v0l0,0v0l0,0.1l0,0v0h0h-0.1h0l-0.1-0.1v0l0.1-0.1l0-0.1l0,0v0l0,0v0l0-0.1v0l0.1-0.1l0-0.1v-0.1v-0.1l0,0v0l0,0v-0.1v-0.1v-0.1
	l0-0.1l0.1-0.1l0,0h0l0,0h0h0.1l0.1,0l0,0l0.1,0l0,0v0v0.1l-0.1,0l-0.1,0.1v0l0,0l0,0l0.1,0l0.1,0.1l0,0v0h0l0.1,0.1l0,0l0,0.1
	l0,0.1v0V26l0,0.1v0.1h0v0l0,0.1l0,0.1v0l0,0v0l0,0v0.1v0.1l0,0.1v0.1v0.1l0,0.1h0h0h0l0.1-0.1l0.1-0.1L24.4,26.7L24.4,26.7
	L24.4,26.7z"/>
<path class="st13" d="M25.9,24.8L25.9,24.8l-0.1,0.1h0l0,0h-0.1l-0.1,0l0,0v0l0-0.1v-0.1v-0.1l0,0l0,0l0-0.1l0.1,0h0.1h0.1l0.1,0
	l0,0l0,0l0,0v0L25.9,24.8z M25.2,25.9L25.2,25.9L25.2,25.9z M24.9,26.7L24.9,26.7L24.9,26.7L24.9,26.7L24.9,26.7z M24.7,26.9
	L24.7,26.9L24.7,26.9L24.7,26.9z M25.6,25.3l0,0.1l0,0.1l0,0.1l0,0v0v0l0,0.1l0,0.1l0,0.1v0l-0.1,0.1l0,0.1v0v0v0.1l0,0.1l0,0.1
	l0,0.1l0,0v0v0.1l0,0.1v0.1V27l0,0l0,0h0.1l0.1-0.1l0,0l0,0l0,0v0l0,0l0.1-0.1l0.1-0.1v0h0v0h0v0l0.1-0.1v-0.1l0,0l0,0H26l0,0l0,0
	l0,0v0.1L26,26.6l0,0v0l0,0v0l0,0v0v0l-0.1-0.1v0h0v0l0,0l0,0L25.6,27l-0.1,0.1h0l0,0l-0.1,0.1l0,0h0l-0.1,0H25h-0.1h-0.1h0l-0.1,0
	h0l0,0l0,0v0L24.5,27v0v-0.1v-0.1l0-0.1v0v-0.1l0-0.1l0-0.1l0,0l0-0.1v-0.1v0v0h0V26v0l0,0v0l0-0.1l0-0.1v0l0-0.1l0.1-0.1l0.1-0.1
	l0-0.1l0,0l0,0h0.3h0h0L25.6,25.3z"/>
<path class="st13" d="M27.2,25.7L27.2,25.7L27.2,25.7z M26.9,25.6h-0.1l0,0h0l-0.1,0.1h0l-0.1,0.1l0,0.1L26.5,26h0v0l0,0.1l0,0h0
	h0.1h0l0,0h0l0,0h0h0l0.1-0.1l0.1-0.1l0.1-0.1l0-0.1l0-0.1H26.9z M26,26.3L26,26.3L26,26.3z M26,26.4L26,26.4L26,26.4z M26.9,25.2
	h0.1l0,0l0.1,0l0,0l0.1,0l0,0l0.1,0.1v0v0v0.1v0.1v0.1l0,0.1v0l0,0.1l0,0l0,0.1l0,0l0,0l0,0l0,0l-0.1,0l0,0l-0.1,0h0v0h0l-0.1,0h0
	h-0.1h0h-0.1h-0.1h-0.1l-0.1,0l0,0.1v0.1v0l0.1,0.1l0,0l0,0l0.1,0h0.1h0.1l0.1,0l0.1,0l0.1-0.1h0h0l0,0h0l0,0h0l0.1-0.1l0.1-0.1
	l0.1-0.1l0.1-0.1l0,0v0l0.1-0.1h0.1l0.1,0l0,0l0,0.1v0.1v0l-0.1,0.1l0,0l0,0v0v-0.1v0l-0.1,0.1l-0.1,0.1L27.3,27l0,0.1h0l0,0h0
	l-0.1,0l-0.1,0.1h0h-0.1h-0.1l-0.1,0h0h-0.1h-0.1h-0.1h-0.1h-0.1l-0.1,0H26l-0.1-0.1l0,0l0,0h0l0-0.1v0v-0.1v-0.1v-0.1l0-0.1v-0.1
	l0-0.1l0-0.1v0l0-0.1l0-0.1l0,0l0-0.1v0l0.1-0.1l0.1-0.1l0.1-0.1l0,0l0,0l0,0l0,0h0l0.1-0.1h0v0l0.1,0l0.1,0H26.9L26.9,25.2z"/>
<path class="st13" d="M29.1,25.9L29.1,25.9L29.1,25.9z M29,25.7L29,25.7L29,25.7z M28.9,26L28.9,26L28.9,26z M28.7,26.3L28.7,26.3
	L28.7,26.3L28.7,26.3L28.7,26.3z M28.8,27.2L28.8,27.2h0.1h0h0l0,0h0l0.1-0.1l0,0l0.1-0.1l0,0v0l0.1-0.1l0.1-0.1v0l0,0l0.1-0.1
	l0-0.1l0.1,0l0,0h0l0,0v0l-0.1,0.1l-0.1,0.1h0l-0.1,0.1L29.5,27l0,0.1h0v0l-0.1,0.1l-0.1,0.1h0l0,0h0v0h0l-0.1,0L29,27.5h-0.1
	l-0.1,0h-0.1h-0.1l0,0l0,0l0,0l0-0.1l0,0v-0.1v-0.1V27v-0.1l0-0.1l0-0.1v0v0l0,0h0v0l0-0.1l0-0.1l0,0l0-0.1l0-0.1l0,0v0l0,0l0-0.1
	l0-0.1h-0.1l-0.1,0l-0.1,0.1l-0.1,0.1l0,0l0,0h-0.1l0,0.1l0,0.1v0l0,0l0,0.1L28,26.4l-0.1,0.1l0,0.1h0l0,0.1l-0.1,0.1v0.1l0,0
	l-0.1,0.1l0,0.1l-0.1,0.1l0,0h0h-0.1h-0.1l0,0h-0.1l0,0v-0.1l0-0.1l0-0.1l0.1-0.1l0.1-0.1v0l0,0l0-0.1l0,0l0-0.1l0.1-0.1l0-0.1
	l0.1-0.1l0.1-0.1l0.1-0.1l0-0.1l0.1-0.1l0-0.1l0.1-0.1l0.1-0.1l0,0l0,0h0l0,0l0.1,0l0,0l0.1,0.1h0l0.1,0l0.1-0.1l0.1,0h0l0.1,0
	l0.1,0h0.1h0.1h0.1l0,0l0.1,0.1l0,0.1v0v0.1l-0.1,0.1l0,0.1l0,0.1l0,0.1l0,0l0,0.1v0L29,26.4v0L29,26.5l0,0.1v0.1v0l0,0v0l0,0.1
	l0,0.1V27.2L28.8,27.2z"/>
<path class="st13" d="M30.2,26L30.2,26L30.2,26z M29.7,26.5L29.7,26.5L29.7,26.5z M30.6,26.4L30.6,26.4l0.1-0.2l0-0.1v-0.1v0v0v-0.1
	h-0.1h-0.1l0,0h0L30.4,26v0v0l0,0l-0.1,0.1l0,0.1h0v0l-0.1,0.1l0,0.1L30,26.6l-0.1,0.1l0,0.1l0,0.1V27l0,0.1l0,0.1l0.1,0.1l0.1,0
	h0.1h0.1h0h0h0l0.1,0l0.1,0l0.1-0.1h0l0,0l0.1,0L31,27l0,0v0l0,0v0l0,0l0.1-0.1v0h0v0h0v0l0,0l0.1-0.1h0l0.1,0l0,0v0v0.1l0,0.1v0
	L31.4,27h0l-0.1,0.1h0v0h0v0h0v0l-0.1,0.1l0,0l0,0v0h0v0h0h0l0,0l-0.1,0.1l-0.1,0l0,0h0h0h-0.1h0h0h-0.1h0l-0.1,0h0l-0.1,0h0h0
	l-0.1-0.1h-0.1h0l-0.1-0.1l-0.1-0.1v-0.1l0-0.1V27v0v-0.1l0-0.1l0-0.1l0-0.1v0l0,0l0-0.1l0.1-0.1l0-0.1l0.1-0.1v0v0l0.1-0.1l0,0v0
	l0,0l0.1-0.1h0l0.1,0l0.1,0l0.1,0h0h0h0h0h0.1h0.1h0.1l0.1,0l0.1,0l0.1-0.1l0,0v0l0,0l0,0v0.1V26v0.1l0,0.1v0.1l-0.1,0.1v0L31,26.5
	h-0.1h-0.1L30.6,26.4L30.6,26.4z"/>
<path class="st13" d="M32.7,26.2L32.7,26.2L32.7,26.2z M32.4,26.1h-0.1h-0.1h0l-0.1,0.1h0L32,26.3l0,0.1l-0.1,0.1l0,0.1v0l-0.1,0.1
	l0,0h0H32h0h0h0l0,0h0h0l0.1-0.1l0.1-0.1l0.1-0.1l0-0.1L32.4,26.1L32.4,26.1z M31.4,26.8L31.4,26.8L31.4,26.8z M31.4,26.8L31.4,26.8
	L31.4,26.8z M32.4,25.7h0.1l0,0l0.1,0l0,0l0.1,0l0,0.1l0.1,0.1v0v0v0.1v0.1v0.1l0,0.1v0l0,0.1l0,0l0,0.1h-0.1l0,0l-0.1,0.1l-0.1,0h0
	l-0.1,0h0h0h0l-0.1,0h0H32h0h-0.1h-0.1h-0.1l-0.1,0l0,0.1v0.1v0l0.1,0.1l0,0l0,0l0.1,0l0.1,0H32l0.1,0l0.1,0l0.1,0h0h0l0.1,0h0l0,0
	h0l0.1-0.1l0.1-0.1l0.1-0.1l0.1-0.1l0,0v0l0.1-0.1H33l0,0l0,0v0.1v0.1v0L33,27.3l0,0l0,0v0l-0.1,0v0l-0.1,0.1l0-0.1l-0.1,0.1
	l-0.1,0.1h0v0h0l-0.1,0l-0.1,0.1h0h-0.1h-0.1l-0.1,0h0h-0.1l-0.1,0h-0.1l-0.1,0h-0.1l-0.1,0h-0.1l-0.1-0.1l0,0l0,0l0,0l0-0.1l0-0.1
	v0v-0.1v-0.1V27l0-0.1l0-0.1l0-0.1l0-0.1v0l0.1-0.1l0.1-0.1l0,0l0-0.1v0l0.1-0.1l0.1-0.1l0.1-0.1l0,0l0,0l0,0l0,0h0l0.1,0h0l0,0h0.1
	l0.1,0L32.4,25.7L32.4,25.7z"/>
<path class="st13" d="M20.2,29.8L20.2,29.8L20.2,29.8L20.2,29.8L20.2,29.8z M19.8,30.5L19.8,30.5L19.8,30.5L19.8,30.5z M19.5,31.2
	L19.5,31.2L19.5,31.2l0.1,0.1v-0.1L19.5,31.2L19.5,31.2z M19.3,32L19.3,32L19.3,32L19.3,32z M19.2,32.9L19.2,32.9L19.2,32.9
	L19.2,32.9L19.2,32.9z M17.7,30.8L17.7,30.8L17.7,30.8L17.7,30.8z M17.6,31.3L17.6,31.3L17.6,31.3z M17.5,35.1L17.5,35.1L17.5,35.1
	l0.1,0L17.5,35.1z M17.5,32.2L17.5,32.2L17.5,32.2L17.5,32.2L17.5,32.2z M17.4,32L17.4,32L17.4,32L17.4,32L17.4,32z M17.4,32.6
	L17.4,32.6v-0.1h0L17.4,32.6L17.4,32.6z M17.3,30.8L17.3,30.8L17.3,30.8L17.3,30.8z M17.3,31.3L17.3,31.3l-0.1,0L17.3,31.3
	L17.3,31.3z M17.1,32L17.1,32L17.1,32L17.1,32L17.1,32z M17.1,32.9L17.1,32.9v-0.1V32.9z M17,32.9h0.1H17L17,32.9L17,32.9z
	 M16.9,33.6l0.1,0v-0.1h0L16.9,33.6L16.9,33.6L16.9,33.6z M16.9,34.1L16.9,34.1l0-0.1L16.9,34.1L16.9,34.1L16.9,34.1z M16.8,33.8
	L16.8,33.8l0.1,0.1v0L16.8,33.8L16.8,33.8z M16.8,34.4l0-0.1l-0.1,0L16.8,34.4L16.8,34.4L16.8,34.4z M16.7,33.5L16.7,33.5L16.7,33.5
	L16.7,33.5L16.7,33.5L16.7,33.5z M16.6,33.7L16.6,33.7L16.6,33.7h0.1v0L16.6,33.7L16.6,33.7z M16.6,34.1L16.6,34.1L16.6,34.1
	L16.6,34.1z M16.5,34.2L16.5,34.2L16.5,34.2l0.1-0.1l-0.1,0v0V34.2L16.5,34.2z M15.5,30.5L15.5,30.5L15.5,30.5l0-0.1L15.5,30.5
	L15.5,30.5z M15.3,31.2L15.3,31.2L15.3,31.2L15.3,31.2l0-0.1l0,0V31.2z M15.2,30.6h0.1l0,0L15.2,30.6L15.2,30.6z M15.3,31.6
	L15.3,31.6l-0.1-0.1v0.1H15.3L15.3,31.6z M15.1,31.4L15.1,31.4L15.1,31.4L15.1,31.4L15.1,31.4L15.1,31.4z M15.1,30.4L15.1,30.4
	L15.1,30.4L15.1,30.4L15.1,30.4z M15,31.8L15,31.8L15,31.8L15,31.8L15,31.8z M15.1,31L15.1,31L15,30.8h0v0.1L15.1,31L15.1,31
	L15.1,31z M15,31.6l0-0.1h0V31.6L15,31.6z M15,30.6L15,30.6L15,30.6L15,30.6L15,30.6L15,30.6z M15,31.3L15,31.3L15,31.3L15,31.3
	L15,31.3z M14.9,32.4L14.9,32.4l0.1-0.1l0,0v-0.1l0,0h-0.1v0.1L14.9,32.4z M14.9,32L14.9,32L14.9,32L14.9,32z M14.9,35L14.9,35
	L14.9,35L14.9,35L14.9,35z M14.8,35.2L14.8,35.2L14.8,35.2L14.8,35.2L14.8,35.2z M14.8,32.3l0-0.1h0L14.8,32.3L14.8,32.3L14.8,32.3z
	 M14.7,31.2L14.7,31.2L14.7,31.2l0.1,0.1v0l0,0.1v0.1l0,0l0,0h0l0-0.1l0.1,0l0,0v-0.1h0l-0.1-0.1H14.7L14.7,31.2L14.7,31.2
	L14.7,31.2L14.7,31.2z M14.6,35.3L14.6,35.3L14.6,35.3L14.6,35.3z M14.7,30.7h-0.1v0l0.1,0.3l0,0h0.1V31l-0.1-0.1V30.7h0.1v-0.1l0,0
	L14.7,30.7z M14.6,31.4L14.6,31.4l0.1,0l0-0.1h-0.1V31.4L14.6,31.4z M14.6,31.5l-0.1-0.1L14.6,31.5L14.6,31.5z M14.5,34.1L14.5,34.1
	L14.5,34.1L14.5,34.1L14.5,34.1z M14.5,35.5L14.5,35.5L14.5,35.5L14.5,35.5L14.5,35.5L14.5,35.5z M14.4,35L14.4,35L14.4,35L14.4,35z
	 M14.3,33.8L14.3,33.8L14.3,33.8L14.3,33.8L14.3,33.8L14.3,33.8z M14.3,33.9L14.3,33.9L14.3,33.9L14.3,33.9L14.3,33.9L14.3,33.9
	L14.3,33.9L14.3,33.9l0-0.1h-0.1L14.3,33.9z M16.4,35.1l-0.1,0.1l-0.2,0.2L16,35.5l-0.2,0.1l-0.1,0.1l0,0.1h-0.1l0,0h-0.1l0,0
	l-0.1,0l0,0l-0.1,0L15,36l-0.2,0l-0.3,0l-0.3,0l-0.1,0L14,35.9l-0.1-0.1h0h0v0v0l0-0.1l-0.1-0.3l0-0.3v-0.3v-0.3v-0.3v-0.1l0-0.1
	l0-0.2l0.1-0.3v-0.1v0l0-0.2L14,33l0-0.2l0.1-0.2l0,0v-0.1l0,0l0-0.2l0.1-0.2l0-0.3v-0.1l-0.1-0.1l-0.3,0.1l-0.2,0.1L13.5,32l-0.1,0
	l-0.2,0.1l-0.2,0.1h0l0,0l-0.1,0l-0.1,0.1l-0.1,0.1l-0.1,0.2l0,0.1l0,0.1l0,0l0.1,0.1l0.1,0l0.1,0.1l0.1,0.1l0,0.3l0,0.3l0,0.3v0.1
	l0,0l0,0.1h0l0,0l-0.1,0l-0.1,0l-0.3,0l-0.3,0l-0.1-0.1l0,0h0l0,0h0L12.1,34h0l-0.1-0.1l0,0l0,0l-0.1-0.1l0-0.1l0,0l0,0v0v0h0v0l0,0
	l0-0.1l0,0l0-0.3l0-0.3l0-0.1l0-0.2l0-0.3v-0.1l0,0v0l0.1-0.2l0.1-0.1l0-0.1l0,0v0l0.1-0.1h0l0-0.1h0h0l0,0l0.1-0.1l0,0h0v0h0h0
	l0.2-0.1h0v0l0.2-0.1l0.2-0.1l0.2-0.1l0.2-0.1l0.2-0.1l0.1-0.1l0.2-0.1l0.1,0l0.1-0.1l0.1,0l0.2-0.1l0.2-0.2l0.1-0.2l0.2-0.2l0,0h0
	l0.1,0v0l0.2-0.1l0.3-0.1h0.1l0.1,0l0.1,0.1l0.1,0.1l0.1,0.2l0,0l0.1,0.2h0.1l-0.1,0.2L16,30.2v0l0,0v0l0,0v0.1l-0.1,0.1v0.1v0v0
	l0,0l0,0.3V31l0,0v0.1l-0.1,0.3v0.1l-0.1,0.3v0.1l0,0v0v0.1v0l-0.1,0.1l0,0.3l0,0.2l0,0l0,0.3l-0.1,0.3l-0.1,0.2l0,0.3l-0.1,0.3
	l0,0.1v0.3l0,0.3v0.1l0,0.1l0.1,0.1l0.1,0l0.1-0.1l0.1-0.1l0.1-0.2l0.1-0.1l0.1-0.1v0l0,0v0l0,0v0l0,0v0l0.1-0.1l0.1-0.2l0.1-0.3
	l0-0.3l0-0.1l0,0v-0.2l0-0.1v-0.1l0,0v0l0.1-0.2v-0.1l0,0l0-0.2l0.1-0.2l0-0.3l0.1-0.2l0-0.2l0-0.3l0-0.1v-0.1l0-0.1l0-0.3l0-0.2
	l0-0.1l0.1-0.3l0.1-0.1l0.2-0.1l0.3,0l0.3,0l0.3,0h0.1l0.1,0l0.1,0.1l0,0.1v0.1L18.3,30l-0.1,0.4l0,0.1l0,0.1l0,0.3V31v0l0,0.3
	L18,31.5v0.1l0,0v0l0,0.1l0,0.3l-0.1,0.3v0.1l0,0l0,0.2l-0.1,0.3l-0.1,0.3l0,0.3l-0.1,0.5l-0.1,0.2v0.1v0.1l0.1,0.1l0,0h0.1l0.1-0.1
	l0.2-0.2L18,34l0-0.1l0.1-0.1v0l0.1-0.2v0l0.1-0.1v0l0,0v0v0v0h0v-0.1l0-0.1V33l0,0v0l0-0.1l0.1-0.3l0-0.3v0v0h0v0V32l0,0l0-0.2
	l0.1-0.3l0.1-0.3v-0.1l0-0.2v0h0v0l0-0.3l0.1-0.3l0-0.2l0-0.2v-0.1l0.1-0.2v0l0.1-0.3l0.1-0.2l0.1-0.2l0.1,0v0l0.1-0.1v0h0h0v0h0h0
	h0h0v0l0.1,0l0.1-0.1l0.3-0.1l0.3-0.1l0.2,0l0,0l0.3,0h0.1v0h0.1l0.1,0.1l0.1,0.1l0,0.1l0,0.3v0v0.2l0,0.1l-0.1,0.1l-0.3,0.1
	L21,29.5h0v0.1l0,0l-0.1,0.2l-0.1,0.1l0,0.2v0.1l-0.1,0.2l0,0.2l-0.1,0.1l-0.1,0.1l0,0.1v0.1l0,0.1v0.1v0l-0.1,0.3v0v0l0,0.3l0,0.2
	l-0.1,0.1l0,0.2L20,32.6v0.1l0,0l0,0.1l-0.1,0.2v0l0,0.1l0,0.2l0,0v0.1l0,0v0h0v0v0.1l0,0l0,0.1l0,0v0l0,0v0.1l0,0.1l0,0v0l-0.1,0.2
	l-0.1,0.2L19,34.9L19,35l0,0h-0.1h0l0,0h0l-0.2,0.2l-0.1,0.1l-0.1,0.1l-0.1,0l-0.2,0.1l-0.1,0l-0.1,0h-0.3l-0.3,0l-0.1,0h-0.1
	l-0.1,0l-0.2-0.1l0,0l0,0l-0.1-0.1L16.4,35.1L16.4,35.1z"/>
<path class="st13" d="M24,33.1L24,33.1L24,33.1L24,33.1z M24,32.1L24,32.1L24,32.1L24,32.1z M23.9,32.9L23.9,32.9L23.9,32.9v-0.1
	V32.9z M23.9,33.3L23.9,33.3L23.9,33.3z M23.9,32.5L23.9,32.5L23.9,32.5L23.9,32.5z M23.7,33.8L23.7,33.8L23.7,33.8L23.7,33.8z
	 M23.7,32.7l0.1-0.1h0h0V32.7z M23.7,33.7L23.7,33.7L23.7,33.7L23.7,33.7z M23.6,33.5l0.1,0l0.1,0h0l0,0l0,0h-0.1h0v0h0h-0.1
	L23.6,33.5z M23.5,33L23.5,33L23.5,33L23.5,33L23.5,33z M23.5,33.4L23.5,33.4L23.5,33.4L23.5,33.4L23.5,33.4z M23.4,33.8l-0.1,0v0
	l0,0h0L23.4,33.8L23.4,33.8l0.1-0.1v0L23.4,33.8z M21.9,32.3L21.9,32.3L21.9,32.3L21.9,32.3L21.9,32.3z M22.9,31.7L22.9,31.7
	l-0.1,0.1h0v0l-0.1,0.1l-0.1,0.2h0l0,0.1l-0.1,0.2l-0.1,0.1l0,0.1h0l0,0.2v0l0,0.1L22,33.2l0,0.3l0,0.3v0.1l0,0l0,0.1l0.1,0.1
	l0.1,0.1l0.1,0h0.1l0.1-0.1l0.1-0.1l0.1-0.1l0-0.1v-0.1l-0.1-0.3l0-0.3l0.1-0.3l0.1-0.1l0.2-0.1l0.1-0.1l0.1,0h0l0.1-0.1l0-0.1
	l0-0.3l0-0.2L23.3,32l-0.1-0.1l-0.1,0H23L22.9,31.7z M21.4,32.7L21.4,32.7L21.4,32.7l0.1,0v-0.1L21.4,32.7z M21.3,33.7L21.3,33.7
	L21.3,33.7L21.3,33.7L21.3,33.7z M21.2,32.9L21.2,32.9L21.2,32.9l0.2,0.1l0.1,0h0.1v0v0.1v0l0-0.1v0l0,0l-0.1-0.1l0-0.1h0L21.2,32.9
	L21.2,32.9z M24.6,33.5l0.1,0l0.1-0.1h0l0-0.1l0.1,0l0.1-0.2l0.2-0.2l0.1-0.1l0.1-0.1l0.1,0l0.2,0.1l0.1,0.1l0,0.1V33l0,0.1
	l-0.1,0.2l-0.1,0.1l-0.1,0.1l0,0.1l-0.1,0.1l-0.1,0.2h0l0,0h0l0,0h-0.1L25,34h-0.1v0.1l-0.1,0l0,0l-0.3,0.1l-0.1,0l-0.3,0l-0.3,0.1
	l-0.2,0.1l-0.2,0.2h0l-0.1,0l0,0l-0.2,0.1L23,35H23l-0.3,0.1l-0.2,0h-0.3h-0.3l-0.2,0L21.5,35l-0.2-0.1l-0.1,0l0-0.1h-0.1l-0.2-0.2
	l0,0v0l-0.1-0.1l0,0l0-0.1l0,0l0-0.1l0-0.1v-0.2v-0.3v-0.3v-0.2l0-0.2v-0.1l0.1-0.1v0h0v-0.1h0l0.1-0.2l0.1-0.1v0l0.1-0.2l0-0.1
	l0.1-0.1l0,0v0l0.1,0l0-0.1l0.1-0.1l0.1-0.1l0,0h0v0h0l0.1-0.1h0.1l0.1-0.1L22,31l0.1-0.1l0.2-0.1l0.3,0h0.3l0.1,0l0.3,0h0.1h0
	l0.3,0l0.2,0.1l0.1,0h0.1v0l0.2,0.1l0.2,0.2l0.1,0.2l0,0l0,0.1l0,0l0.1,0.3l0,0.2l0,0.1v0.3v0.3l0,0.2l-0.1,0.1l0,0.1L24.6,33.5
	L24.6,33.5z"/>
<path class="st13" d="M27.8,32.6L27.8,32.6L27.8,32.6L27.8,32.6L27.8,32.6z M27.6,32.5L27.6,32.5L27.6,32.5L27.6,32.5L27.6,32.5z
	 M27.4,32.8L27.4,32.8L27.4,32.8L27.4,32.8z M27.4,33.3L27.4,33.3L27.4,33.3L27.4,33.3z M27.3,33.5L27.3,33.5L27.3,33.5L27.3,33.5
	L27.3,33.5z M27.2,33.7h0.1l0,0h0l0,0H27.2L27.2,33.7z M27,33.9L27,33.9L27,33.9l0.1,0.1v0L27,33.9L27,33.9z M26.9,34.1H27v0
	L26.9,34.1L26.9,34.1z M27.8,34.3H28l0.1-0.1l0.1-0.1l0.1-0.1l0.2-0.1v0v0v0l0,0v-0.1l0,0v0h0l0-0.1l0.1-0.1l0-0.1l0,0v0h0l0.2-0.3
	l0.1,0h0.1l0.2,0.1l0,0l0.1,0l0.1,0.1l0,0.1v0.1l-0.1,0.2l-0.1,0h0v0h0v0l0,0v0h0v0l0,0v0h0v0l0,0v0l0,0v0l0,0v0.1h0v0h0l0,0
	l-0.2,0.2l-0.2,0.2l-0.4,0.3h-0.1v0L28,35.1l-0.1,0.1l-0.1,0h0v0l-0.1,0h-0.3l-0.3,0l-0.2-0.1l-0.1-0.1l-0.2-0.2l0,0v0l-0.1-0.1
	l0-0.1v-0.1v-0.2V34l0-0.3l0.1-0.2l0.1-0.2l0.1-0.1v0h0l0,0l0.1-0.2l0.1-0.1l0.1-0.2v-0.2l-0.1-0.1l-0.1-0.2h-0.1l-0.1,0l0,0.1
	l-0.1,0l0,0.1v0v0l0,0v0v0v0l-0.1,0.2l-0.2,0.2l-0.1,0.2l-0.2,0.1l-0.1,0L25.5,33l0-0.1v0v-0.1l0.1-0.3h0v0v0l0.1-0.1l0-0.1h0v0l0,0
	v0h0v0l0.1-0.1l0-0.1l0.1-0.1l0.1-0.2v0h0v-0.1L26,31.4v0l0,0l0-0.1V31l0-0.1l0,0v-0.1l0,0v0h0v0l0.2-0.2l0.2-0.1h0h0.1v0h0.1l0.1,0
	v0l0.1,0.1l0.1,0.1l0.1,0.1l0,0v0.1l-0.1,0.2l0,0.1l0,0v0l0.1,0.1l0.1,0.1l0,0l0.1,0l0.2,0.1l0.2,0.1l0,0l0,0l0.1,0L28,32l0.2,0.2
	l0.1,0.1h0l0.1,0.3v0.1l-0.1,0.2l-0.1,0l0,0l-0.1,0.2L28,33.4l-0.1,0.3l-0.1,0.2l-0.1,0.3v0.1L27.8,34.3L27.8,34.3z"/>
<path class="st13" d="M30.2,32.7L30.2,32.7L30.2,32.7l0-0.1v-0.1h0V32.7z M29.7,33.6L29.7,33.6L29.7,33.6L29.7,33.6L29.7,33.6z
	 M29.6,34.5L29.6,34.5v-0.1V34.5L29.6,34.5z M29.6,34.3L29.6,34.3L29.6,34.3L29.6,34.3z M32,29.9l0.1,0l0.1,0.1l0.1,0.1v0.1l0,0.1
	l-0.1,0.1l0,0.1l0,0v0h0l0,0.1l-0.1,0.2l0,0.1l0,0l-0.1,0.2l-0.1,0.1l-0.1,0.1l-0.1,0.2l0,0.1l-0.1,0.1L31.3,32v0l-0.1,0.2L31,32.5
	l0,0.1l0,0l-0.1,0.2l0,0l0,0.1h0l0,0.1v0.1l0,0l0,0.1l0,0l0,0.1l0,0.1l-0.1,0.1l-0.1,0.2l0,0l-0.1,0.2l0,0.1L30,34.2v0.1v0.1
	l0.1,0.1l0.1,0l0,0h0.1h0h0v0h0h0l0.1-0.1l0.1,0l0-0.1l0.2-0.1l0.2-0.1l0.1-0.2l0.1-0.2v0h0v0h0l0-0.1l0.1-0.1l0.1-0.1h0.1l0.1,0
	l0.1,0.1l0.1,0.1v0.1h0.1l0,0.1l-0.1,0.1L31.9,34l-0.1,0.1l-0.2,0.2l-0.2,0.2l-0.1,0.1l-0.1,0.1l-0.2,0.1L30.9,35l-0.2,0.1l-0.2,0.1
	l-0.1,0.1l-0.1,0l0,0h0h-0.3h-0.1h-0.3l-0.3,0l-0.2-0.1l0,0l0-0.1h0L28.8,35v0l0,0v0v0l0,0l0-0.3v-0.1l0.1-0.3l0-0.3l0.1-0.3
	l0.1-0.3l0.1-0.2l0.1-0.2l0.1-0.2l0.1-0.1l0-0.1l0,0l0.1-0.2l0.1-0.2l0.1-0.2l0.1-0.2l0.1-0.2l0.1-0.1l0.1-0.2l0.1-0.1l0.1-0.2
	l0.1-0.2l0,0l0,0l0-0.1l0.1-0.2l0.1-0.2l0.1-0.1L31,30l0.1,0l0.2,0l0.3,0l0.3,0L32,29.9z"/>
<path class="st13" d="M35.6,32.6L35.6,32.6L35.6,32.6L35.6,32.6z M35.4,33.1L35.4,33.1L35.4,33.1l0-0.1L35.4,33.1L35.4,33.1z
	 M35.2,33.8L35.2,33.8L35.2,33.8L35.2,33.8z M35.1,33.1L35.1,33.1l0.1,0L35.1,33.1L35.1,33.1z M35.1,32.8L35.1,32.8L35.1,32.8
	L35.1,32.8L35.1,32.8z M34.9,33.8L34.9,33.8L34.9,33.8L34.9,33.8L34.9,33.8z M34.9,33.3L34.9,33.3L34.9,33.3L34.9,33.3L34.9,33.3z
	 M34.9,34.2L34.9,34.2L34.9,34.2l0-0.1v0L34.9,34.2L34.9,34.2z M34.8,33.7v-0.1l0,0L34.8,33.7L34.8,33.7z M34.7,34.5L34.7,34.5
	l0.1,0L34.7,34.5L34.7,34.5L34.7,34.5z M34.6,34.6L34.6,34.6l0-0.1L34.6,34.6L34.6,34.6z M34.5,34.9L34.5,34.9L34.5,34.9l-0.1,0
	L34.5,34.9z M34.4,34.2L34.4,34.2L34.4,34.2L34.4,34.2z M34.3,35.6L34.3,35.6l0.1-0.1h0L34.3,35.6L34.3,35.6z M34.2,34.8L34.2,34.8
	h0.1h0.1v0L34.2,34.8L34.2,34.8z M34,35.4L34,35.4h0.1v0L34,35.4L34,35.4L34,35.4z M32.9,32.6L32.9,32.6L32.9,32.6L32.9,32.6
	L32.9,32.6z M32.9,32.8L32.9,32.8L32.9,32.8L32.9,32.8z M33.9,32.9L33.9,32.9l-0.1,0l-0.2,0.1l-0.2,0.1l0,0l-0.1,0l0,0l0,0v0h0l0,0
	l0,0l0,0.1v0v0l0,0l0,0.1L32.9,34l0,0.1l0,0v0.1l0,0l0,0.1v0.1l0.1,0.2l0.1,0.1h0.2l0.2,0l0.2-0.1l0.2-0.2l0.1-0.2l0.1-0.2l0.1-0.1
	l0-0.1l0.1-0.1l0-0.1l0.1-0.1l0-0.1v-0.1l-0.1-0.2L34.3,33l-0.1-0.1l-0.1,0H33.9z M32.3,34.4L32.3,34.4L32.3,34.4L32.3,34.4z
	 M32.3,34.6L32.3,34.6L32.3,34.6L32.3,34.6L32.3,34.6z M32.3,34.4L32.3,34.4L32.3,34.4L32.3,34.4L32.3,34.4L32.3,34.4L32.3,34.4z
	 M32.2,35.1L32.2,35.1L32.2,35.1L32.2,35.1L32.2,35.1L32.2,35.1z M32.2,34.3L32.2,34.3L32.2,34.3L32.2,34.3L32.2,34.3z M32.1,34
	L32.1,34L32.1,34L32.1,34z M32,34.6L32,34.6L32,34.6L32,34.6z M31.9,34.4L31.9,34.4L31.9,34.4l0.1,0.1l0.1,0h0v-0.1l-0.1,0H31.9z
	 M31.7,34.6L31.7,34.6L31.7,34.6L31.7,34.6z M34.9,35.2l0.1,0.1h0l0.1,0l0.2-0.1l0.2-0.1l0.1-0.1l0.1-0.1l0.1-0.1l0.2-0.2l0.1-0.1v0
	l0.1,0v0h0v0h0l0.3-0.3l0.1-0.1l0.1,0h0.1l0.1,0.1l0.1,0.1l0,0.1l0,0.1L37,34.7l0,0v0l0,0l0,0l0,0v0L36.8,35l-0.1,0.1l0,0h0v0l0,0v0
	h0v0l-0.1,0v0l-0.1,0.1h0v0l-0.2,0.1v0l-0.1,0l-0.2,0.1l-0.1,0.1h-0.1L35.5,36L35.3,36h-0.1l-0.2,0.1H35h0h-0.1l-0.1,0h-0.1h-0.3
	h-0.1L34,36l-0.1,0l-0.1-0.1h0l-0.1-0.1h0v-0.1l0,0l0-0.1l-0.1-0.1h0l-0.1,0L33,35.6h0v0h0l-0.1,0h0h0l0,0l-0.1,0l-0.3,0l-0.2,0
	l-0.3-0.1l-0.2-0.1l-0.1-0.1h0l-0.1-0.1l-0.1-0.2l0-0.2v0l0,0l0-0.1v-0.2l0.1-0.3l0.1-0.3l0.1-0.3v0l0,0l0-0.1l0.1-0.1l0-0.1
	l0.1-0.2l0.1-0.1l0-0.1l0,0l0-0.1l0,0v0l0,0l0-0.1l0.1-0.1h0v0l0.1-0.1v0h0v0v0h0l0.1-0.1h0v0l0.2-0.1l0,0h0.1L33,32H33l0.1-0.1h0
	l0,0h0v0h0.1l0.1,0h0.1l0.1,0h0l0,0h0.2l0.3,0l0.1,0v0l0.1,0l0.1,0.1l0.1,0.1h0l0.1,0.2l0.1,0.2l0.1,0l0.1-0.2l0.1-0.2l0.1-0.2
	l0.1-0.2l0.1-0.2l0.1-0.2l0.1-0.2l0.1-0.1l0.1,0h0.3l0.3,0l0.3,0.1l0.3,0.1l0.1,0.1l0,0.1v0.1v0l-0.1,0.1l-0.1,0.1l0,0.1L37,31.6
	l-0.1,0.2l-0.1,0.2l-0.1,0.2l-0.1,0.1l0,0.1l-0.1,0.2l-0.1,0.2l0,0.1L36,33L36,33.1v0.1l-0.1,0.2l0,0.1l-0.1,0.2l0,0.1l0,0l0,0.1
	l0,0l-0.1,0.1l-0.1,0.2l-0.1,0.2l-0.1,0.2l0,0.1L35,35.1L34.9,35.2z"/>
</svg>
