<?xml version="1.0" encoding="utf-8"?>
<!-- Generator: Adobe Illustrator 22.0.1, SVG Export Plug-In . SVG Version: 6.00 Build 0)  -->
<svg version="1.1" id="Ebene_1" xmlns="http://www.w3.org/2000/svg" xmlns:xlink="http://www.w3.org/1999/xlink" x="0px" y="0px"
	 viewBox="0 0 95.3 15.9" style="enable-background:new 0 0 95.3 15.9;" xml:space="preserve">
<style type="text/css">
	.st0{fill:#FFFFFF;}
	.st1{fill:#179BD7;}
	.st2{fill:#222D65;}
	.st3{fill:#253B80;}
	.st4{fill:#EE7F00;}
	.st5{fill:#D8D8D8;}
	.st6{fill:#FF9900;}
	.st7{fill:#FAA61A;}
	.st8{fill:#F79410;}
	.st9{fill:#FF5F00;}
	.st10{fill:#EB001B;}
	.st11{fill:#F79E1B;}
	.st12{fill:#FF6600;}
	.st13{fill:#E0B646;}
	.st14{fill:#E40520;}
	.st15{fill-rule:evenodd;clip-rule:evenodd;fill:#E0B646;}
</style>
<polygon class="st0" points="78.2,13.2 75.5,15.9 78.2,15.9 80.9,13.2 "/>
<polygon class="st0" points="85.1,13.2 87.8,15.9 90.5,15.9 87.8,13.2 "/>
<polygon class="st0" points="79.1,15.9 81.8,15.9 84.5,13.2 81.8,13.2 "/>
<path class="st0" d="M84,9.5c-2.1,0-3.8-1.7-3.8-3.8c0-2.1,1.7-3.8,3.8-3.8c2.1,0,3.8,1.7,3.8,3.8C87.8,7.8,86.1,9.5,84,9.5z
	 M95.3,2.3l-4.7-1.2c-0.1,1.3-0.4,3.3-0.8,4.5C89.8,2.3,87.2,0,84,0c-3.5,0-6.3,3-5.6,6.7c-0.6-0.9-1.4-2.8-1-5.4L75.3,2
	c-0.4,4.6,2.3,10.7,9.3,10.7C90.8,12.7,95,7.8,95.3,2.3z"/>
<polygon class="st0" points="88.7,13.2 91.4,15.9 94.1,15.9 91.4,13.2 "/>
<path class="st0" d="M17.6,10.1c0,0.8-0.2,2-1.4,2c-1,0-1-1-1-1.7V7.2h-1.5v3.7c0,1.3,0.6,2.3,2,2.3c0.8,0,1.5-0.4,1.9-0.9h0v0.8
	h1.5V7.2h-1.5L17.6,10.1L17.6,10.1z"/>
<path class="st0" d="M23.2,12.1c-0.6,0-0.7-0.5-0.7-1V8.3h1.4V7.2h-1.4V5.5L20.9,6v1.2h-1.1v1.1h1.1v3c0,1.2,0.7,1.9,1.9,1.9
	c0.5,0,0.8,0,1.1-0.1l0-1.2C23.7,12,23.5,12.1,23.2,12.1z"/>
<path class="st0" d="M8.9,9.6C9,8.8,9.4,8.2,10.3,8.2c0.9,0,1.2,0.6,1.3,1.4H8.9z M10.2,7.1c-1.8,0-2.7,1.4-2.7,3.1
	c0,1.9,1.1,3.1,3.1,3.1c0.8,0,1.5-0.2,2-0.5v-1.3c-0.6,0.3-1.2,0.6-2,0.6c-0.9,0-1.6-0.5-1.7-1.5H13C13,8.6,12.4,7.1,10.2,7.1z"/>
<path class="st0" d="M26.2,8.9c0-0.5,0.5-0.7,0.9-0.7c0.6,0,0.9,0.1,1.4,0.3l0.1-1.2c-0.5-0.1-1-0.2-1.7-0.2c-1.2,0-2.3,0.6-2.3,1.8
	c0,2.1,2.7,1.3,2.7,2.5c0,0.6-0.6,0.7-1,0.7c-0.5,0-1-0.1-1.5-0.4L24.7,13c0.6,0.1,1.2,0.2,1.7,0.2c1.3,0,2.5-0.5,2.5-1.9
	C28.9,9.2,26.2,9.8,26.2,8.9z"/>
<path class="st0" d="M2.5,11.9H1.6V6.4h0.9c1.3,0,2.6,1,2.6,2.7C5.1,10.9,3.8,11.9,2.5,11.9z M2.2,5.1H0v8h2.2c2.4,0,4.6-0.8,4.6-4
	C6.8,5.9,4.6,5.1,2.2,5.1z"/>
<path class="st0" d="M32.7,12.1c-1.1,0-1.6-0.8-1.6-1.9c0-1.1,0.6-1.9,1.6-1.9c0.5,0,0.8,0.1,1,0.2l0.1-1.2
	c-0.4-0.1-0.9-0.2-1.5-0.2c-1.9,0-2.9,1.4-2.9,3.1c0,1.8,1,3.1,2.9,3.1c0.6,0,1.1-0.1,1.5-0.2l-0.1-1.3
	C33.6,11.9,33.1,12.1,32.7,12.1z"/>
<path class="st0" d="M52,8.8h-0.6V6.4H52c0.8,0,1.5,0.3,1.5,1.3C53.5,8.6,52.8,8.8,52,8.8z M51.9,5.1h-2v8h1.6v-3h0.7
	c1.7,0,3.1-0.7,3.1-2.6C55.2,5.6,53.6,5.1,51.9,5.1z"/>
<path class="st0" d="M70.2,12.1c-0.6,0-0.7-0.5-0.7-1V8.3h1.4V7.2h-1.4V5.5L68,6v1.2h-1.1v1.1H68v3c0,1.2,0.7,1.9,1.9,1.9
	c0.5,0,0.8,0,1.1-0.1l0-1.2C70.8,12,70.5,12.1,70.2,12.1z"/>
<path class="st0" d="M58.3,12.1c-1.2,0-1.5-1.1-1.5-2c0-0.9,0.5-1.8,1.5-1.8c1,0,1.5,0.9,1.5,1.8C59.8,11,59.5,12.1,58.3,12.1z
	 M58.3,7.1c-1.7,0-3.1,1.2-3.1,3.1c0,1.7,1.1,3,3.1,3c2,0,3.1-1.3,3.1-3C61.4,8.3,60,7.1,58.3,7.1z"/>
<path class="st0" d="M38.2,7.1c-0.8,0-1.5,0.4-1.9,0.9h0V4.5h-1.5v8.6h1.5v-2.9c0-0.8,0.2-2,1.4-2c1,0,1,1,1,1.7v3.2h1.5V9.4
	C40.2,8.1,39.6,7.1,38.2,7.1z"/>
<path class="st0" d="M42.4,9.6c0.1-0.8,0.5-1.4,1.4-1.4c0.9,0,1.2,0.6,1.3,1.4H42.4z M43.7,7.1c-1.8,0-2.7,1.4-2.7,3.1
	c0,1.9,1.1,3.1,3.1,3.1c0.8,0,1.5-0.2,2-0.5v-1.3c-0.6,0.3-1.2,0.6-2,0.6c-0.9,0-1.6-0.5-1.7-1.5h4.1C46.5,8.6,45.9,7.1,43.7,7.1z"
	/>
<path class="st0" d="M63.6,8.9c0-0.5,0.5-0.7,0.9-0.7c0.6,0,0.9,0.1,1.4,0.3L66,7.3c-0.5-0.1-0.9-0.2-1.7-0.2
	c-1.2,0-2.3,0.6-2.3,1.8c0,2.1,2.7,1.3,2.7,2.5c0,0.6-0.6,0.7-1,0.7c-0.5,0-1-0.1-1.5-0.4L62.1,13c0.6,0.1,1.2,0.2,1.7,0.2
	c1.3,0,2.5-0.5,2.5-1.9C66.3,9.2,63.6,9.8,63.6,8.9z"/>
</svg>
