<svg id="Ebene_1" data-name="Ebene 1" xmlns="http://www.w3.org/2000/svg" viewBox="0 0 51.5 16.6">
  <defs>
    <style>
      .cls-1 {
        fill: #fff;
      }

      .cls-2 {
        fill: #faa61a;
      }
    </style>
  </defs>
  <title>mgc_icons</title>
  <g>
    <polygon class="cls-1" points="22.3 16.4 18.1 16.4 20.8 0.3 24.9 0.3 22.3 16.4"/>
    <path class="cls-1" d="M33.4,3.4a6.3,6.3,0,0,1,3.1.6l.4.2L37.4.7A10.5,10.5,0,0,0,33.7,0c-4.1,0-7.1,2.2-7.1,5.3S28.7,9,30.3,9.7s2.1,1.3,2.1,2-1.2,1.5-2.5,1.5a8.5,8.5,0,0,1-3.9-.8l-.5-.3-.6,3.7a13.6,13.6,0,0,0,4.6.8c4.4,0,7.3-2.2,7.3-5.5s-1.1-3.3-3.5-4.5-2.4-1.3-2.4-2S31.7,3.4,33.4,3.4Z"/>
    <path class="cls-1" d="M43,10.7c.4-.9,1.7-4.5,1.7-4.5l.5-1.6L45.5,6s.8,3.9,1,4.7ZM48.1.3H44.9a2,2,0,0,0-2.2,1.3L36.5,16.4h4.4s.7-2,.9-2.4h5.3l.5,2.4h3.9Z"/>
    <path class="cls-1" d="M14.7.3,10.6,11.2l-.4-2.1A12.4,12.4,0,0,0,4.4,2.3L8.1,16.4h4.4L19,.3Z"/>
    <path class="cls-2" d="M8.7,1.6C8.4.6,7.7.4,6.8.3H.1V.6C5.3,2,8.7,5.2,10.2,9.1Z"/>
  </g>
</svg>
